<svg xmlns="http://www.w3.org/2000/svg" viewBox="0 0 60.045 56.772">
  <g data-name="Group 221" style="mix-blend-mode:multiply;isolation:isolate">
    <g data-name="Group 217">
      <g data-name="Group 216">
        <g data-name="Group 215">
          <path data-name="Rectangle 96" fill="#92d1f6" d="M11.166 20.283h36.863v5.883H11.166z"/>
          <path data-name="Rectangle 97" fill="#55a82d" d="M11.166 28.128h36.863v.982H11.166z"/>
          <path data-name="Rectangle 98" fill="#073b8d" d="M11.166 30.091h36.863v1.96H11.166z"/>
          <g data-name="Group 214" fill="#12103a">
            <g data-name="Group 213">
              <path data-name="Path 186" d="M18.973 34.993v4.9h.939v-3.539l3.864 3.539h.786v-4.9h-.944v3.538l-3.863-3.538z"/>
              <path data-name="Path 187" d="M48.029 39.895v-.864h-3.583v-4.038H43.5v4.9z"/>
              <path data-name="Path 188" d="M28.626 39.895h.72l2.69-4.9h-1.059L29 38.725l-1.976-3.732h-1.078z"/>
              <path data-name="Path 189" d="M38.281 34.993a2.9 2.9 0 00-2 .522 1.8 1.8 0 00-.534 1.4v1.053a1.81 1.81 0 00.534 1.4 2.9 2.9 0 002 .525h3.166v-2.83h-2.976v.882H40.5v1.083h-2.474a1.522 1.522 0 01-1.081-.312 1.121 1.121 0 01-.258-.829v-.892a1.126 1.126 0 01.258-.83 1.528 1.528 0 011.081-.308h3.418v-.866z"/>
              <path data-name="Path 190" d="M12.107 35.859h2.526a1.522 1.522 0 011.078.308 1.1 1.1 0 01.261.839v.876a1.092 1.092 0 01-.261.836 1.517 1.517 0 01-1.078.312h-2.526zm4.806 1.056a1.8 1.8 0 00-.535-1.4 2.905 2.905 0 00-2-.522h-3.212v4.9h3.212a2.905 2.905 0 002-.525 1.807 1.807 0 00.535-1.4z" fill-rule="evenodd"/>
            </g>
            <path data-name="Rectangle 99" d="M32.788 36.908h1.107v1.105h-1.107z"/>
          </g>
        </g>
      </g>
    </g>
    <g data-name="Group 219">
      <g data-name="Group 218" fill="#161615">
        <path data-name="Path 191" d="M1.174 31.802a1.122 1.122 0 00-.327.176.868.868 0 00-.218.258.905.905 0 00-.109.324 1.054 1.054 0 00-.005.364 1.193 1.193 0 00.187.551 1.094 1.094 0 00.377.346 1.441 1.441 0 00.5.168 2.445 2.445 0 00.563.011 2.817 2.817 0 00.586-.143 1.353 1.353 0 00.46-.285 1.031 1.031 0 00.287-.426 1.184 1.184 0 00.06-.58 1.05 1.05 0 00-.133-.42.882.882 0 00-.259-.3.978.978 0 00-.36-.176 1.459 1.459 0 00-.433-.043l-.054-.487a1.68 1.68 0 011.135.355 1.547 1.547 0 01.518 1.062 1.766 1.766 0 01-.058.765 1.492 1.492 0 01-.347.574 1.683 1.683 0 01-.571.388 2.6 2.6 0 01-.739.2 2.4 2.4 0 01-.768-.027 1.875 1.875 0 01-.653-.256 1.615 1.615 0 01-.477-.5 1.72 1.72 0 01-.237-.733 1.9 1.9 0 01.011-.555 1.734 1.734 0 01.172-.486 1.386 1.386 0 01.332-.377 1.426 1.426 0 01.5-.236z"/>
        <path data-name="Path 192" d="M0 30.496v-2.552h.412v2.062h1.176v-1.929H2v1.924h1.282v-2.076h.414v2.569z"/>
        <path data-name="Path 193" d="M.087 26.936l.238-1.726a1.176 1.176 0 01.365-.78.9.9 0 01.745-.2 1.117 1.117 0 01.561.231.778.778 0 01.279.53h.01a.656.656 0 01.138-.241.606.606 0 01.193-.139.67.67 0 01.237-.059 2.823 2.823 0 01.538.015c.092.01.189.011.277.011a1.242 1.242 0 00.26-.026.52.52 0 00.225-.082l-.072.543a.277.277 0 01-.164.047 1.509 1.509 0 01-.218 0c-.084-.007-.169-.017-.264-.027a1.918 1.918 0 00-.276 0 2.383 2.383 0 00-.261.016.6.6 0 00-.223.069.424.424 0 00-.167.157.619.619 0 00-.093.279l-.161 1.192 1.564.211-.067.487zm1.893-1.275a2.3 2.3 0 00.017-.327.743.743 0 00-.062-.282.562.562 0 00-.173-.212.763.763 0 00-.789-.021.635.635 0 00-.244.473l-.164 1.209 1.276.175z"/>
        <path data-name="Path 194" d="M1.286 22.492l-.309 1.192-.4-.106.746-2.861.4.1-.31 1.2 3.179.822-.123.478z"/>
        <path data-name="Path 195" d="M1.556 20.111l.159-.464 3.493 1.216-.161.459z"/>
        <path data-name="Path 196" d="M2.07 18.648l.983-2.224.376.167-.783 1.776 1.078.473.686-1.554.38.165-.686 1.556 1.549.686-.2.449z"/>
        <path data-name="Path 197" d="M3.439 15.738l.235-.435 3.252 1.763-.233.431z"/>
        <path data-name="Path 198" d="M6.561 12.802a1.039 1.039 0 00-.36-.083.869.869 0 00-.331.054 1.037 1.037 0 00-.3.172 1.5 1.5 0 00-.243.278 1.2 1.2 0 00-.211.539 1.157 1.157 0 00.058.51 1.518 1.518 0 00.271.455 2.2 2.2 0 00.428.369 2.468 2.468 0 00.537.277 1.452 1.452 0 00.531.086 1.147 1.147 0 00.5-.141 1.175 1.175 0 00.42-.4 1.02 1.02 0 00.176-.4.955.955 0 000-.4.978.978 0 00-.163-.367 1.447 1.447 0 00-.3-.313l.274-.412a1.684 1.684 0 01.631 1.01 1.54 1.54 0 01-.294 1.145 1.843 1.843 0 01-.543.543 1.586 1.586 0 01-.641.214 1.738 1.738 0 01-.684-.077 2.545 2.545 0 01-.683-.334 2.425 2.425 0 01-.57-.516 1.861 1.861 0 01-.329-.625 1.639 1.639 0 01-.042-.686 1.85 1.85 0 01.3-.713 1.936 1.936 0 01.37-.411 1.429 1.429 0 01.448-.256 1.3 1.3 0 01.5-.071 1.318 1.318 0 01.529.145z"/>
        <path data-name="Path 199" d="M7.218 10.228l.359-.409 3.73 1.367-.36.4-1.1-.434-1.034 1.175.56 1.048-.338.382zm1.383 1.713l.828-.942-1.7-.678-.007.009z"/>
        <path data-name="Path 200" d="M11.015 10.913l-.189-3.675-1.589 1.413-.273-.308 2.02-1.8.274.307.194 3.671 1.761-1.568.279.312-2.2 1.956z"/>
        <path data-name="Path 201" d="M11.654 6.059l.393-.295 2.223 2.959-.4.293z"/>
        <path data-name="Path 202" d="M13.711 6.777a2.326 2.326 0 01-.285-.68 1.912 1.912 0 01-.035-.7 1.636 1.636 0 01.252-.656 1.945 1.945 0 011.319-.8 1.639 1.639 0 01.7.079 1.916 1.916 0 01.61.357 2.453 2.453 0 01.469.565 2.309 2.309 0 01.282.68 1.834 1.834 0 01.038.705 1.663 1.663 0 01-.251.655 1.814 1.814 0 01-.576.536 1.793 1.793 0 01-.746.26 1.6 1.6 0 01-.7-.079 1.779 1.779 0 01-.6-.356 2.3 2.3 0 01-.477-.566zm.422-.252a1.949 1.949 0 00.346.43 1.453 1.453 0 00.447.3 1.168 1.168 0 00.523.094 1.233 1.233 0 00.565-.188 1.184 1.184 0 00.429-.413 1.159 1.159 0 00.16-.5 1.516 1.516 0 00-.057-.537 2.239 2.239 0 00-.228-.511 2.126 2.126 0 00-.347-.434 1.481 1.481 0 00-.45-.3 1.139 1.139 0 00-1.086.1 1.209 1.209 0 00-.428.415 1.152 1.152 0 00-.158.5 1.483 1.483 0 00.058.538 2.137 2.137 0 00.226.507z"/>
        <path data-name="Path 203" d="M16.675 2.924l.481-.205 2.968 2h.01l-1.176-2.761.43-.182 1.448 3.407-.5.211-2.942-1.979h-.009l1.16 2.733-.428.181z"/>
        <path data-name="Path 204" d="M20.491 1.403l2.462-.687.111.4-1.984.555.315 1.136 1.854-.519.11.4-1.849.514.34 1.232 2-.557.11.4-2.477.692z"/>
        <path data-name="Path 205" d="M25.468.254L26.73.137a1.839 1.839 0 011.35.318 1.715 1.715 0 01.577 1.275 2.913 2.913 0 01-.024.834 1.629 1.629 0 01-.267.635 1.435 1.435 0 01-.517.42 2.278 2.278 0 01-.785.2l-1.265.114zm.787 3.228l.813-.076a1.4 1.4 0 00.205-.034 1.008 1.008 0 00.26-.085 1.2 1.2 0 00.262-.165 1 1 0 00.223-.276 1.431 1.431 0 00.139-.415 1.91 1.91 0 00.021-.587 2.845 2.845 0 00-.121-.584 1.117 1.117 0 00-.253-.423.915.915 0 00-.4-.244 1.442 1.442 0 00-.58-.046l-.828.074z"/>
        <path data-name="Path 206" d="M29.381.002h.491l.006 3.7h-.492z"/>
        <path data-name="Path 207" d="M34.487 1.489a.771.771 0 00-.206-.613 1.062 1.062 0 00-.6-.265 1.613 1.613 0 00-.31-.012.8.8 0 00-.28.067.476.476 0 00-.208.167.561.561 0 00-.114.288.4.4 0 00.061.288.8.8 0 00.243.211 1.944 1.944 0 00.361.162c.136.051.273.1.418.159a3.346 3.346 0 01.413.183 1.214 1.214 0 01.346.237.979.979 0 01.059 1.282 1.109 1.109 0 01-.384.291 1.386 1.386 0 01-.485.126 2.224 2.224 0 01-1.088-.168 1.412 1.412 0 01-.448-.3 1.126 1.126 0 01-.271-.453 1.292 1.292 0 01-.038-.592l.46.068a.839.839 0 00.035.409.878.878 0 00.194.31.961.961 0 00.319.2 1.562 1.562 0 00.4.109 1.69 1.69 0 00.335.016.96.96 0 00.314-.062.6.6 0 00.244-.171.583.583 0 00.127-.319.471.471 0 00-.053-.322.755.755 0 00-.24-.23 2.247 2.247 0 00-.358-.176c-.132-.05-.273-.1-.414-.153s-.281-.112-.416-.173a1.428 1.428 0 01-.352-.225.855.855 0 01-.228-.309.789.789 0 01-.043-.432 1.024 1.024 0 01.181-.462.978.978 0 01.348-.29 1.289 1.289 0 01.453-.137 1.988 1.988 0 01.5 0 2.052 2.052 0 01.514.142 1.162 1.162 0 01.39.27 1.067 1.067 0 01.239.4 1.291 1.291 0 01.044.536z"/>
        <path data-name="Path 208" d="M36.092.716l.479.113-.839 3.6-.478-.11z"/>
        <path data-name="Path 209" d="M39.315 2.77a.75.75 0 00-.093-.639 1.033 1.033 0 00-.54-.366 1.959 1.959 0 00-.3-.065.893.893 0 00-.285.015.554.554 0 00-.4.394.374.374 0 00.012.295.762.762 0 00.2.248 2.538 2.538 0 00.33.225c.127.07.253.147.385.226s.256.16.375.25a1.51 1.51 0 01.3.3.868.868 0 01.114.834.921.921 0 01-.283.437 1.078 1.078 0 01-.43.221 1.509 1.509 0 01-.5.04 2.272 2.272 0 01-1.037-.356 1.461 1.461 0 01-.39-.38 1.131 1.131 0 01-.188-.491 1.3 1.3 0 01.067-.593l.442.147a.845.845 0 00-.041.412.813.813 0 00.143.336.945.945 0 00.271.259 1.477 1.477 0 00.374.176 1.967 1.967 0 00.325.076 1.011 1.011 0 00.322-.006.7.7 0 00.272-.127.6.6 0 00.179-.292.453.453 0 000-.326.8.8 0 00-.194-.267 1.984 1.984 0 00-.321-.235 20.307 20.307 0 00-.382-.229 4.242 4.242 0 01-.381-.239 1.681 1.681 0 01-.308-.284.934.934 0 01-.17-.346.774.774 0 01.039-.43.988.988 0 01.256-.426 1.044 1.044 0 01.392-.224 1.371 1.371 0 01.469-.054 1.977 1.977 0 01.972.322 1.148 1.148 0 01.339.337 1.051 1.051 0 01.161.435 1.3 1.3 0 01-.05.538z"/>
        <path data-name="Path 210" d="M41.685 3.027l-1.116-.519.177-.376 2.678 1.25-.176.378-1.115-.521-1.386 2.976-.447-.209z"/>
        <path data-name="Path 211" d="M44.057 3.741l2.174 1.334-.215.356-1.758-1.08-.613 1.005 1.636 1-.217.352-1.639-1-.67 1.091 1.774 1.085-.218.353-2.19-1.343z"/>
        <path data-name="Path 212" d="M47.079 5.641l.519.43-1.092 3.137 2.887-1.644.518.432-2.362 2.846-.361-.3 1.968-2.368h-.006l-2.858 1.627-.322-.268 1.08-3.1h-.011l-1.964 2.365-.36-.3z"/>
        <path data-name="Path 213" d="M51.442 9.629l.366.405-1.784 3.547-.367-.407.561-1.041-1.044-1.166-1.109.437-.337-.378zm-1.858 1.176l.837.934.87-1.61-.006-.009z"/>
        <path data-name="Path 214" d="M52.261 17.645l.1-.72a1.667 1.667 0 01-.647-.643 1.742 1.742 0 01-.263-.747 1.577 1.577 0 01.085-.694 1.837 1.837 0 01.354-.606 2.423 2.423 0 011.248-.752 1.849 1.849 0 01.7-.034 1.656 1.656 0 01.655.253 1.708 1.708 0 01.534.579 1.686 1.686 0 01.263.742 1.559 1.559 0 01-.082.7 1.774 1.774 0 01-.355.608 2.427 2.427 0 01-1.332.77 1.761 1.761 0 01-.785-.018l-.081.618zm.616-1.643l-.082.622a1.307 1.307 0 00.622 0 1.95 1.95 0 00.611-.247 2.157 2.157 0 00.437-.348 1.543 1.543 0 00.3-.448 1.174 1.174 0 00.094-.522 1.341 1.341 0 00-.6-.994 1.2 1.2 0 00-.505-.162 1.48 1.48 0 00-.54.059 2.182 2.182 0 00-.507.223 2.152 2.152 0 00-.435.347 1.457 1.457 0 00-.3.448 1.224 1.224 0 00-.1.523 1.189 1.189 0 00.187.564 1.215 1.215 0 00.351.383l.072-.515z"/>
        <path data-name="Path 215" d="M55.281 20.389a1.406 1.406 0 01-1.133.068 1.5 1.5 0 01-.747-.853 2.184 2.184 0 01-.171-.622 1.125 1.125 0 01.346-.987 1.759 1.759 0 01.549-.342l2.174-.918.193.455-2.177.916a.987.987 0 00-.586.537 1.023 1.023 0 00.054.8.95.95 0 00.517.561 1.051 1.051 0 00.787-.065l2.179-.92.19.455z"/>
        <path data-name="Path 216" d="M58.082 21.537l.146.523-3.188 2.37-.145-.528.969-.682-.411-1.51-1.184-.105-.134-.491zm-2.189.215l.333 1.21 1.5-1.051v-.008z"/>
        <path data-name="Path 217" d="M58.713 24.142l.072.49-3.25.486.293 1.937-.41.06-.363-2.422z"/>
        <path data-name="Path 218" d="M59.1 27.241l.035.495-3.69.258-.035-.493z"/>
        <path data-name="Path 219" d="M58.779 29.583v-1.229h.415v2.956h-.413v-1.234h-3.284v-.495z"/>
        <path data-name="Path 220" d="M58.993 33.077l-.067.539-3.852.975.069-.543 1.154-.262.2-1.552-1.055-.55.066-.5zm-2.107-.635l-.159 1.243 1.79-.4v-.008zm3.159.338l-.073.56-.792.351.043-.329z"/>
      </g>
    </g>
    <g data-name="Group 220" fill="#161615">
      <path data-name="Path 221" d="M19.222 52.984h.493v3.7h-.493z"/>
      <path data-name="Path 222" d="M22.684 54.069a.782.782 0 00-.289-.582 1.031 1.031 0 00-.628-.177 1.484 1.484 0 00-.31.031.785.785 0 00-.266.1.554.554 0 00-.185.2.591.591 0 00-.068.3.394.394 0 00.1.279.836.836 0 00.273.172 2.658 2.658 0 00.376.109c.141.03.289.064.439.1s.291.076.434.122a1.5 1.5 0 01.38.187.89.89 0 01.264.3.92.92 0 01.1.451.975.975 0 01-.132.51 1.13 1.13 0 01-.342.339 1.491 1.491 0 01-.465.194 2.168 2.168 0 01-.508.064 2.2 2.2 0 01-.589-.079 1.389 1.389 0 01-.484-.236 1.127 1.127 0 01-.332-.409 1.263 1.263 0 01-.124-.585h.466a.813.813 0 00.091.4.83.83 0 00.238.279.934.934 0 00.342.16 1.5 1.5 0 00.4.056 1.791 1.791 0 00.337-.034 1.107 1.107 0 00.3-.1.574.574 0 00.3-.535.487.487 0 00-.1-.315.7.7 0 00-.267-.191 1.707 1.707 0 00-.379-.125l-.434-.1a7.195 7.195 0 01-.438-.111 1.49 1.49 0 01-.377-.175.764.764 0 01-.373-.692.988.988 0 01.116-.485 1.031 1.031 0 01.3-.338 1.477 1.477 0 01.43-.2 2.066 2.066 0 011.025 0 1.194 1.194 0 01.425.212 1.132 1.132 0 01.289.367 1.273 1.273 0 01.119.528z"/>
      <path data-name="Path 223" d="M23.693 54.834a2.452 2.452 0 01.111-.73 1.869 1.869 0 01.335-.618 1.573 1.573 0 01.554-.429 1.717 1.717 0 01.773-.161 1.7 1.7 0 01.77.161 1.594 1.594 0 01.557.429 1.839 1.839 0 01.33.618 2.371 2.371 0 010 1.459 1.788 1.788 0 01-.33.617 1.634 1.634 0 01-.557.431 1.751 1.751 0 01-.77.161 1.774 1.774 0 01-.773-.161 1.613 1.613 0 01-.554-.431 1.816 1.816 0 01-.335-.617 2.454 2.454 0 01-.111-.729zm.492 0a2.014 2.014 0 00.075.55 1.478 1.478 0 00.225.489 1.173 1.173 0 00.981.486 1.232 1.232 0 00.581-.136 1.159 1.159 0 00.4-.35 1.486 1.486 0 00.23-.489 2.236 2.236 0 000-1.1 1.458 1.458 0 00-.23-.489 1.13 1.13 0 00-.4-.351 1.205 1.205 0 00-.581-.132 1.154 1.154 0 00-.981.483 1.45 1.45 0 00-.225.489 2.031 2.031 0 00-.075.55z"/>
      <path data-name="Path 224" d="M29.567 55.799a.563.563 0 00.22.414.759.759 0 00.453.146.648.648 0 00.6-.353 2.28 2.28 0 00.227-1.067l-.008-.013a.972.972 0 01-.852.508 1.267 1.267 0 01-.5-.092.99.99 0 01-.364-.25 1.041 1.041 0 01-.222-.383 1.614 1.614 0 01-.074-.5 1.329 1.329 0 01.085-.485 1.06 1.06 0 01.25-.376 1.085 1.085 0 01.379-.245 1.286 1.286 0 01.488-.089 1.438 1.438 0 01.484.079.972.972 0 01.4.275 1.454 1.454 0 01.272.54 3.2 3.2 0 01.1.86 2.861 2.861 0 01-.3 1.466 1.032 1.032 0 01-.966.514 1.48 1.48 0 01-.426-.057.925.925 0 01-.339-.181.95.95 0 01-.237-.293 1.067 1.067 0 01-.109-.414zm1.428-1.563a.984.984 0 00-.052-.319.733.733 0 00-.147-.267.592.592 0 00-.233-.185.761.761 0 00-.327-.067.727.727 0 00-.334.072.622.622 0 00-.222.195.825.825 0 00-.123.278 1.16 1.16 0 00-.041.328.824.824 0 00.053.286.865.865 0 00.151.249.76.76 0 00.228.177.692.692 0 00.292.063.785.785 0 00.316-.063.761.761 0 00.235-.18.773.773 0 00.15-.256.879.879 0 00.054-.311z"/>
      <path data-name="Path 225" d="M31.971 54.877c0-.2.011-.413.028-.631a2.006 2.006 0 01.15-.6 1.11 1.11 0 01.37-.454 1.144 1.144 0 01.677-.178 1.131 1.131 0 01.674.178 1.168 1.168 0 01.37.454 2 2 0 01.151.6c.015.218.027.429.027.631 0 .137 0 .275-.012.421a3.088 3.088 0 01-.051.425 1.9 1.9 0 01-.12.391 1 1 0 01-.547.545 1.313 1.313 0 01-.492.084 1.254 1.254 0 01-.49-.084.894.894 0 01-.339-.222 1.071 1.071 0 01-.215-.323 2.28 2.28 0 01-.118-.391 2.47 2.47 0 01-.05-.425 6.048 6.048 0 01-.013-.421zm.464-.006c0 .14.005.3.016.467a2.264 2.264 0 00.081.48.9.9 0 00.229.383.592.592 0 00.435.157.606.606 0 00.434-.157.933.933 0 00.227-.383 1.983 1.983 0 00.081-.48c.006-.171.013-.327.013-.467v-.3a2.5 2.5 0 00-.025-.326 2.436 2.436 0 00-.067-.319.892.892 0 00-.131-.268.63.63 0 00-.216-.192.656.656 0 00-.848.192.868.868 0 00-.13.268 2.629 2.629 0 00-.094.645q-.005.17-.005.301z"/>
      <path data-name="Path 226" d="M34.855 54.877c0-.2.009-.413.023-.631a1.871 1.871 0 01.154-.6 1.12 1.12 0 01.364-.454 1.155 1.155 0 01.679-.178 1.14 1.14 0 01.676.178 1.1 1.1 0 01.37.454 1.974 1.974 0 01.147.6c.021.218.029.429.029.631 0 .137 0 .275-.008.421a3.865 3.865 0 01-.053.425 1.909 1.909 0 01-.121.391 1 1 0 01-.21.323.906.906 0 01-.34.222 1.254 1.254 0 01-.49.084 1.278 1.278 0 01-.49-.084.922.922 0 01-.338-.222.974.974 0 01-.211-.323 1.971 1.971 0 01-.123-.391 3.079 3.079 0 01-.049-.425 10.105 10.105 0 01-.009-.421zm.463-.006c0 .14 0 .3.01.467a2.09 2.09 0 00.089.48.858.858 0 00.224.383.594.594 0 00.434.157.6.6 0 00.436-.157.892.892 0 00.222-.383 1.769 1.769 0 00.084-.48c.009-.171.014-.327.014-.467v-.3a2.5 2.5 0 00-.026-.326 2.294 2.294 0 00-.07-.319.762.762 0 00-.126-.268.636.636 0 00-.215-.192.734.734 0 00-.634 0 .64.64 0 00-.213.192.688.688 0 00-.128.268 2.034 2.034 0 00-.069.319 1.93 1.93 0 00-.028.326c-.004.115-.004.214-.004.301z"/>
      <path data-name="Path 227" d="M39.362 56.683h-.441V54.05h-.954v-.354a2.478 2.478 0 00.361-.025 1.1 1.1 0 00.322-.107.744.744 0 00.237-.211.773.773 0 00.134-.343h.341z"/>
    </g>
    <path data-name="Path 228" d="M57.063 36.514a28.426 28.426 0 01-15.768 18.87v.965a29.312 29.312 0 0016.65-19.731z" fill="#41a3e3"/>
    <path data-name="Path 229" d="M55.261 36.306l-.288-.033a26.35 26.35 0 01-13.678 16.808v.985a27.237 27.237 0 0014.56-17.689z" fill="#41a3e3"/>
    <path data-name="Path 230" d="M2.107 36.408l-.882.1a29.3 29.3 0 0016.061 19.565V55.1A28.416 28.416 0 012.107 36.408z" fill="#41a3e3"/>
    <path data-name="Path 231" d="M4.2 36.164l-.4.05-.478.054a27.242 27.242 0 0013.973 17.49v-1A26.338 26.338 0 014.2 36.164z" fill="#41a3e3"/>
  </g>
</svg>
