<svg xmlns="http://www.w3.org/2000/svg" viewBox="0 0 146.86 89.29"><defs><style>.cls-1{fill:#e6001f;}.cls-2{fill:#a4a3a2;}</style></defs><g id="Layer_2" data-name="Layer 2"><g id="Grafica"><path class="cls-1" d="M73.43,31.78a440.82,440.82,0,0,1,73.43,6.13A146.12,146.12,0,0,0,0,37.91,441,441,0,0,1,73.43,31.78Z"/><path class="cls-2" d="M73.43,9.08a442,442,0,0,1,60.93,4.21,146.32,146.32,0,0,0-121.86,0A442.09,442.09,0,0,1,73.43,9.08Z"/><path class="cls-2" d="M.41,67.75,3.54,64a10.46,10.46,0,0,0,6.57,2.43c1.54,0,2.35-.52,2.35-1.39v0c0-.87-.67-1.31-3.45-2-4.31-1-7.64-2.2-7.64-6.35v0c0-3.77,3-6.49,7.85-6.49a12.77,12.77,0,0,1,8.33,2.69l-2.8,4a10,10,0,0,0-5.68-2c-1.36,0-2,.55-2,1.31v0c0,.93.7,1.34,3.54,2,4.63,1,7.53,2.51,7.53,6.31v0c0,4.14-3.28,6.61-8.2,6.61A14.22,14.22,0,0,1,.41,67.75Z"/><path class="cls-2" d="M21.26,50.49h16.3v4.75H26.82v3.1h9.73v4.43H26.82V66H37.71v4.78H21.26Z"/><path class="cls-2" d="M40.23,60.68v-.06A10.4,10.4,0,0,1,50.89,50.08a10,10,0,0,1,8.6,4.2l-4.23,3.27a5.5,5.5,0,0,0-4.43-2.37C48,55.18,46,57.61,46,60.57v0c0,3,2,5.42,4.84,5.42a5.54,5.54,0,0,0,4.57-2.46l4.23,3a10.22,10.22,0,0,1-9,4.57A10.29,10.29,0,0,1,40.23,60.68Z"/><path class="cls-2" d="M62.27,61.87V50.49h5.67V61.75c0,2.93,1.48,4.32,3.74,4.32s3.76-1.33,3.76-4.17V50.49h5.68V61.72c0,6.52-3.74,9.41-9.5,9.41S62.27,68.21,62.27,61.87Z"/><path class="cls-1" d="M84.88,50.49h9.59c3.1,0,5.24.81,6.6,2.17a6.32,6.32,0,0,1,1.79,4.72v.06a6.42,6.42,0,0,1-4.16,6.25l4.83,7.07H97.07L93,64.62H90.5v6.14H84.88Zm9.35,9.73c1.89,0,3-.93,3-2.41v-.05c0-1.63-1.19-2.44-3-2.44H90.5v4.9Z"/><path class="cls-1" d="M106.14,50.49h16.3v4.75H111.7v3.1h9.72v4.43H111.7V66h10.88v4.78H106.14Z"/><path class="cls-1" d="M125.92,50.49h7.84c7.21,0,11.41,4.17,11.41,10v.06c0,5.84-4.26,10.19-11.52,10.19h-7.73Zm5.61,4.95V65.78h2.29c3.39,0,5.62-1.85,5.62-5.13v-.06c0-3.24-2.23-5.15-5.62-5.15Z"/><path class="cls-2" d="M2.09,87.83,3,86.7a4.13,4.13,0,0,0,2.83,1.17c1,0,1.59-.46,1.59-1.13v0c0-.64-.36-1-2-1.38-1.91-.46-3-1-3-2.67v0c0-1.53,1.28-2.6,3.06-2.6a5,5,0,0,1,3.25,1.13l-.85,1.19a4.06,4.06,0,0,0-2.43-.92c-.92,0-1.46.47-1.46,1.06v0c0,.69.41,1,2.14,1.41C8.06,84.4,9,85.07,9,86.56v0c0,1.67-1.32,2.67-3.2,2.67A5.51,5.51,0,0,1,2.09,87.83Z"/><path class="cls-2" d="M18.43,84.68v0A4.59,4.59,0,0,1,23.13,80a4.55,4.55,0,0,1,4.68,4.61v0a4.59,4.59,0,0,1-4.7,4.64A4.55,4.55,0,0,1,18.43,84.68Zm7.73,0v0a3.08,3.08,0,0,0-3.05-3.19,3,3,0,0,0-3,3.17v0a3.07,3.07,0,0,0,3.05,3.18A3,3,0,0,0,26.16,84.68Z"/><path class="cls-2" d="M37.66,80.17h1.57V87.7H44v1.44H37.66Z"/><path class="cls-2" d="M53.13,85.33V80.17h1.58v5.1c0,1.66.86,2.55,2.27,2.55s2.25-.84,2.25-2.49V80.17H60.8v5.08c0,2.68-1.51,4-3.85,4S53.13,87.93,53.13,85.33Z"/><path class="cls-2" d="M73.11,81.63H70.27V80.17h7.28v1.46H74.7v7.51H73.11Z"/><path class="cls-2" d="M87.24,80.17h1.58v9H87.24Z"/><path class="cls-2" d="M98.76,84.68v0a4.69,4.69,0,0,1,9.37,0v0a4.69,4.69,0,0,1-9.37,0Zm7.72,0v0a3.08,3.08,0,0,0-3-3.19,3,3,0,0,0-3,3.17v0a3.07,3.07,0,0,0,3,3.18A3,3,0,0,0,106.48,84.68Z"/><path class="cls-2" d="M118,80.17h1.46l4.81,6.2v-6.2h1.55v9h-1.32l-5-6.38v6.38H118Z"/><path class="cls-2" d="M135.44,87.83l.95-1.13a4.13,4.13,0,0,0,2.83,1.17c1,0,1.59-.46,1.59-1.13v0c0-.64-.36-1-2-1.38-1.91-.46-3-1-3-2.67v0c0-1.53,1.28-2.6,3.06-2.6a5,5,0,0,1,3.26,1.13l-.85,1.19a4.08,4.08,0,0,0-2.43-.92c-.93,0-1.46.47-1.46,1.06v0c0,.69.41,1,2.14,1.41,1.89.46,2.87,1.13,2.87,2.62v0c0,1.67-1.32,2.67-3.21,2.67A5.53,5.53,0,0,1,135.44,87.83Z"/></g></g></svg>