<svg xmlns="http://www.w3.org/2000/svg" viewBox="0 0 146.86 89.29"><defs><style>.cls-1{fill:#e6001f}.cls-2{fill:#fff}</style></defs><g id="Layer_2" data-name="Layer 2"><g id="Grafica"><path class="cls-1" d="M73.43 31.78a440.82 440.82 0 0173.43 6.13A146.12 146.12 0 000 37.91a441 441 0 0173.43-6.13zM84.88 50.49h9.59c3.1 0 5.24.81 6.6 2.17a6.32 6.32 0 011.79 4.72v.06a6.42 6.42 0 01-4.16 6.25l4.83 7.07h-6.46L93 64.62h-2.5v6.14h-5.62zm9.35 9.73c1.89 0 3-.93 3-2.41v-.05c0-1.63-1.19-2.44-3-2.44H90.5v4.9zM106.14 50.49h16.3v4.75H111.7v3.1h9.72v4.43h-9.72V66h10.88v4.78h-16.44zM125.92 50.49h7.84c7.21 0 11.41 4.17 11.41 10v.06c0 5.84-4.26 10.19-11.52 10.19h-7.73zm5.61 4.95v10.34h2.29c3.39 0 5.62-1.85 5.62-5.13v-.06c0-3.24-2.23-5.15-5.62-5.15z"/><path class="cls-2" d="M73.43 9.08a442 442 0 0160.93 4.21 146.32 146.32 0 00-121.86 0 442.09 442.09 0 0160.93-4.21zM.41 67.75L3.54 64a10.52 10.52 0 006.57 2.43c1.54 0 2.35-.52 2.35-1.39 0-.87-.67-1.31-3.45-2-4.31-1-7.64-2.2-7.64-6.35 0-3.77 3-6.49 7.85-6.49a12.77 12.77 0 018.33 2.69l-2.8 4a10 10 0 00-5.68-2c-1.36 0-2 .55-2 1.31 0 .93.7 1.34 3.54 2 4.63 1 7.53 2.51 7.53 6.31 0 4.14-3.28 6.6-8.2 6.6a14.21 14.21 0 01-9.53-3.36zM21.26 50.49h16.3v4.75H26.82v3.1h9.73v4.43h-9.73V66h10.89v4.78H21.26zM40.23 60.68v-.06a10.4 10.4 0 0110.66-10.54 10 10 0 018.6 4.2l-4.23 3.27a5.5 5.5 0 00-4.43-2.37C48 55.18 46 57.61 46 60.57c0 3 2 5.42 4.84 5.42a5.54 5.54 0 004.57-2.46l4.23 3a10.22 10.22 0 01-9 4.57 10.29 10.29 0 01-10.41-10.42zM62.27 61.87V50.49h5.67v11.26c0 2.93 1.48 4.32 3.74 4.32s3.76-1.33 3.76-4.17V50.49h5.68v11.23c0 6.52-3.74 9.41-9.5 9.41s-9.35-2.92-9.35-9.26zM2.09 87.83L3 86.7a4.13 4.13 0 002.83 1.17c1 0 1.59-.46 1.59-1.13 0-.64-.36-1-2-1.38-1.91-.46-3-1-3-2.67 0-1.54 1.28-2.6 3.06-2.6a5 5 0 013.25 1.13l-.85 1.19a4.06 4.06 0 00-2.43-.92c-.92 0-1.46.47-1.46 1.06 0 .69.41 1 2.14 1.41C8.06 84.4 9 85.07 9 86.56c0 1.67-1.32 2.67-3.2 2.67a5.51 5.51 0 01-3.71-1.4zM18.43 84.68a4.59 4.59 0 014.7-4.68 4.55 4.55 0 014.68 4.61 4.59 4.59 0 01-4.7 4.64 4.55 4.55 0 01-4.68-4.57zm7.73 0a3.08 3.08 0 00-3.05-3.19 3 3 0 00-3 3.17 3.07 3.07 0 003.05 3.18 3 3 0 003-3.16zM37.66 80.17h1.57v7.53H44v1.44h-6.34zM53.13 85.33v-5.16h1.58v5.1c0 1.66.86 2.55 2.27 2.55s2.25-.84 2.25-2.49v-5.16h1.57v5.08c0 2.68-1.51 4-3.85 4s-3.82-1.32-3.82-3.92zM73.11 81.63h-2.84v-1.46h7.28v1.46H74.7v7.51h-1.59zM87.24 80.17h1.58v9h-1.58zM98.76 84.68a4.69 4.69 0 019.37 0 4.69 4.69 0 01-9.37 0zm7.72 0a3.08 3.08 0 00-3-3.19 3 3 0 00-3 3.17 3.07 3.07 0 003 3.18 3 3 0 003-3.16zM118 80.17h1.46l4.81 6.2v-6.2h1.55v9h-1.32l-5-6.38v6.38H118zM135.44 87.83l.95-1.13a4.13 4.13 0 002.83 1.17c1 0 1.59-.46 1.59-1.13 0-.64-.36-1-2-1.38-1.91-.46-3-1-3-2.67 0-1.54 1.28-2.6 3.06-2.6a5 5 0 013.26 1.13l-.85 1.19a4.08 4.08 0 00-2.43-.92c-.93 0-1.46.47-1.46 1.06 0 .69.41 1 2.14 1.41 1.89.46 2.87 1.13 2.87 2.62 0 1.67-1.32 2.67-3.21 2.67a5.53 5.53 0 01-3.75-1.42z"/></g></g></svg>