<svg xmlns="http://www.w3.org/2000/svg" viewBox="0 0 55.6 55.6">
  <g data-name="Layer 2">
    <g data-name="Layer 1">
      <g data-name="Livello 2">
        <g data-name="DIDATTICA Offerta formativa">
          <path d="M26.52 0h3.24l.85.09a4 4 0 011 .09l.49.06.71.13H33l.84.17.37.08 1.02.38a1.32 1.32 0 01.43.12 3 3 0 00.39.13 7.41 7.41 0 01.8.25c.3.09.59.21.89.33s.56.21.83.33l.69.31c.25.11.51.21.75.34l1.18.61.42.23.92.56.83.54.78.55c.2.14.42.28.61.44.47.38.94.77 1.39 1.17s.63.56.92.85.79.78 1.17 1.19.64.7.94 1.06a11.47 11.47 0 01.76 1l.72 1 .53.78.35.56.27.47c.18.31.36.61.52.93l.54 1.07c.18.36.21.44.31.66s.21.49.32.74l.21.53c.09.22.16.44.24.65l.25.72.18.54c.05.16.11.32.15.47.12.45.23.89.35 1.33a1.53 1.53 0 00.08.37c0 .12.07.37.11.55s.07.32.09.47.05.4.08.6.1.51.13.76c.06.52.1 1 .15 1.54V30a7.87 7.87 0 01-.1 1c0 .31-.07.5-.11.75l-.15 1.12a2.08 2.08 0 01-.11.48l-.06.27a2.81 2.81 0 01-.09.49c0 .16-.14.49-.2.73l-.21.75c-.11.4-.23.79-.36 1.18s-.28.75-.42 1.12-.31.77-.48 1.15-.46 1-.71 1.47-.37.69-.57 1-.25.42-.38.63c-.25.41-.51.81-.77 1.22l-.19.27-.54.72c-.24.31-.47.62-.72.93s-.34.39-.52.59c-.34.37-.68.75-1 1.12l-.29.3-.47.48-.77.7-.47.41-.6.49-.72.57-.94.66c-.36.24-.72.49-1.09.72s-.87.51-1.31.76-.66.35-1 .51L39 53.2l-.6.25-.42.17c-.18.07-.36.15-.54.21l-.79.27-.44.16-.84.23c-.31.08-.61.17-.92.24l-.86.2-.73.16-.6.1a8.27 8.27 0 01-1 .12h-.12a8.78 8.78 0 01-1.15.11h-4.14l-1.05-.08-.8-.05-.72-.12-.56-.1-.57-.07-.8-.16-.73-.2-.52-.14-.55-.18-.79-.32c-.41-.14-.81-.3-1.21-.45s-.63-.25-.93-.39l-.91-.44-1-.49c-.4-.21-.79-.43-1.19-.66l-.85-.57-1-.7-.45-.3c-.34-.26-.67-.51-1-.78s-.37-.31-.55-.47-.58-.51-.87-.78-.47-.46-.7-.7a12.09 12.09 0 01-.92-1 13.59 13.59 0 01-1-1.14c-.2-.28-.43-.53-.63-.8s-.57-.78-.84-1.18S4.24 42.43 4 42s-.35-.57-.51-.86-.36-.71-.53-1.06l-.33-.68-.3-.68c-.11-.27-.23-.54-.34-.82s-.15-.48-.26-.71-.21-.64-.33-.95c-.06-.15-.1-.31-.15-.47s-.08-.3-.13-.45A2.38 2.38 0 001 35l-.12-.43-.09-.35a2.66 2.66 0 00-.11-.47l-.06-.45a3.85 3.85 0 00-.13-.66c0-.22-.06-.37-.08-.55s-.09-.6-.13-.9v-.13c-.05-.38-.09-.77-.12-1.15s-.06-.45-.09-.68v-3l.09-.52v-.44c0-.15.09-.49.11-.73a9.33 9.33 0 01.14-1.17c.09-.39.1-.78.22-1.16a8.55 8.55 0 00.21-1c.07-.34.13-.54.2-.8s.14-.51.22-.76l.42-1.27c.09-.27.19-.54.3-.8l.36-.84c.12-.28.2-.49.32-.74.2-.43.41-.85.63-1.28s.35-.62.53-.93.4-.68.61-1l1-1.49c.43-.58.9-1.14 1.39-1.68.32-.36.64-.72 1-1.07S8.58 7.78 9 7.41s.62-.58.94-.86.51-.41.77-.61.35-.3.53-.43L12 5c.24-.17.48-.36.74-.52s.76-.47 1.15-.69l.83-.47.8-.41c.39-.19.77-.38 1.16-.55s.56-.23.84-.34l.79-.32.69-.25c.31-.1.61-.22.92-.31l.91-.25.32-.08.73-.17a3.55 3.55 0 00.47-.09A3.55 3.55 0 0123 .43h.13a5.27 5.27 0 00.52-.1l.76-.08h.16l.87-.15h.47zM50 27.8a9.53 9.53 0 000-1.51 4.39 4.39 0 00-.08-1c-.08-.36 0-.37-.06-.55s-.08-.59-.13-.88-.11-.52-.16-.78-.12-.55-.2-.82-.13-.53-.22-.79-.1-.38-.16-.56-.17-.49-.27-.73-.2-.55-.31-.83-.2-.48-.31-.72-.34-.75-.53-1.12-.39-.72-.61-1.07-.48-.78-.73-1.16l-.54-.77c-.18-.23-.37-.44-.54-.68-.36-.48-.78-.91-1.18-1.35-.24-.25-.49-.5-.75-.74a8.4 8.4 0 00-.76-.7 18 18 0 00-1.54-1.23c-.34-.22-.67-.48-1-.7l-1.44-.86h-.06L37.8 8l-.6-.29-.92-.41-.34-.14-.7-.26-.52-.18-.79-.25-.57-.15-.5-.11-.45-.1L32 6l-.62-.11c-.29 0-.59-.09-.89-.12l-1-.09H27.7a11.16 11.16 0 00-1.41.06h-.62l-.92.13c-.35 0-.7.09-1.05.16l-1.2.26a2 2 0 00-.35.08l-.85.26c-.37.12-.75.23-1.12.36s-.53.22-.8.33l-.92.4-1.16.58c-.34.18-.67.38-1 .58s-.46.3-.69.45l-.78.51c-.19.13-.37.28-.55.42l-.55.44-.91.8c-.16.14-.32.28-.47.43l-.5.52-.61.65-.23.27c-.25.3-.5.59-.74.89s-.35.48-.53.73-.35.47-.51.72c-.25.41-.5.83-.73 1.25s-.47.84-.68 1.27-.43 1-.63 1.49c-.13.32-.25.66-.36 1s-.22.69-.33 1a1.86 1.86 0 01-.1.39c-.08.33-.17.66-.25 1l-.15.46A3.55 3.55 0 016 24c0 .15-.06.5-.08.75v.06c0 .21-.08.41-.09.62 0 .42-.07.83-.07 1.25v2.21a1.91 1.91 0 00.06.58 7.61 7.61 0 01.08 1 4.13 4.13 0 00.11.69 2.51 2.51 0 00.09.62c.08.39.17.79.27 1.18a2.74 2.74 0 00.19.72c.07.24.09.29.14.44s.15.51.24.77.27.66.38 1a12.88 12.88 0 00.52 1.24c.19.41.52 1 .79 1.5.12.22.25.44.39.65s.35.56.53.83.23.33.35.5l.49.66c.19.24.39.47.59.7s.42.5.64.73l.55.57.5.51c.29.26.57.51.87.76l.93.75c.13.11.28.2.41.3s.46.35.7.51.53.33.8.49l.43.25.57.32.59.3c.16.08.32.18.49.25l.83.35c.27.11.42.2.64.28s.69.22 1 .35a11.86 11.86 0 001.14.36l.34.08.4.11.79.15.68.12h.15a11.25 11.25 0 011.12.17c.38 0 .89.06 1.34.08a13.35 13.35 0 002 0 14.72 14.72 0 001.49-.12l1.28-.16.5-.11.32-.07.52-.12.4-.1.42-.1.31-.1a1.33 1.33 0 00.42-.12l.91-.31c.16 0 .31-.12.46-.18l.5-.22c.27-.11.54-.21.8-.33s.42-.22.63-.32.51-.26.75-.4l.94-.54c.12-.07.24-.14.35-.22l.74-.52c.33-.24.67-.49 1-.75s.62-.51.92-.78.4-.34.59-.52.45-.45.67-.68.37-.39.54-.59c.32-.37.63-.74.94-1.12s.39-.51.58-.78l.49-.72.35-.55c.09-.16.18-.32.28-.48l.28-.47c.21-.4.42-.8.61-1.21s.24-.54.35-.81l.28-.66c.12-.34.23-.68.35-1 0-.12.1-.23.13-.34.09-.33.18-.66.26-1a2.34 2.34 0 00.09-.38l.09-.37c.07-.33.14-.65.2-1a1.1 1.1 0 01.08-.5 5.31 5.31 0 00.13-.89v-.35c0-.29.07-.59.08-.89s.08-.68.08-1.08zm5-.37v-.7a10.21 10.21 0 00-.09-1.66V25a5.29 5.29 0 00-.11-.77c0-.26-.07-.54-.12-.8-.07-.42-.16-.84-.23-1.26s-.13-.59-.2-.88a.53.53 0 00-.33-.38 1.93 1.93 0 00-.62-.23 3.28 3.28 0 00-.7-.1h-.24a3 3 0 00-.84.18 3 3 0 00-.86.44 2.29 2.29 0 00-.66.8.31.31 0 000 .19.39.39 0 00.09.3 1.93 1.93 0 01.11.53v.12c.06.24.12.49.17.74s.08.55.12.82a16.7 16.7 0 01.18 2v1.43a10.75 10.75 0 01-.11 1.79v.61c-.06.46-.14.92-.21 1.38a2 2 0 01-.08.41c0 .14-.07.38-.11.56s-.11.41-.16.61c-.1.39-.21.78-.31 1.17a1.73 1.73 0 01-.18.51c-.06.17-.16.49-.25.73s-.23.53-.34.8-.19.45-.29.67-.23.48-.35.72l-.3.6c-.12.22-.25.44-.38.65l-.4.64c-.13.21-.32.52-.49.77s-.47.65-.71 1a9 9 0 01-.77.94c-.27.3-.47.53-.72.79s-.6.62-.92.93-.51.46-.77.69-.59.51-.89.75-.6.44-.9.66l-.76.49-.33.21-1 .56a9.32 9.32 0 01-1 .51l-.67.32-.86.37L36 49c-.21.08-.43.17-.65.24l-.45.14c-.27.08-.53.18-.8.25a.42.42 0 00-.29.24.29.29 0 01-.08.24 2 2 0 00-.16.77 3.67 3.67 0 00.2 1.27 3 3 0 00.49.94 2.22 2.22 0 00.81.68.57.57 0 00.26 0 2.09 2.09 0 00.43-.11l.9-.3 1.11-.36.71-.3 1.1-.49.75-.36.65-.35.44-.26c.41-.24.83-.48 1.23-.73s.51-.36.77-.54l1-.7c.59-.46 1.18-.94 1.73-1.45l.75-.69.77-.81.8-.91.23-.27c.1-.12.22-.24.32-.37l.51-.68c.17-.23.37-.46.54-.71s.52-.78.77-1.18l.49-.79.21-.36.51-1c.13-.25.26-.49.38-.74s.33-.75.49-1.13.25-.61.36-.92.18-.47.26-.71.19-.53.27-.8.16-.54.23-.81l.18-.65a3.06 3.06 0 01.14-.58 5.05 5.05 0 00.12-.56 3.66 3.66 0 01.1-.56.7.7 0 000-.26c.05-.3.11-.6.15-.9s.1-.76.14-1.14.06-.88.08-1.32.05-.92.05-1.54zm-54.34.35v.79c0 .63.06 1.25.09 1.88v.08c0 .23.09.47.11.7a8.3 8.3 0 00.14 1c.08.39.11.8.22 1.18.06.2.09.41.13.6s.1.32.14.48.15.63.24.94.12.43.2.65.21.61.33.91.27.72.41 1.08.29.65.43 1a8.55 8.55 0 00.36.78c.13.26.31.59.48.88.3.53.61 1.05.93 1.57A14.84 14.84 0 006 43.88c.41.5.58.75.88 1.12s.49.59.74.88l.56.6.62.63.22.22c.18.17.36.36.55.52l1.13 1a12.64 12.64 0 001.19.92c.41.29.72.5 1.09.74s.52.37.79.53c.46.27.92.52 1.39.78a9.67 9.67 0 001.12.55c.52.22 1 .46 1.56.69.21.09.42.16.64.24l1 .37c.26.08.54.14.8.23a.45.45 0 00.47-.06 2.88 2.88 0 00.93-1 4.38 4.38 0 00.37-.9 3.84 3.84 0 00.09-1.07 3.31 3.31 0 00-.08-.55 1.88 1.88 0 00-.16-.39.27.27 0 00-.11-.1l-.4-.13-.87-.26-.43-.16c-.3-.11-.6-.2-.89-.32s-.76-.34-1.13-.51-.7-.45-1.07-.61a7 7 0 01-.94-.54c-.31-.19-.58-.35-.86-.54l-.81-.56-.61-.46-.47-.39c-.28-.23-.56-.46-.82-.7s-.45-.43-.67-.66-.63-.62-.93-.94-.48-.55-.7-.83-.42-.51-.61-.77-.29-.44-.45-.64a13.33 13.33 0 01-.93-1.42 6.18 6.18 0 01-.45-.79c-.17-.33-.33-.66-.49-1s-.3-.6-.43-.91-.32-.79-.46-1.2-.2-.58-.29-.88l-.27-.88a1.86 1.86 0 00-.1-.39c0-.13-.11-.41-.16-.61s-.08-.45-.13-.67l-.09-.46-.09-.66a6.29 6.29 0 00-.11-.72c0-.25-.06-.74-.07-1.11v-1.89a13.07 13.07 0 01.08-1.53 1.75 1.75 0 01.06-.56l.15-1.24v-.06a2.34 2.34 0 01.14-.58c0-.19.08-.37.13-.55s.09-.31.12-.46a.36.36 0 000-.25 2.07 2.07 0 00-.82-.89 4.06 4.06 0 00-1-.44c-.2 0-.39-.08-.59-.1a2.67 2.67 0 00-1.49.29c-.19.1-.38.19-.38.45a11.86 11.86 0 00-.27 1.18 4.34 4.34 0 00-.09.52c-.06.31-.13.62-.17.94s-.1.81-.14 1.22c0 .25-.06.5-.07.74zM27.91.6H26.2c-.4 0-.88.08-1.31.12l-.83.09-.48.07-1 .18-.23.06-.46.09a1.44 1.44 0 00-.4.09l-.43.11-.34.08-.89.27-1 .32a1.22 1.22 0 00-.4.15l-.82.31-.77.33c-.22.1-.45.18-.68.29l-.82.41-1.14.63c-.13.07-.26.14-.38.22l-.89.58-1 .66c-.34.23-.64.48-1 .73a10 10 0 00-1.15 1c-.38.37-.61.58-.93.86a.28.28 0 00-.11.28 7.63 7.63 0 00.26.81 3.3 3.3 0 00.5.9 3.86 3.86 0 00.68.66 3 3 0 001 .51l.36.06a.51.51 0 00.5-.12c.37-.34.72-.7 1.12-1s.76-.64 1.16-.94a19.06 19.06 0 011.85-1.22c.37-.22.75-.41 1.12-.61l.36-.21 1-.46.89-.37.72-.26.4-.15.84-.25.61-.17a2.19 2.19 0 00.49-.12l.4-.09.49-.1.5-.1.44-.06 1.17-.14c.34 0 .68-.06 1-.07h1.64l1.34.06.88.08.77.09.46.07.84.18.75.15.32.09.6.18c.27.08.54.14.81.23l.87.33c.27.1.53.19.79.3l.88.4 1.11.56a6.65 6.65 0 01.58.33c.4.24.8.47 1.19.73s.83.59 1.24.89.9.68 1.33 1.05l.66.62a.42.42 0 00.16.09 1.61 1.61 0 00.81-.1 2.09 2.09 0 00.68-.35 7.68 7.68 0 00.63-.5 3.45 3.45 0 00.82-1.24 4.44 4.44 0 00.15-.52.37.37 0 00-.17-.45c-.32-.3-.62-.6-.94-.88s-.89-.74-1.34-1.09l-1-.76-1-.65-1-.58c-.3-.17-.61-.35-.92-.51l-1.28-.64A2.48 2.48 0 0039 3l-.72-.31-.81-.33-.86-.28-.8-.27-1-.32h-.24a4.34 4.34 0 00-.81-.19 2.21 2.21 0 01-.37-.08l-.63-.12h-.13l-.74-.18L31 .81c-.27 0-.53-.08-.81-.1zm-5.2 49.3a3 3 0 01.15 2.35 3.17 3.17 0 01-1.37 1.84c0 .09.08.09.13.1l1 .2c.42.08.85.14 1.27.21l.39.07 1 .11c0-.08-.05-.12-.07-.17a4.15 4.15 0 01-.32-.53 4.25 4.25 0 01-.2-.72 3.76 3.76 0 010-1.16 7.17 7.17 0 01.18-.9.62.62 0 01.07-.19 2.7 2.7 0 01.35-.59.21.21 0 000-.11L24 50.18zm11.51 4.21a3.11 3.11 0 01-1.41-1.86 3.34 3.34 0 01.12-2.33h-.07l-.65.15-.51.11-.52.08-.75.14h-.1a.14.14 0 000 .09 2.6 2.6 0 01.51 1.12.83.83 0 00.08.43 1.57 1.57 0 010 .48 5.93 5.93 0 01-.06.84 3.69 3.69 0 01-.18.65 2.73 2.73 0 01-.37.64.21.21 0 000 .11h.19l1.2-.15.53-.08.56-.11 1-.16.3-.07a.26.26 0 01.13-.08zM50 12.07l-.13-.18-.47-.61-.72-.9-.59-.7c-.16-.18-.32-.37-.48-.54L47.52 9a3 3 0 01-.91 2.17 3.07 3.07 0 01-2.11 1.05c.15.2.32.34.46.5l.43.49c.14.16.31.34.45.51a4.24 4.24 0 00.43.52c0-.06.06-.09.08-.14a2.77 2.77 0 01.65-.91 5 5 0 01.86-.66 3.76 3.76 0 01.79-.36 2.82 2.82 0 011.19-.17zm3.86 8c-.18-.62-.38-1.23-.62-1.83s-.47-1.19-.71-1.78A3.24 3.24 0 0151 18.07a3.54 3.54 0 01-2.2.5c-.06.07 0 .14 0 .21l.21.55c.1.26.21.51.29.77s.17.54.25.82l.07.2a3.08 3.08 0 011.94-1.3 3.33 3.33 0 012.34.24zM1.81 20H2a2.15 2.15 0 01.82-.27 1.37 1.37 0 01.57 0h.33a3.48 3.48 0 011 .24 4.18 4.18 0 01.56.28 2.26 2.26 0 01.84.84A22.57 22.57 0 017 18.54h-.13a3.21 3.21 0 01-1.23-.13 6 6 0 01-1-.44 3.45 3.45 0 01-.5-.35c-.11-.09-.21-.21-.31-.31a2 2 0 01-.55-.83c0-.05 0-.07-.1-.05A37.94 37.94 0 001.81 20zm7.66-5.78c.31-.34.56-.69.84-1s.59-.65.89-1a.38.38 0 00-.25-.09 2.73 2.73 0 01-.48-.1 3.05 3.05 0 01-.74-.38l-.19-.15a3.24 3.24 0 01-1-1.26 2.32 2.32 0 01-.26-1A2.25 2.25 0 008.2 9c-.89 1-1.7 2-2.5 3H6a3.06 3.06 0 011 .08 1.6 1.6 0 01.31.1l.52.24a3.79 3.79 0 01.6.38l.21.15a6.1 6.1 0 01.54.59 1.25 1.25 0 01.3.54.18.18 0 000 .16zm-4.08 3.36a.57.57 0 00.13.08l.7.14a2.33 2.33 0 00.83-.08.76.76 0 00.5-.32 3.9 3.9 0 01.31-.4v-.08a.19.19 0 00-.15 0 .83.83 0 01-.51.08 1 1 0 01-.62-.33l-.09-.06a1.11 1.11 0 01-1.1.97zm3.11-1.65a.36.36 0 00.07-.1c.07-.16.14-.33.2-.49a.79.79 0 00.06-.22 2.56 2.56 0 00-.1-.54 2.52 2.52 0 00-.39-.72 2.62 2.62 0 00-.49-.45 1.56 1.56 0 01.12.74 1.3 1.3 0 01-.34.68c.72.37.77.54.87 1.1zm18.68 34.52H27a3.62 3.62 0 01-.46.06.68.68 0 00-.38.16c-.05 0-.08.09-.13.13a2.13 2.13 0 00-.58.92 3.28 3.28 0 00-.15.51v.1a1.24 1.24 0 01.57-.54 1.44 1.44 0 01.77-.06v-.44a.79.79 0 01.16-.51zm3.06 1.78a.24.24 0 000-.12c-.06-.2-.11-.4-.19-.6a2.26 2.26 0 00-.61-.82.52.52 0 00-.41-.18H28.44l.15.14a.78.78 0 01.3.58 2.29 2.29 0 010 .37v.17a1.22 1.22 0 011.35.46zM47.8 13.49a1.56 1.56 0 00-.2.16 3.17 3.17 0 00-.58.86 3.41 3.41 0 00-.14.55.15.15 0 000 .13l.31.75a2.17 2.17 0 01.3-.68 1.25 1.25 0 01.67-.35 1.19 1.19 0 01-.36-1.42zm0 3.51c.13.18.27.35.39.52a.45.45 0 00.21.15 3.74 3.74 0 00.66.16 3.06 3.06 0 001-.13l.21-.07-.35-.1a1 1 0 01-.74-.71c0-.06 0-.11-.1-.11a1.15 1.15 0 01-1.28.29zm1.05-4.11a1.24 1.24 0 011.06 1 1.08 1.08 0 011.09-.43v-.08c-.16-.19-.27-.43-.54-.51a3.4 3.4 0 00-.77-.16 2 2 0 00-.84.18zM30.22 53.4a1.15 1.15 0 01-1.36.44v.62a1 1 0 01-.25.56 1.23 1.23 0 00.75-.18 1.07 1.07 0 00.16-.14 2.2 2.2 0 00.7-1.3zM4.73 15.63a1.23 1.23 0 01-.88-.72h-.06a1 1 0 00-.18.51 1.9 1.9 0 00.09.58 2.66 2.66 0 00.65 1l.14.09a1.33 1.33 0 01-.14-.76 1.28 1.28 0 01.38-.7zm-.07-2.26a1.58 1.58 0 01.57.05 2.41 2.41 0 01.5.33 2.31 2.31 0 01.18-.35 1.68 1.68 0 01.24-.29A1.1 1.1 0 016.5 13a1.55 1.55 0 01.36-.08 1 1 0 00-.45-.17 2.41 2.41 0 00-1 .07A1 1 0 005 13c-.12.12-.23.24-.34.37zM51 15.64l.12.16a1.08 1.08 0 01.12 1.2v.08a.44.44 0 00.15-.12A1.93 1.93 0 0052 16a1.36 1.36 0 00.08-.49 2.87 2.87 0 00-.22-.55 1.23 1.23 0 01-.86.68zM25.41 53.41a.29.29 0 000 .13 2.37 2.37 0 00.29.72 2.29 2.29 0 00.48.55 1.11 1.11 0 00.75.2.87.87 0 01-.24-.53 1.15 1.15 0 01.07-.61 1.17 1.17 0 01-1.35-.46zm22.89-36.9a.51.51 0 00.52-.5V16a.58.58 0 00-.53-.53.59.59 0 00-.52.55.55.55 0 00.53.49zm-41.44-2a.59.59 0 00.56-.51.56.56 0 00-.54-.53.54.54 0 00-.54.54.58.58 0 00.52.52zM29.77 52.8a.56.56 0 00-.52-.53.51.51 0 00-.37.15.54.54 0 00.37.92.57.57 0 00.52-.54zm21-38.8a.51.51 0 00-.52.5.53.53 0 10.55-.51zm-23 37.89a.51.51 0 00.53-.49.54.54 0 00-.52-.55.53.53 0 00-.54.52.5.5 0 00.47.53h.09zm.52 2.36a.49.49 0 00-.46-.52h-.06a.49.49 0 00-.52.46v.07a.51.51 0 00.5.52.53.53 0 00.54-.51zm-1.42-1.46a.52.52 0 00-.17-.38.48.48 0 00-.36-.16.53.53 0 00-.53.53.57.57 0 00.54.54.6.6 0 00.55-.51zm23.87-36.26a.5.5 0 00-.46-.54.57.57 0 00-.55.52.59.59 0 00.51.54.51.51 0 00.54-.48zm-46.37-2a.5.5 0 00.47.53.53.53 0 00.55-.5c0-.25-.27-.57-.49-.56a.55.55 0 00-.56.5zm3 2A.51.51 0 007.9 16a.53.53 0 00-.54-.52.52.52 0 000 1zm-2.45 0a.52.52 0 00.49.55.59.59 0 00.56-.6.53.53 0 00-.53-.48.48.48 0 00-.51.45v.08zM48.28 14a.5.5 0 00.51.56.53.53 0 00.15-1.05h-.15a.48.48 0 00-.51.45zM28.17 53.2v-.74h-.76a1.08 1.08 0 010 .75zm21.48-38.45a1.32 1.32 0 01-.54.33c-.06 0-.08.09 0 .11a1.08 1.08 0 01.27.46l.06.07.63-.34c-.06-.09-.13-.2-.2-.29s-.09-.25-.22-.34zm-44 .64l.23.07c.13 0 .21.14.32.2h.13a1 1 0 01.39-.61 1.37 1.37 0 01-.72-.33 3.78 3.78 0 00-.17.35c0 .13-.2.17-.21.32z"/>
          <path d="M27.06 24.48a2.62 2.62 0 001 .16.15.15 0 00.15-.13c.05-.22.12-.44.18-.67a2.64 2.64 0 00.08-.42c0-.14.06-.37.08-.56a5.23 5.23 0 01.07-.82 4.91 4.91 0 01.13-.75.61.61 0 01.54-.45.48.48 0 01.06.37 3 3 0 01-.06.73c-.06.24-.06.63-.1.95a.09.09 0 010 .07 3.88 3.88 0 01-.09 1q0 .39-.06.78v.1a.42.42 0 01.14.09.2.2 0 010 .28 1.3 1.3 0 01-.41.24c-.23.13-.47.23-.7.35a.15.15 0 01-.18 0 2.16 2.16 0 00-.92-.46 1.26 1.26 0 01-.37-.13l-.5-.17a.59.59 0 01-.41-.39 1.9 1.9 0 01-.13-.67 3.74 3.74 0 01.11-1 1.7 1.7 0 000-.45 7.48 7.48 0 00-.08-1.33c-.08-.45-.14-1.16-.22-1.74a6.15 6.15 0 00-.16-1v-.24a2.3 2.3 0 00-.32-1.05 1.64 1.64 0 01-.17-.53 3.84 3.84 0 010-.83 5.29 5.29 0 01.09-.8c.06-.24.14-.46.2-.7a4.87 4.87 0 01.3-.71 3.35 3.35 0 01.27-.45c.22-.37.46-.73.68-1.1a1.36 1.36 0 00.15-.47 5.23 5.23 0 01.41-1.23 5 5 0 01.29-.62.36.36 0 00.07-.17.44.44 0 01.29-.3 1.27 1.27 0 011.06.07 1 1 0 01.39.54c.12.38.22.76.35 1.13s.27.71.41 1.06a1.43 1.43 0 00.46.63 2.83 2.83 0 01.78 1 6 6 0 01.42 1.17c.07.25.1.5.16.75a4.81 4.81 0 01.13 1v.65a4.07 4.07 0 01-.11.67v.1a1.32 1.32 0 01-.05.44v.12L31.29 20a6.1 6.1 0 01-.14.94 1.65 1.65 0 01-.06.32 8.65 8.65 0 01-.17 1 5.07 5.07 0 00-.09.54.48.48 0 01-.07.3 3.83 3.83 0 00-.1.59 2.17 2.17 0 000 .51.86.86 0 00.15.43l.14.16.1.13-1.48.08a.54.54 0 010-.18c.08-.32.17-.64.26-1a5.07 5.07 0 00.14-.95 7.35 7.35 0 01.11-.82 2.4 2.4 0 01.08-.75c.08-.25 0-.19 0-.28v-.38c0-.31.06-.61.05-.91a6.73 6.73 0 00-.07-1 3.48 3.48 0 00-.24-1 .35.35 0 00-.08-.26v-.12c.07-.23.15-.46.22-.68a.86.86 0 000-.39l-.52-.2-.95-.32a2.15 2.15 0 00-.51-.15.43.43 0 00-.38.15l-.28.24-.51.53a3.51 3.51 0 01-.34.33.28.28 0 00-.12.25 1.45 1.45 0 00.12.42 1 1 0 010 .49l-.06.09a.89.89 0 00-.29.63 1.14 1.14 0 00.05.37 2 2 0 00.16.57c.06.19.12.34.16.52a8.64 8.64 0 01.26 1 3.15 3.15 0 00.09.42c0 .24.07.49.09.73A11.52 11.52 0 0127 24a.45.45 0 01.06.48zm-.89-8.15h.09l.81-.56.38-.3c.14-.12.29-.22.42-.34a.28.28 0 01.33-.13l.77.25 1.08.35c.11 0 .17 0 .22-.1a.84.84 0 00.05-.17 2.17 2.17 0 00-.09-.67.2.2 0 00-.09-.09 1.28 1.28 0 00-.27-.05h-.72l-.79-.11a.24.24 0 01-.24-.26 2.33 2.33 0 00-.08-.38 2.29 2.29 0 00-.37-.73.12.12 0 01-.1-.07.81.81 0 00-.29.56 1.23 1.23 0 00.08.6.5.5 0 01-.29.63h-.09l-.28.08-.61.23-.15.07a2.87 2.87 0 00.23 1.19zm1.58-5c.14 0 .15.16.15.28v.33c0 .1.08.12.15.09a1.58 1.58 0 00.39-.24.86.86 0 00.26-.8.7.7 0 00-.07-.37 2.17 2.17 0 00-.15-.35.24.24 0 00-.15-.09h-.95c0 .16-.07.31 0 .47h.15c.18 0 .23.08.23.25zM27.54 32.89l.53-.54.13.1c.11.1.22.2.32.31s.11.14 0 .25l-.24.25a.14.14 0 01-.08.11l.84.05a.26.26 0 00-.07-.11l-.13-.15a.12.12 0 010-.17 2.23 2.23 0 01.27-.26c.21-.13.19-.31.14-.49-.1-.37-.21-.74-.32-1.11 0-.13-.1-.26-.13-.39a.3.3 0 00-.26-.24 5.17 5.17 0 00-.55-.07 1.33 1.33 0 00-.48.1l-.59.16h-.06a11.09 11.09 0 011.28-2.34.28.28 0 01.09.1c.27.47.55.93.81 1.41.16.3.3.61.44.91s.29.58.43.88.22.52.32.78.12.31.19.46a.16.16 0 00.06.08l.31-.24v.15c0 .16-.05.32-.06.48a1.22 1.22 0 000 .6 4.44 4.44 0 01.21.71 3.12 3.12 0 00.08.52c0 .17.08.44.11.66v.34c.14 0 .21-.15.35 0a.21.21 0 010 .11c-.11.38-.22.76-.32 1.13a.89.89 0 000 .23 8 8 0 01-.09 1.47 4.86 4.86 0 01-.1.74 1.13 1.13 0 000 .26l.25-.08a.21.21 0 010 .11c-.07.2-.16.4-.22.6a3.13 3.13 0 00-.25 1 3.86 3.86 0 01-.1.49 3.89 3.89 0 01-.09.47.21.21 0 01-.19.21l-.81.18-.57.09-.7.06a3.75 3.75 0 01-.82 0 1.88 1.88 0 01-.7-.09A5.77 5.77 0 0026 43h-.19c-.11 0-.15 0-.16-.15a1 1 0 010-.25 2 2 0 01.68-.15c.42-.06.84-.11 1.26-.13a8.34 8.34 0 011 0c.33 0 .31 0 .39-.23a.42.42 0 000-.27h-.07a7.08 7.08 0 00-1.84 0h-.4l-.24.06h-.13l-.77.1a.85.85 0 01-.09-.22c-.05-.19-.09-.39-.14-.58s-.06-.12-.08-.18c-.08-.23-.15-.46-.23-.68a.72.72 0 01-.06-.29 4.68 4.68 0 011 .5 7.41 7.41 0 01-.54.58c.19 0 .35-.06.52-.07a4.61 4.61 0 00.53-.15l-.39-.4a.3.3 0 01-.08-.08.11.11 0 010-.14c.17-.18.34-.34.53-.51h.13l.59.57-.46.48a.24.24 0 00.23 0 1.37 1.37 0 01.57-.06h.16l-.08-.12-.37-.38c-.07-.08-.08-.11 0-.18l.49-.49a.11.11 0 01.15 0l.48.48c.15.16.06.11 0 .18s-.24.27-.37.4l-.07.11.85.07c-.1-.18-.29-.25-.38-.44a6.15 6.15 0 01.61-.64c.18 0 .23.26.41.31a2 2 0 01.08-.37l.21-1.35c0-.09 0-.11-.1-.13l-.35-.2a10.29 10.29 0 00-1.36 0 3 3 0 00-.74.06H27a4.8 4.8 0 00-1 .12c-.27.06-.55.08-.82.12a.24.24 0 01-.09-.22 2.18 2.18 0 00-.08-.71 2.75 2.75 0 00-.11-.37l-.06-.2-.12-.52v-.11l1.14.64-.56.58h.15l.5-.1h.26c.1 0 .13-.07.06-.14l-.27-.4c-.25-.25-.21-.21 0-.43l.43-.43a.52.52 0 01.11-.1c.27.21.48.48.74.72-.14.25-.4.39-.57.64h.18a3 3 0 01.73-.06A.82.82 0 0028 37l-.49-.48h-.05c-.08-.09-.09-.13 0-.23l.22-.21.44-.43.32.3.33.33c.11.11.11.14 0 .24l-.53.51a.41.41 0 00.24.08h.91l-.1-.13-.3-.29c-.1-.1-.1-.13 0-.23l.54-.55c.08-.08.11-.08.19 0l.22.22c.07 0 0-.09 0-.14a9.27 9.27 0 00-.09-1c0-.36-.09-.47-.13-.71s-.07-.11-.14-.12h-.39a9.73 9.73 0 00-1.43-.1 6.42 6.42 0 00-.75.1l-.73.11-.61.12h-.19a.24.24 0 010-.12 1.92 1.92 0 01.14-.49.77.77 0 000-.37 5.39 5.39 0 00-.08-.56.21.21 0 01.05-.12c.16.14.31.27.45.41s0 .1 0 .15-.14.26-.22.38c.17.07.3 0 .44 0l.47-.08-.08-.11-.22-.21c-.09-.09-.08-.15 0-.24l.43-.41H27l.39.4c.07.07.07.11 0 .19l-.24.26a1.13 1.13 0 00.45 0h.49zM18.34 42.38a2.09 2.09 0 01-.2-.22c-.23-.41-.47-.83-.69-1.25a11.36 11.36 0 01-.57-1.35 2.28 2.28 0 01-.09-.51 4.82 4.82 0 010-.76 11.13 11.13 0 01.05-1.29c.07-.38.11-.76.17-1.13a4.63 4.63 0 01.16-.68c.06-.22.12-.5.19-.74s.16-.51.25-.76.19-.57.3-.84.32-.75.49-1.12l.09-.1.12.13.83 1.13a.49.49 0 00.12.13l.31-1.45c.05 0 .1 0 .12.08a5.55 5.55 0 00.46.56c.15.19.48.65.7 1s.55.76.78 1.16.38.61.56.91a5 5 0 01.33.66c.1.22.22.53.32.79a2.25 2.25 0 01.11.44 5.17 5.17 0 01.1.79 2.41 2.41 0 010 .38v1a5.54 5.54 0 01-.06 1c-.06.32-.09.67-.13 1 0 .12-.05.16-.18.16H21.4a6.47 6.47 0 00-.88.15l-.89.29-.49.14zm-.76-3.28a.33.33 0 000 .14 2.08 2.08 0 00.11.48c0 .16.14.48.23.72a6 6 0 00.46.91.12.12 0 00.12.07l.32-.09.36-.11.65-.19a1 1 0 01.25-.07 6.1 6.1 0 00.84-.13h.24v-.22a6.82 6.82 0 00-.13-.89v-.08a3.71 3.71 0 00-.11-.58c0-.19-.1-.62-.14-.92L20.61 37v-.06a5.16 5.16 0 00-.13-.77 2.92 2.92 0 00-.08-.63 5.72 5.72 0 01-.14-.83.9.9 0 00-.09-.32v.11c-.05.19-.09.38-.14.58l-.27.9c-.12.42-.23.85-.37 1.27a7.24 7.24 0 01-.41 1 1.51 1.51 0 01-1.23.86zm.32-1a1.2 1.2 0 00.21-.17 1.75 1.75 0 00.2-.35 9.19 9.19 0 00.45-1.24c.1-.41.21-.82.32-1.23s.13-.55.2-.83a.37.37 0 00-.08-.4 1.44 1.44 0 01-.18-.25l-.4-.53-.09.17v.15c-.1.35-.21.69-.32 1s-.16.53-.25.8-.11.4-.18.6a4.27 4.27 0 00-.15.64 3.07 3.07 0 00-.1 1c0 .29.06.54.37.63zm3.39-3.71h-.06a.67.67 0 010 .2 3.41 3.41 0 01.19.84v.06c.06.31.13.62.18.92a3.74 3.74 0 00.06.53l.09.81v.06c0 .25.08.49.1.74s0 .54.07.81a10.72 10.72 0 00.14 1.27v.15a1.4 1.4 0 00.54 0 7 7 0 01.06-1.12v-1.78a2 2 0 00-.14-.81c-.12-.26-.21-.53-.32-.79s-.21-.44-.32-.65-.26-.53-.4-.79-.09-.29-.19-.46zM36.61 33c.33-.46.65-.92 1-1.38a.69.69 0 01.11.13l.24.54c.13.3.26.6.38.91a6.5 6.5 0 01.22.62l.23.77c.05.18.09.36.13.53l.15.72c0 .27.13.54.17.82a9.77 9.77 0 01.09 1v1.49a2 2 0 01-.21.83c-.09.17-.15.37-.23.54-.19.38-.39.75-.59 1.13-.09.17-.2.34-.3.52s-.13.2-.38.17a2.23 2.23 0 01-.44-.13l-.47-.21-.9-.25-.51-.15-.64-.09a12.18 12.18 0 00-1.48 0c-.18 0-.2 0-.23-.19a2.43 2.43 0 00-.06-.49.94.94 0 010-.41v-.19l-.06-.89v-1.58a3.58 3.58 0 01.1-.8 2.06 2.06 0 01.15-.48c.17-.38.35-.75.53-1.13.07-.14.14-.27.22-.4.22-.35.44-.7.67-1s.52-.77.79-1.15.37-.49.56-.73l.31-.38.09-.05a.45.45 0 01.06.09 1.17 1.17 0 00.07.38 2.57 2.57 0 01.13.56v.25a.1.1 0 00.1.08zM35 40.78c.33.07.66.12 1 .16h.09c.23.07.45.15.68.2s.51.15.76.23h.14a3.35 3.35 0 00.27-.45c.11-.25.2-.5.3-.75a1.72 1.72 0 00.07-.21 3.74 3.74 0 00.12-.45.75.75 0 01.07-.39A1.42 1.42 0 0138 39a2.26 2.26 0 01-.49-.25 1.58 1.58 0 01-.46-.65c-.11-.2-.17-.43-.27-.64a6.82 6.82 0 01-.31-1c-.07-.2-.1-.4-.16-.59s-.18-.63-.27-.94l-.16-.6a.67.67 0 00-.1.34l-.09.69a6 6 0 01-.12.72c0 .24 0 .41-.08.62s-.11.65-.16 1a1.08 1.08 0 01-.07.46l-.12.82a3.47 3.47 0 01-.08.55A1.19 1.19 0 0135 40a3 3 0 00-.1.76c.1-.03.1-.01.1.02zm2.55-7.67l-.09.07c-.2.26-.39.53-.58.8a.19.19 0 000 .15c0 .11 0 .23.07.34a2.07 2.07 0 00.08.42c.09.35.19.69.27 1a8.19 8.19 0 00.28 1.11 3 3 0 00.25.58 2.11 2.11 0 00.26.4c.09.11.15.11.27 0l.08-.08a.8.8 0 00.18-.54 7 7 0 00-.07-.79 3.09 3.09 0 00-.12-.59v-.07a2 2 0 00-.17-.51c0-.17-.17-.6-.26-.9s-.21-.7-.31-1c-.06-.13-.11-.25-.16-.39zm-4.06 7.73l.47-.07a.42.42 0 00.07-.11c0-.37.09-.74.12-1.1s.06-.77.09-1.15v-.06a5.37 5.37 0 01.11-.7c0-.23.08-.74.13-1.11s.11-.8.19-1.19.15-.58.22-.87a.33.33 0 000-.14.71.71 0 00-.1.14c-.2.37-.4.74-.59 1.11s-.41.81-.58 1.22a3.3 3.3 0 00-.22.74 2.81 2.81 0 000 .71v1.43l.06 1.06a.16.16 0 000 .09zM36.34 21.66v-.32a.61.61 0 00-.42 0v1.28l-.59-.09a1.72 1.72 0 00-.64 0 2.68 2.68 0 00-.88.29h-.1l-.33-.3a1.22 1.22 0 01.32-.36c.19-.2.38-.38.58-.57l.52-.5.49-.49.51-.6.52-.52c.11-.11.14-.12.25 0l.7.67.12.11v-1.81l.65-.68a.21.21 0 01.05.2v2.93a.26.26 0 00.07.19l.35.35h.11v-4.11a.31.31 0 01.12-.27l.43-.43a.91.91 0 01.16-.11V22a.44.44 0 00.12.38.54.54 0 01.07.13l-.2.14a1.09 1.09 0 010 .26v5.34a.26.26 0 01-.07.22c-.21-.2-.42-.4-.61-.6a.35.35 0 010-.2v-4.14l-.1.07-.32.3a.36.36 0 00-.11.29v3.06c-.11-.09-.2-.16-.27-.23l-.34-.36a.24.24 0 01-.08-.21V24.8l-.89.87c-.12-.12-.24-.23-.35-.35l-.8-.77-.57-.55-.48-.49c-.09-.08-.09-.13 0-.19a.9.9 0 01.27-.11 1.76 1.76 0 01.45-.07 1.7 1.7 0 01.71.06l.46.18.57.17a4.7 4.7 0 00.51.12 1 1 0 00.35 0 5.09 5.09 0 00.92-.27l.14-.11.49-.48v-.07a.38.38 0 00-.29.07 3.66 3.66 0 01-.9.3 2.81 2.81 0 01-.58 0h-.32v-1.69a.81.81 0 00-.38 0 .4.4 0 00-.07.09v.22a1.16 1.16 0 01-.32-.07zM43 21.3v.35h-.36v-.22c0-.1 0-.12-.14-.13h-.34v1.28l-.29-.06a2.11 2.11 0 00-1 0c-.24.07-.47.19-.71.26v.1l.42.43a2 2 0 01.89-.21 2.57 2.57 0 011.06.24c.19.07.39.13.58.18a2.15 2.15 0 00.5.12 1.21 1.21 0 00.38 0 3.89 3.89 0 001-.32.1.1 0 010 .14l-.66.64-1 .95c-.15.15-.3.31-.46.46a.41.41 0 01-.11.07c-.29-.24-.53-.54-.86-.8v1.52a.38.38 0 01-.14.33c-.14.12-.26.26-.39.39l-.17.13v-2.9a.43.43 0 00-.2-.36c-.11-.1-.2-.21-.31-.33a.41.41 0 00-.07.11v3.91a.33.33 0 01-.12.28l-.41.42c-.05 0-.09.12-.18.05V23a.48.48 0 00-.17-.4c-.11-.11-.11-.16 0-.27a.41.41 0 00.17-.38v-5.14s0-.08.05-.1a.17.17 0 01.1 0c.16.15.3.31.46.46a.28.28 0 01.09.23v4c.14-.13.28-.27.41-.41a.25.25 0 000-.17v-2.9a.12.12 0 01.16 0c.16.16.32.32.49.47a.24.24 0 01.06.2v1.56l.13-.07.62-.61c.12-.12.15-.12.28 0s.34.36.52.53l.53.52.57.57.47.47.57.56.23.22v.13a1.52 1.52 0 01-.41.24 4.28 4.28 0 01-.91.32 1.93 1.93 0 01-.48 0h-.35a.67.67 0 010-.2V21.4a.11.11 0 00-.1-.12zM15.81 17.79h1v4.08h4s.08.06.08.09v1h-4v3.76c0 .26 0 .26-.27.26H16c-.21 0-.17 0-.17-.16V23h-4a3.91 3.91 0 010-1.08h3.88c.11 0 .13 0 .15-.14v-3.7a.69.69 0 01-.05-.29zM44.39 34.72a.73.73 0 001 .17 1.41 1.41 0 00.39-.34.74.74 0 00.15-.45 1.4 1.4 0 00-.2-.87.79.79 0 00-.36-.34l-.17-.09a.68.68 0 00-.31-.11.89.89 0 01-.23 0h-.2a2.4 2.4 0 00-.53.12 1.42 1.42 0 00-.63.48 2.11 2.11 0 00-.37.75 2.35 2.35 0 000 .37 2.24 2.24 0 00.29 1.34 2.48 2.48 0 00.5.62c.07.05.16.08.16.2a2.15 2.15 0 01-.5-.12l-.54-.18c-.11 0-.18 0-.25.09l-.59.54-1.6 1.51-.49.47h-.08v-.1a5.13 5.13 0 01.09-.67v-.27a.3.3 0 01.08-.2c.61-.61 1.21-1.23 1.81-1.84a.58.58 0 00.19-.35 5.57 5.57 0 000-1 2.91 2.91 0 01.22-1.2 2 2 0 01.23-.47 2.84 2.84 0 01.5-.59 2.33 2.33 0 012.11-.52 2.35 2.35 0 01.91.41 2.13 2.13 0 01.68.89 1.8 1.8 0 01.1.4 1.77 1.77 0 010 .46 4.14 4.14 0 01-.09.6 1.44 1.44 0 01-.19.5 1.77 1.77 0 01-.67.66 1.69 1.69 0 01-1.47.11 1.18 1.18 0 01-.67-.71 1.44 1.44 0 010-.87.79.79 0 01.3-.51.72.72 0 01.65-.11.51.51 0 01.32.35 1 1 0 010 .25.49.49 0 01-.39.48c-.01.07-.07.11-.15.14zM10.15 33.79l-.24.21-.63.68c-.14.15-.22.17-.37 0a3.34 3.34 0 01-.32-.33c-.06-.06-.05-.1 0-.16l.24-.19.61-.66c.1-.1.1-.11 0-.2l-.75-.7-.1-.1c-.13-.15-.13-.16 0-.31a1.69 1.69 0 01.41-.39c.38.3.7.66 1.1 1l.36-.36c.16-.16.3-.32.45-.48a.13.13 0 01.18 0l.38.35c.08.09.08.15 0 .25l-.26.3-.48.51v.06l.86.79.1-.07.85-.94.46-.45c.1-.12.16-.13.28 0s.23.22.34.33a.16.16 0 010 .23c-.24.25-.48.49-.71.74l-.61.67v.15c.23.2.46.42.68.63l.62.59.8.74 1.55 1.45a.43.43 0 01.13.26 4.44 4.44 0 00.1.62 1 1 0 010 .25.11.11 0 01-.05.09H16c-.08-.06-.15-.14-.23-.21L15 38.3l-.74-.7-.75-.69-.95-.91-.92-.85h-.09l-.83.89-.63.67c-.1.11-.18.11-.29 0l-.32-.31c-.08-.09-.08-.14 0-.23l.69-.73.72-.78c.11-.12.11-.14 0-.26l-.28-.27zM17.09 43.25c.07.32.13.62.19.92l.06.33a.26.26 0 01-.19.24 2.21 2.21 0 01-.37.08h-.12a3 3 0 01-.94 0 1.73 1.73 0 01-.55-.15.34.34 0 01-.17-.29c0-.25-.09-.51-.11-.77a3.18 3.18 0 010-1.15 1.34 1.34 0 01.6-.83.89.89 0 01.81 0 3.23 3.23 0 011.28.91A4.58 4.58 0 0018 43a2.21 2.21 0 00.4.28 3.57 3.57 0 00.76.31l.45.13c.09 0 .11.08 0 .15a.88.88 0 01-.56.27 2 2 0 01-.76-.07 1.7 1.7 0 01-.35-.19c-.23-.16-.44-.34-.66-.51s-.07-.13-.19-.12zm-.52 1v-.13a.85.85 0 00-.05-.35 6.45 6.45 0 01-.08-.82 2 2 0 00-.05-.24.48.48 0 00-.31-.34.27.27 0 00-.32.11.64.64 0 00-.06.18 2.49 2.49 0 00-.08.72 1.83 1.83 0 00.06.66.21.21 0 00.1.14 1.63 1.63 0 00.79.09zM39 43.2l-.16.12-.55.41L38 44a1.12 1.12 0 01-.56.18h-.52c-.22 0-.35-.15-.5-.28s0-.1 0-.12l.51-.15a3.57 3.57 0 00.83-.35 1.39 1.39 0 00.37-.31c.24-.28.5-.54.76-.79a2.35 2.35 0 01.86-.48 1 1 0 011.2.47 2 2 0 01.23 1 6.91 6.91 0 010 .91 2 2 0 01-.08.49c0 .19-.19.25-.35.3a3 3 0 01-1.2.06 3.22 3.22 0 01-.6-.13.22.22 0 01-.16-.27l.12-.67.12-.47a.63.63 0 00-.03-.19zm1.08-.85a.45.45 0 00-.33.27.75.75 0 00-.1.36 9.18 9.18 0 01-.14 1.16c0 .1 0 .14.12.14a1.85 1.85 0 00.47 0 .31.31 0 00.33-.29 3.4 3.4 0 000-1.19c-.08-.2-.13-.39-.37-.44z"/>
          <path d="M30.86 25.62a.5.5 0 010 .38 1.64 1.64 0 01-.24.52 2.2 2.2 0 01-.51.5 3.77 3.77 0 01-1.11.48 3.71 3.71 0 01-1.15.15 1.09 1.09 0 01-.44 0 2 2 0 01-.61-.32 3 3 0 01-.72-.82 6.24 6.24 0 01-.36-.84.87.87 0 010-.28v-.09l.78.4 1.31.68a.25.25 0 00.17 0l.8-.2.6-.17.92-.22zM35.11 15.84a.23.23 0 01.29.09 1.32 1.32 0 001.75-.44l.21-.33c.09 0 .13 0 .17.08a1 1 0 00.47.36 1 1 0 00.69.05 1.29 1.29 0 00.49-.26 1.49 1.49 0 00.23-.27c.1-.16.13-.15.23 0a1.09 1.09 0 001 .56 1.16 1.16 0 00.78-.38c.06-.06.1-.17.19-.15.13.19.28.38.43.56a1.21 1.21 0 001 .39 1.69 1.69 0 00.65-.23.44.44 0 01.16-.06v.11l-.64.85a.15.15 0 01-.2.06 4.61 4.61 0 00-1.13-.4l-.69-.16h-.12a14.08 14.08 0 00-2.34-.07 8.51 8.51 0 00-1.13.14 5 5 0 00-1 .29l-.56.24a.12.12 0 01-.16 0c-.07-.09-.13-.18-.2-.26s-.29-.39-.43-.58zM28.27 48.76l1.05-1a11.8 11.8 0 001-1l1.19-1.11 1.09-1 .73-.7.39-.36a.17.17 0 01.14 0h.75s.12 0 .12.06a.15.15 0 010 .13c-.18.18-.37.34-.56.52l-1 1-.76.7-1.51 1.38-1.41 1.31a.21.21 0 01-.14.07l-.89.09c-.08.01-.16.02-.19-.09zM16.4 15.11l.33.38a1.06 1.06 0 00.5.27 1 1 0 001-.26l.29-.25a.28.28 0 01.09.1 1.61 1.61 0 00.58.66 1.17 1.17 0 00.77.19 1.63 1.63 0 00.74-.28h.06v.14c0 .04-.26.33-.38.5l-.3.39L20 17c-.17-.07-.33-.16-.51-.23a5.16 5.16 0 00-.52-.16c-.18-.05-.59-.15-.88-.2a9.56 9.56 0 00-1-.11 10.65 10.65 0 00-1.13 0c-.3 0-.6.05-.89.09H15a6.21 6.21 0 00-1.21.26h-.11l-.47.16-.39.18a1.8 1.8 0 01-.19-.2c-.22-.29-.44-.59-.63-.9h.14a.59.59 0 00.3.16 1.33 1.33 0 00.4.12 1.29 1.29 0 00.87-.25 1.65 1.65 0 00.5-.58c.08-.14.11-.14.22 0a1.53 1.53 0 00.72.43.73.73 0 00.5-.06 1 1 0 00.44-.26l.25-.27zM27.32 48.84a2.43 2.43 0 01-.66 0h-.33a.49.49 0 01-.17-.06l-1.5-1.41-.56-.5-.53-.52-.47-.43-.83-.77L21 43.89c-.1-.09-.11-.11-.06-.23l.73-.08a.31.31 0 01.27.1l.66.63.54.48.75.71 1.07 1 .77.72.56.5.72.68.31.29a.1.1 0 010 .14zM27.37 44.35a1.51 1.51 0 00-.08.76h1.65v-.64c0-.21-.05-.13-.17-.14h-.19a.17.17 0 010-.1l.08-.07H30a.1.1 0 01.11.08c0 .08 0 .11-.11.13h-.08c-.14 0-.19 0-.21.19V46c0 .19.06.25.25.26H30a.19.19 0 01.07.11s0 .08-.08.08h-1.3c-.07 0-.13 0-.15-.09a.16.16 0 01.18-.12c.19 0 .22-.05.23-.24v-.49c0-.13 0-.15-.15-.15h-1.37c-.12 0-.14 0-.14.15a4.17 4.17 0 000 .5c0 .18.07.24.26.25h.15a.08.08 0 010 .09.1.1 0 01-.08.07h-1.27a.16.16 0 01-.1-.08.1.1 0 01.08-.12c.26 0 .26-.17.26-.34v-1.46c0-.24 0-.14-.15-.15h-.12c-.07 0-.1-.05-.1-.12s0-.09.1-.09h1.28c.06 0 .11 0 .11.1a.13.13 0 01-.11.11zM41.86 40.79c0-.14 0-.17.1-.19h.16c.13 0 .18-.06.2-.19v-1.58c0-.14-.07-.16-.21-.18s-.11 0-.15-.06a.09.09 0 010-.13h2.24c.18 0 .18 0 .2.19s0 .1 0 .16V39c-.15.11-.19.1-.29 0a.49.49 0 00-.34-.22 3.42 3.42 0 00-.64 0c-.15 0-.19 0-.19.19v.62h.59c.12 0 .21 0 .26-.15s.13-.12.25-.07v.73c-.16.08-.21.07-.27-.08a.21.21 0 00-.22-.16H43v.61c0 .17 0 .19.2.23a2.41 2.41 0 001 0 .6.6 0 00.21-.14.8.8 0 01.17-.15.2.2 0 01.15 0s.05.09 0 .13a2.26 2.26 0 00-.18.4c-.06.13-.12 0-.18 0h-2.51zM35.87 17.84l-.78.14L35 18a4.16 4.16 0 00-.92.57 5.44 5.44 0 00-.47.49A3.89 3.89 0 0033 20a1.84 1.84 0 00-.13.65.17.17 0 000 .1c0 .06 0 .1-.09.09a.14.14 0 01-.12-.06.43.43 0 00-.08-.3 2.55 2.55 0 01-.06-.78 3.1 3.1 0 01.11-.51 1.21 1.21 0 010-.18 2.72 2.72 0 011.5-1.44.9.9 0 01.27-.07 3.34 3.34 0 011.09.06 1.06 1.06 0 01.25.09c.16.05.14.12.13.19zM10.12 22.6s.1 0 .12.07a.28.28 0 010 .13 2.89 2.89 0 00-.35.51 2.74 2.74 0 00-.29.92 3.24 3.24 0 000 .88 3.28 3.28 0 00.25 1.07 2.62 2.62 0 00.3.51c0 .06.1.11.15.17a.08.08 0 010 .11s-.08.08-.14 0l-.49-.34-.28-.25a2.13 2.13 0 01-.55-.94 2.26 2.26 0 01-.07-1 2.26 2.26 0 01.15-.73 2 2 0 01.41-.63 3.6 3.6 0 01.74-.54zM38.76 29.78c.05.15.05.18-.08.21a2.67 2.67 0 01-.69.16h-.57a1.77 1.77 0 01-.67-.26 2.9 2.9 0 01-.75-.69 1.7 1.7 0 01-.37-.67l-.06-.17a2.36 2.36 0 010-1.29.58.58 0 010-.14c0-.13 0-.13.2-.11v.12a2.44 2.44 0 00.34 1.11 3.73 3.73 0 001.14 1.23 2.41 2.41 0 001.41.49zM32.92 42.13l.13-.05a7.83 7.83 0 011.81 0l1 .16.22.06a5.91 5.91 0 011.29.49c.05 0 .08 0 .06.12a1.52 1.52 0 01-.86.17h-1.25a4.78 4.78 0 01-.76-.08 3.25 3.25 0 01-.74-.2 2.2 2.2 0 01-.88-.63zM34.35 26.76a2 2 0 01-1.26-.47 4.7 4.7 0 01-.51-.49 1.35 1.35 0 01-.31-.53 2.91 2.91 0 01-.16-.5 2.64 2.64 0 010-1.12.27.27 0 010-.16c.05 0 .06-.11.13-.1s.07.08.08.13a4.13 4.13 0 00.13.61 3 3 0 00.5.94 5.23 5.23 0 00.45.49 4.17 4.17 0 00.78.54 2 2 0 00.67.22.76.76 0 01.36.06c.12.06.1 0 .1.08s0 .12-.08.14l-.49.11c-.07.03-.25.03-.39.05zM8.69 20.05a2.28 2.28 0 01.12-.93 1.72 1.72 0 01.45-.71 2.48 2.48 0 01.74-.54.14.14 0 01.09 0 .44.44 0 01.15.05v.13l-.21.28a2 2 0 00-.38.84 3.41 3.41 0 00-.1 1.19 3.9 3.9 0 00.19.9 2 2 0 00.49.81c.09.07.09.14 0 .2a.11.11 0 01-.11 0 3 3 0 01-1.12-1 2.56 2.56 0 01-.34-.88 1.22 1.22 0 01.03-.34zM44.25 17.53a1.92 1.92 0 011.2.39 3.16 3.16 0 01.55.48 3.23 3.23 0 01.33.49 1.94 1.94 0 01.24.85 2.21 2.21 0 01-.06.81.49.49 0 010 .17.33.33 0 010 .14.11.11 0 01-.11 0 .07.07 0 01-.07-.07v-.15a2.49 2.49 0 00-.52-1.33 4.55 4.55 0 00-.94-.92 2.91 2.91 0 00-1-.39 2.63 2.63 0 00-.49-.07c-.06 0-.13 0-.14-.08a.12.12 0 01.1-.14l.22-.06h.1c.22-.13.43-.08.59-.12zM40.4 29.79l.52-.07a2.67 2.67 0 00.76-.32 4.16 4.16 0 001.53-1.81 2.27 2.27 0 00.12-.63v-.1a.11.11 0 01.11-.1.12.12 0 01.12.1v.19a2.5 2.5 0 01-.09 1.53 2.65 2.65 0 01-.89 1.12 2.46 2.46 0 01-.72.37h-.22a5.08 5.08 0 01-.78 0 1.62 1.62 0 01-.43-.12c-.07.05-.07-.01-.03-.16zM46.76 23.41c.13 0 .17 0 .2.12a3.09 3.09 0 01.12.74 2.07 2.07 0 01-.15.92 2.44 2.44 0 01-.82 1.06 2.33 2.33 0 01-.82.44 1.61 1.61 0 01-.69 0 4.16 4.16 0 01-.69-.12h-.09a.47.47 0 01-.06-.15c0-.05.05-.06.1-.06a2.69 2.69 0 00.89-.21 2.32 2.32 0 00.41-.22 3.47 3.47 0 00.91-.84 2.45 2.45 0 00.34-.5 2 2 0 00.29-.84 2 2 0 01.06-.34zM22.52 27.06c-.15-.1-.14-.14 0-.26a2 2 0 00.33-.48 5.16 5.16 0 00.23-.66 3.58 3.58 0 00.11-.73 1.61 1.61 0 000-.31 3.93 3.93 0 00-.16-.83 2.31 2.31 0 00-.51-.95l-.06-.09c0-.11 0-.17.14-.12a2.68 2.68 0 01.33.18 2.32 2.32 0 01.63.54 1.91 1.91 0 01.36.71 2.61 2.61 0 01.08 1.21 1.62 1.62 0 01-.27.74 3.14 3.14 0 01-.38.5 2.77 2.77 0 01-.83.55zM23.14 42.13c-.05.15-.16.2-.25.27a2.92 2.92 0 01-.61.37l-.24.1a4.51 4.51 0 01-1.55.22h-1a2.4 2.4 0 01-.84-.15.07.07 0 010-.1l.52-.23a6.44 6.44 0 01.74-.25c.22-.07.45-.11.67-.16s.31 0 .46-.08a2.28 2.28 0 01.64-.06H23zM24 19.93a2.25 2.25 0 01-.87 2l-.4.28a.25.25 0 01-.14.06.13.13 0 01-.12 0v-.12a.47.47 0 01.09-.12 2 2 0 00.42-.72.35.35 0 01.07-.25 3.39 3.39 0 00.15-.9 2.51 2.51 0 00-.1-.77c-.1-.17-.1-.39-.1-.52a2.07 2.07 0 00-.43-.73s-.06-.06-.06-.09a.13.13 0 010-.12.11.11 0 01.11 0l.32.17a2.81 2.81 0 01.66.58 2.59 2.59 0 01.33.64 2.13 2.13 0 01.07.61zM18.73 30.12a1.58 1.58 0 01-.6-.08 1.82 1.82 0 01-1.06-.58c-.15-.17-.28-.36-.41-.54a1.13 1.13 0 01-.12-.21.13.13 0 01.06-.16h.12a2.53 2.53 0 00.72.44 4 4 0 00.83.21 4.43 4.43 0 00.51.06 3.74 3.74 0 00.66-.09l.29-.06a2.36 2.36 0 00.72-.33l.32-.24c.05 0 .1-.06.15 0a.11.11 0 010 .16 2.93 2.93 0 01-.61.79 1.76 1.76 0 01-.63.41 4.74 4.74 0 01-.72.18zM13.92 30.13l-.67-.13a1.53 1.53 0 01-.55-.21 1.81 1.81 0 01-.41-.32 4.41 4.41 0 01-.53-.75.12.12 0 010-.17h.16a2.39 2.39 0 001.38.64 4 4 0 00.69.06l.66-.08.27-.07a2.47 2.47 0 00.69-.29c.12-.08.22-.18.34-.27a.2.2 0 01.15 0c.06 0 0 .08 0 .14a3.42 3.42 0 01-.71.85 2.15 2.15 0 01-.56.34 5.73 5.73 0 01-.69.16zM13.49 40.52a2.37 2.37 0 001.06 0 .26.26 0 00.11-.07l.16-.18a.18.18 0 01.25-.05.12.12 0 010 .05c-.06.12-.12.25-.17.38s-.12.14-.24.14h-2.29a.07.07 0 01-.07-.08.14.14 0 010-.09h.18c.15 0 .17 0 .21-.19V39a.49.49 0 000-.17c0-.17-.06-.18-.24-.2s-.18 0-.17-.18h1.42c.06 0 .1 0 .09.08a.26.26 0 01-.07.11h-.1s-.24.08-.24.25v1.18a.77.77 0 00.11.45zM13.58 26.5l-.13-.5h-.2a.72.72 0 01-.38-.1.29.29 0 01-.17-.25 3.48 3.48 0 010-.79 1.82 1.82 0 000-.33h.21a3.81 3.81 0 011.12.69 1.51 1.51 0 01.32.43.35.35 0 01-.06.4 1.36 1.36 0 01-.48.34zM18.77 26.49c-.08-.17 0-.37-.13-.52h-.16a.85.85 0 01-.38-.09.29.29 0 01-.2-.28v-1.07c0-.08.23 0 .33 0a3.48 3.48 0 01.94.57 2.37 2.37 0 01.32.39c.16.23.12.43-.13.63a1.73 1.73 0 01-.59.37zM18.77 21.19c-.07-.18 0-.36-.1-.49l-.42-.08a1 1 0 01-.21-.09.27.27 0 01-.14-.25v-.56a2.83 2.83 0 01.1-.52.48.48 0 01.33.06c.23.12.46.24.68.38a1.81 1.81 0 01.62.64.36.36 0 01-.05.47 1.33 1.33 0 01-.55.35zM13.47 20.7l-.47-.08a.4.4 0 01-.34-.41 5.55 5.55 0 01.08-1 .56.56 0 01.26.06 5.22 5.22 0 01.74.39 2 2 0 01.62.65.36.36 0 010 .45 1.48 1.48 0 01-.58.37h-.09c-.13.05-.14 0-.16-.08s-.04-.24-.06-.35zM28.94 8.09l.64.12-.09.12c-.2.26-.4.52-.61.77-.08.1-.09.11-.19 0a1.3 1.3 0 00-.92-.2.84.84 0 00-.35.07.18.18 0 01-.2 0l-.7-.53s0-.07.06-.08l.42-.22c.08 0 .13 0 .18.06a2.15 2.15 0 00.14.26.16.16 0 00.2.1h.16c.1 0 .12-.07.09-.16a1.65 1.65 0 00-.1-.19.11.11 0 010-.16c.11-.1.21-.22.32-.33l.33.27a.12.12 0 010 .17l-.11.3a2.26 2.26 0 00.52 0 .76.76 0 00.1-.12 1.83 1.83 0 00.11-.25zM16.3 29.5l.2.19.56.54c.15.15.15.2 0 .35l-.55.55c-.23.24-.23.2-.43 0l-.55-.55c-.19-.18-.17-.19 0-.38s.42-.41.63-.61zM47.73 21.86v.06l-.8.81c-.06.06-.1.05-.16 0l-.44-.46L46 22c-.09-.08-.09-.09 0-.18l.72-.75a.12.12 0 01.17 0c.2.2.41.4.61.61a1.37 1.37 0 01.17.17zM38.72 30.63l.39-.42c.12-.12.24-.23.36-.36s.16-.12.26 0l.74.75.05.06a.41.41 0 01-.05.09l-.76.73c-.09.09-.12.09-.21 0l-.72-.73zM9.31 22.48l-.07.08-.53.54-.22.22a.11.11 0 01-.14 0L8 23l-.42-.42c-.08-.09-.09-.1 0-.19l.42-.46.29-.28c.09-.09.12-.09.2 0l.53.53.21.22zM25.2 22.47l-.63.65-.18.17c-.09.09-.12.1-.22 0s-.22-.21-.32-.32l-.41-.41c-.14-.14-.08-.11 0-.19l.77-.75c.06-.06.11-.06.16 0zM35 27.14v1.18c0 .1 0 .13-.13.13h-1a.11.11 0 01-.12-.1v-1.2c.42-.02.84-.01 1.25-.01zM32.22 21l.84.85c.06.06.06.1 0 .15l-.77.78a.1.1 0 01-.14 0l-.87-.78a6.51 6.51 0 01.94-1zM9.87 28.87v-1.13c0-.13 0-.15.16-.15h1c.13 0 .15 0 .15.15v1c0 .12 0 .15-.15.15H10zM21.52 28.88v-1.15c0-.12 0-.14.15-.14h1.16v1.24h-1.12zM45.36 27.14a4.72 4.72 0 010 1.3h-1.2a5.65 5.65 0 010-1.3c.39-.01.84 0 1.2 0zM14.77 25.43a6.91 6.91 0 00-.51-.57 5.13 5.13 0 00-.6-.44c-.21-.14-.45-.22-.66-.35a.15.15 0 01.08-.18 1 1 0 01.93-.16 2.33 2.33 0 01.49.21.8.8 0 01.42.79 4.6 4.6 0 01-.06.52.61.61 0 01-.09.18zM20 25.29l-.1-.07a2.59 2.59 0 00-.81-.77 5.84 5.84 0 00-.65-.35c-.1-.06-.12-.11 0-.19a.59.59 0 01.4-.16 1.42 1.42 0 011 .34.77.77 0 01.29.6 1.38 1.38 0 01-.13.6zM18.29 18.72a.44.44 0 01.36-.24 1.38 1.38 0 011.14.31.79.79 0 01.26.48A1.65 1.65 0 0120 20a.52.52 0 01-.1-.11 2.85 2.85 0 00-.78-.73 5.7 5.7 0 00-.69-.37zM14.75 20a3.79 3.79 0 00-1.66-1.27.41.41 0 01.36-.26 1.37 1.37 0 011.15.32.77.77 0 01.26.5 1.56 1.56 0 01-.11.71zM18.87 14.54a.48.48 0 01-.45-.16l-.09-.17a.4.4 0 01.28-.49.41.41 0 01.46.2c.13.18.1.31-.12.58h.1a.42.42 0 01.39.34.39.39 0 01-.7.31c-.13-.15-.11-.39.13-.61zM10.34 18.33a.47.47 0 01.46-.48.47.47 0 01.48.44.5.5 0 01-.49.51.49.49 0 01-.45-.47zM22.27 18.3a.51.51 0 01-.47.5.5.5 0 010-1 .51.51 0 01.47.5zM43.5 18.55a.45.45 0 01-.45.45.5.5 0 010-1 .46.46 0 01.51.38.47.47 0 01-.06.17z"/>
          <path d="M42.82 27.14a.49.49 0 01-.49-.49.5.5 0 011 0 .47.47 0 01-.44.5zM33 22.83a.44.44 0 01.47.41.47.47 0 01-.41.54.47.47 0 01-.54-.4.33.33 0 010-.14.43.43 0 01.41-.45zM36.33 27.14a.48.48 0 01-.46-.46.5.5 0 01.5-.48.47.47 0 01.45.44.46.46 0 01-.42.5zM22.27 26.65a.48.48 0 01-.46.5.48.48 0 010-.95.5.5 0 01.46.45zM46.68 23.3a.45.45 0 01-.47.45.45.45 0 01-.46-.44.44.44 0 01.41-.47h.07a.43.43 0 01.47.39zM35.49 25.34a.44.44 0 01.46.42.43.43 0 01-.44.49.45.45 0 01-.49-.41.45.45 0 01.4-.5zM10.8 27.15a.45.45 0 01-.46-.44.49.49 0 01.47-.51.47.47 0 01.54.41.47.47 0 01-.4.54.33.33 0 01-.14 0zM44.14 25.82a.46.46 0 01-.4.53.47.47 0 01-.53-.39.33.33 0 010-.14.44.44 0 01.41-.47h.05a.44.44 0 01.47.41zM22.27 21.87a.47.47 0 01-.46.48.47.47 0 01-.49-.43.48.48 0 01.95 0zM21.78 23.56a.44.44 0 01-.46-.42.47.47 0 01.46-.48.48.48 0 01.47.47.44.44 0 01-.44.46zM21 27.9a.47.47 0 01-.47.47.45.45 0 01-.47-.43.47.47 0 11.94 0zM45.58 21.52a.45.45 0 01-.49-.41.5.5 0 01.44-.49.52.52 0 01.52.48.5.5 0 01-.47.42zM36.52 18.49a.37.37 0 01-.09.3.47.47 0 11-.36-.75.44.44 0 01.45.43zM12.2 27.44a.45.45 0 01.46.48.43.43 0 01-.41.45h-.05a.45.45 0 01-.47-.43v-.05a.44.44 0 01.43-.45zM17 27.44a.43.43 0 01.45.43v.06a.45.45 0 01-.46.44.45.45 0 01-.47-.43v-.05a.43.43 0 01.41-.45zM10.34 23.1a.47.47 0 01.49-.47.46.46 0 01.53.4.47.47 0 01-.39.53.33.33 0 01-.14 0 .45.45 0 01-.49-.39zM15.77 27.44a.48.48 0 01.48.46.53.53 0 01-.48.48.47.47 0 01-.46-.46.42.42 0 01.38-.46zM10.34 21.9a.47.47 0 01.44-.48.47.47 0 01.49.43.5.5 0 01-.49.49.48.48 0 01-.44-.44zM40.74 29.22a.36.36 0 01-.11.31.49.49 0 01-.34.15.47.47 0 01-.46-.47.44.44 0 01.39-.48.21.21 0 01.11 0c.25 0 .41.18.41.49zM38.88 28.73a.44.44 0 01.46.42v.06a.48.48 0 01-.48.47.6.6 0 01-.35-.16.46.46 0 01-.09-.36.43.43 0 01.43-.43zM33.55 20.54c.31 0 .46.16.46.48a.4.4 0 01-.35.44h-.1a.42.42 0 01-.47-.36V21a.41.41 0 01.36-.45zM35 15.27a.41.41 0 01.38-.42.44.44 0 01.42.42.41.41 0 01-.38.39.42.42 0 01-.42-.39zM18.09 15.16a.41.41 0 01-.38-.41.38.38 0 01.38-.38h.05a.39.39 0 01.38.41.43.43 0 01-.43.38zM39 14.87a.37.37 0 01-.39-.35.41.41 0 01.81 0 .37.37 0 01-.35.39zM39.85 14.11l-.31.05a.38.38 0 01-.4-.38.39.39 0 01.3-.39.38.38 0 01.5.23.37.37 0 010 .34.77.77 0 00-.07.16zM14.12 14.92a.4.4 0 01-.38.42.42.42 0 01-.39-.42.4.4 0 01.4-.4.37.37 0 01.37.37zM16.31 14.6a.38.38 0 01-.37.39.36.36 0 01-.38-.34v-.06a.39.39 0 11.78 0zM16.66 14.22h.24a.39.39 0 01.37.43.31.31 0 010 .13.37.37 0 01-.38.23.4.4 0 01-.36-.27.37.37 0 01.07-.36l.09-.15zM20.11 15.37a.35.35 0 01.31-.39h.07a.36.36 0 01.4.31v.09a.41.41 0 01-.39.39.38.38 0 01-.39-.37zM16.66 14.21a.47.47 0 01-.4 0 .39.39 0 01-.18-.53.39.39 0 01.52-.18.4.4 0 01.17.55.22.22 0 01-.05.08l-.06.07zM43.64 15.64a.33.33 0 01-.36-.3v-.07a.39.39 0 01.36-.42.43.43 0 01.39.43c.03.23-.12.36-.39.36zM14.07 13.75a.39.39 0 01.39.39.4.4 0 11-.8 0 .38.38 0 01.39-.39zM12.58 15.38a.38.38 0 01-.37.39.41.41 0 01-.39-.43.38.38 0 01.4-.36.35.35 0 01.37.33zM34.2 15.7a.38.38 0 01.34-.4.41.41 0 01.41.39.42.42 0 01-.4.41.38.38 0 01-.38-.38z"/>
          <path d="M39.84 14.12a.59.59 0 01.37 0 .39.39 0 01.19.45.32.32 0 01-.33.27.53.53 0 01-.25 0 .39.39 0 01-.13-.55.4.4 0 01.13-.13h.06zM44.92 15.69a.39.39 0 01-.78 0c0-.28.16-.38.4-.39a.35.35 0 01.38.32zM11.34 16.19a.38.38 0 01-.4-.36.4.4 0 01.4-.38.39.39 0 010 .78zM14.7 14.37a.35.35 0 01.37.35.39.39 0 11-.38-.4zM44.43 15.22c-.25 0-.37-.13-.37-.39a.38.38 0 01.39-.39.38.38 0 01.37.41c.01.24-.13.37-.39.37zM36.9 14.41a.37.37 0 01.34-.4.43.43 0 01.39.4.38.38 0 01-.39.39.34.34 0 01-.36-.32zM41.72 14.8a.38.38 0 01-.39-.35.43.43 0 01.41-.41.38.38 0 01.37.41.35.35 0 01-.33.37zM21.29 14.57a.35.35 0 01.38.32V15a.4.4 0 01-.38.39.4.4 0 01-.4-.4.36.36 0 01.36-.36zM11 15c0-.26.12-.38.39-.38a.36.36 0 01.38.32V15a.42.42 0 01-.4.41A.39.39 0 0111 15zM34.65 15.22a.35.35 0 01-.39-.31v-.07a.4.4 0 01.4-.4.37.37 0 01.37.39c-.03.27-.13.39-.38.39zM21.73 15.81a.35.35 0 01-.32.38h-.06a.38.38 0 01-.4-.36.4.4 0 01.4-.38.36.36 0 01.38.34zM25.59 8.55a.32.32 0 01-.32-.32.36.36 0 01.34-.33.35.35 0 01.33.33.32.32 0 01-.3.34zM25.37 9.58a.29.29 0 01-.31-.29.38.38 0 01.32-.36.36.36 0 01.32.34.3.3 0 01-.26.34zM26.79 7.45a.31.31 0 01-.28.34.36.36 0 01-.32-.34c0-.17.18-.37.33-.35a.32.32 0 01.27.35zM29.9 9.88a.34.34 0 01.32-.35.37.37 0 01.34.34.35.35 0 01-.35.34.32.32 0 01-.31-.33zM29 6.84a.36.36 0 01.33.34.38.38 0 01-.33.33.34.34 0 01-.12-.67zM25.47 10.37a.32.32 0 01.33-.31.33.33 0 01.34.32.34.34 0 01-.35.33.31.31 0 01-.32-.3zM27.8 7.37a.29.29 0 01-.33-.24.28.28 0 010-.13.31.31 0 01.31-.31.28.28 0 01.31.25V7a.28.28 0 01-.19.36.23.23 0 01-.1.01zM30.63 9.11a.3.3 0 01-.32-.28v-.05a.28.28 0 01.25-.31h.05a.3.3 0 01.34.26.31.31 0 01-.29.33zM30.22 7.36a.29.29 0 01.31.29.32.32 0 11-.63.11.2.2 0 010-.11.28.28 0 01.22-.33.34.34 0 01.1.04zM49.9 36.21h.79a.28.28 0 00.22-.2l.16-.46c.07-.27.09-.24-.1-.43s-.28-.26-.42-.39a.24.24 0 00-.11-.06l-.09.18c-.09.14-.16.14-.27 0l.19-.51v-.09a.77.77 0 00.1-.42 1.3 1.3 0 01.43-1 1.72 1.72 0 01.51-.33l.59-.28c.2-.1.23-.18.2-.41-.27 0-.55-.1-.82-.12s-.2 0-.26.18-.02.13-.25.13v-.22a3.64 3.64 0 01.13-.72l.13-.62c.19 0 .21 0 .21.15a.38.38 0 000 .15.17.17 0 00.16.17l.86.15.79.13.46.11h.05c.21 0 .28 0 .33-.21V31s.06-.08.12-.07a.14.14 0 01.11.13c-.07.43-.12.87-.2 1.3a2.47 2.47 0 01-.29.88 1 1 0 01-.52.46.75.75 0 01-.92-.49 1 1 0 00-.08-.25c0-.08-.21 0-.3.07-.26.12-.51.26-.76.4a.7.7 0 00-.4.55.46.46 0 00.14.4l.57.6c.39.4.77.81 1.17 1.2.12.12.24.21.21.4s0 .08 0 .13 0 .21-.14.24h-2.74a.44.44 0 00-.45.25.39.39 0 00-.08.1 1.2 1.2 0 00-.14.49.18.18 0 00.08.11l.49.28 1.33.68.24.09h.14a.48.48 0 00.16-.12l.06-.09c.06-.1.06-.1.2-.09a.32.32 0 010 .27l-.59 1.16c0 .1-.06.1-.22.07v-.27a.22.22 0 00-.12-.29l-.35-.18c-.35-.19-.71-.37-1.07-.55-.12-.06-.25-.13-.38-.18a.55.55 0 00-.25-.07.19.19 0 00-.18.09 3.2 3.2 0 00-.29.51 1.08 1.08 0 01-.08.19.54.54 0 000 .56.57.57 0 01.08.13.17.17 0 010 .21.15.15 0 01-.18 0L48 40a.23.23 0 010-.29c.11-.2.21-.41.31-.62l.34-.65.36-.69a2.38 2.38 0 01.23-.41v-.19l.43-1.15a.11.11 0 010-.08h.12a.11.11 0 01.06.1v.17s.05-.02.05.02zM53.7 32l-.57-.12-.54-.09c-.06 0-.12 0-.12.07a1.3 1.3 0 000 .62.5.5 0 00.16.22.63.63 0 00.89 0 .57.57 0 00.11-.16.76.76 0 00.07-.54zm-1.59 4.13l-.68-.66c-.09.23-.16.42-.23.62s0 .11.09.11H52zM43.35 49.43l-.83.51a.21.21 0 01-.19 0l-.46-.17-.43-.11-.82-.19-.71-.15-.5-.13a.29.29 0 000 .13c.23.39.46.79.7 1.18a1.24 1.24 0 00.18.22.17.17 0 00.21 0l.24-.1c.06 0 .12 0 .12.12s0 .11-.11.14l-.87.5a.28.28 0 01-.18 0 .1.1 0 01-.09-.07.09.09 0 010-.07.8.8 0 01.13-.13c.12-.11.12-.13.06-.28a3.11 3.11 0 00-.32-.63c-.14-.23-.28-.47-.41-.71s-.38-.66-.56-1a.16.16 0 01.06-.22H38.78c.23.06.45.13.68.18l1 .23.61.16.79.19H42v-.11c-.2-.36-.4-.72-.61-1.07-.06-.09-.14-.17-.2-.27a.21.21 0 00-.25-.1h-.36s0-.14.11-.19l.59-.32c.14-.07.27-.16.4-.24.15.09.16.14.06.25-.16.13-.18.2-.08.37.2.38.41.75.62 1.12l.32.56.07.11a.37.37 0 00.49.14h.07c.08-.04.13.01.12.15zM45.14 47.93a.21.21 0 01-.24 0l-.69-.37-.69-.35-.77-.41-.41-.2a.27.27 0 00-.3 0 .35.35 0 01-.14.06.1.1 0 01-.14 0 .11.11 0 010-.15l.57-.46.31-.28a.53.53 0 01.14-.12.12.12 0 01.16 0c.05 0 0 .1 0 .15s-.13.18.08.29.35.18.51.28.13 0 .19 0l.57-.5a.17.17 0 00.06-.23c-.06-.19-.11-.38-.18-.58a.8.8 0 00-.08-.16l-.19.1h-.19c-.06 0 0-.11 0-.18l.75-.62a.18.18 0 01.22 0 .13.13 0 010 .19.38.38 0 00-.12.41 2.3 2.3 0 00.17.59c.06.2 0 .22.08.33.07.3.14.59.22.88s.17.57.25.85a.29.29 0 010 .13 1 1 0 01-.14.35zm-.41-.93a6 6 0 00-.24-.83h-.11l-.4.32v.1zM51.44 28.94l.24-.08.45-.19a.24.24 0 00.19-.27v-.7c0-.06 0-.13-.07-.15l-.74-.28h-.06a1.43 1.43 0 01-.09.27c0 .05 0 .11-.1.08s-.08-.06-.11-.1a.17.17 0 010-.1v-1a.12.12 0 01.1-.11c.07 0 .1 0 .12.09l.07.22a.26.26 0 00.16.19l1.2.53 1.16.52a.24.24 0 00.12 0 .21.21 0 01.2.15 1.59 1.59 0 00.13.22.16.16 0 010 .21.14.14 0 01-.08 0l-.67.27-1.19.52-.71.31-.16.08a.2.2 0 00-.12.16V30a.14.14 0 01-.13.11c-.07 0-.09-.06-.09-.12V28.8c0-.14 0-.22.11-.23s.13.07.14.2zm1.21-1.25a.33.33 0 000 .14v.47a.18.18 0 00.08.15l.8-.37c-.31-.19-.61-.22-.88-.39zM50.91 24.64v-.48a1.62 1.62 0 01.43-1.07 1.25 1.25 0 01.93-.46h.42a1.55 1.55 0 01.89.49 2.47 2.47 0 01.51.87c.08.23.1.49.16.74a4.22 4.22 0 010 .87c0 .21 0 .23-.21.3l-.44.1a.12.12 0 01-.17-.06.2.2 0 01.09-.21 1 1 0 00.43-1.13 2.27 2.27 0 00-.2-.57 1.18 1.18 0 00-.58-.52 1.47 1.47 0 00-.88 0 2.74 2.74 0 00-.4.15 1 1 0 00-.38.3 1.48 1.48 0 00-.26 1.27 1.14 1.14 0 00.4.68 1.77 1.77 0 00.33.19.17.17 0 01.12.16.11.11 0 01-.1.12 1.38 1.38 0 01-.6-.1c-.16-.07-.2-.22-.25-.35a5.62 5.62 0 01-.19-.58v-.71zM38.21 48.79c0 .1 0 .16-.08.21a.53.53 0 00-.25.47c0 .61-.09 1.22-.09 1.84a5.61 5.61 0 010 .58v.18a.2.2 0 01-.06.18 1.77 1.77 0 00-.16.22.14.14 0 01-.19.06.53.53 0 01-.14-.12L35.85 51c-.2-.21-.41-.4-.6-.61a.37.37 0 00-.36-.1h-.15a.15.15 0 01-.1-.09s0-.09.06-.12l.21-.09.49-.21.55-.21c.09.14.09.15 0 .24h-.07c-.06 0-.08.07 0 .13l.23.25.37.36.74-.28a.29.29 0 00.21-.32v-.71h-.2c-.13 0-.16 0-.24-.13a.54.54 0 01.16-.1l.74-.29zm-.83 2.76v-.78c0-.08 0-.11-.14-.07l-.53.24a2.59 2.59 0 00.67.61zM49 44.07a.33.33 0 00-.29.15l-.56.67-.75.87-.4.48a.9.9 0 00-.08.21v.12s-.12.1-.19 0a2.52 2.52 0 00-.39-.41c-.1-.07-.11-.14-.06-.22a.12.12 0 01.19 0 .49.49 0 00.46 0 4.81 4.81 0 00.47-.51c.16-.16 0-.11 0-.16l-.56-.46c-.17-.14-.34-.28-.5-.43l-.62-.52a.91.91 0 00-.16-.11.22.22 0 00-.22 0l-.15.13c-.1.09-.1.09-.23 0a.17.17 0 010-.17c.29-.33.57-.68.85-1l.09-.12a.45.45 0 01.1-.1.19.19 0 01.15 0c.06 0 .05.09 0 .14s-.11.18-.17.27a.1.1 0 00.02.1l.24.24.45.38.6.49.52.43c.11.09.13.09.23 0a2.89 2.89 0 00.46-.64.33.33 0 000-.24 1 1 0 010-.24.13.13 0 01.1-.13.12.12 0 01.15.05.22.22 0 010 .08l.24.38a2 2 0 01.01.27zM49.26 43.05c0-.08.08-.15.11-.22a.21.21 0 00-.06-.22 3.09 3.09 0 00-.63-.44c-.16-.09-.3-.2-.45-.3l-.74-.47-.21-.1a.13.13 0 00-.18.05.86.86 0 01-.13.14.12.12 0 01-.17 0v-.14l.71-1.11.06-.09a.12.12 0 01.17 0v.13a.23.23 0 010 .16.23.23 0 00.11.31l1.47.94c.15.09.3.18.44.28a.13.13 0 00.18 0l.06-.17s.07-.07.12 0a.13.13 0 01.08.15V42l-.5.77-.16.26v.08a.3.3 0 01-.28-.06zM5.41 38.66c.12-.25.24-.49.35-.73s.11-.25.16-.38A.66.66 0 006 37v-.12s.13-.06.21 0A1.46 1.46 0 016.5 38a2 2 0 01-.27.78c-.09.16-.18.32-.26.49a.21.21 0 000 .19.18.18 0 00.17.21c.22-.13.47-.25.7-.38s.21-.17.12-.38 0-.12 0-.17.14 0 .2 0a1.63 1.63 0 01.18.33l.45.88a.2.2 0 010 .15h-.1a.15.15 0 01-.09-.1 1.07 1.07 0 00-.19-.18.09.09 0 00-.1 0L7 40l-.93.48-.72.36a1 1 0 00-.17.1c-.13.08-.14.14-.09.28s0 .07 0 .1 0 .11-.06.14a.11.11 0 01-.16 0c-.06-.09-.11-.18-.16-.27-.19-.35-.37-.71-.55-1.07a1.84 1.84 0 01-.23-1 .7.7 0 01.4-.61.76.76 0 01.85.12l.12.08zm-.74 1.64a6.37 6.37 0 001.09-.59c-.07-.12-.14-.26-.22-.38a.58.58 0 00-.82-.14.49.49 0 00-.18.2.68.68 0 000 .75zM14.13 48.14l-.07.09c-.2.37-.41.73-.61 1.11a1.88 1.88 0 00-.12.3.29.29 0 00.12.32.91.91 0 00.16.11v.15h-.18a5.36 5.36 0 01-.62-.37l-.3-.14a.15.15 0 01-.1-.12c0-.07 0-.11.09-.14a1.31 1.31 0 00.28.09.27.27 0 00.14-.07 3.71 3.71 0 00.28-.41c.13-.21.25-.43.37-.65l.32-.62.37-.64a.15.15 0 01.16-.11.19.19 0 01.18.14 1.8 1.8 0 00.14.43c0 .14.13.41.2.61s.16.55.25.82l.14.42.27.89v.06s.07 0 .09-.09c.15-.26.31-.53.44-.8l.37-.79c.05-.09 0-.14-.07-.2a1.22 1.22 0 01-.16-.14s-.08-.12 0-.18.1 0 .16 0l.94.52c.08 0 .12.12.08.2s-.09.08-.19 0c-.17-.06-.24 0-.34.11a4.89 4.89 0 00-.38.65l-.6 1.08a.66.66 0 00-.09.19.21.21 0 000 .11.84.84 0 00.25.34c.07.05.09.13 0 .18a.13.13 0 01-.18 0l-.74-.41A.32.32 0 0115 51c-.08-.32-.16-.65-.27-1s-.21-.63-.31-1-.16-.46-.23-.7zM7 44.54a1.07 1.07 0 01-.14-.16c-.29-.42-.58-.85-.88-1.27-.14-.21-.29-.41-.44-.61s-.07-.17 0-.27l.46-.29a.13.13 0 01.18 0 .15.15 0 010 .16l-.09.17a.4.4 0 000 .42l.42.66a.1.1 0 00.14 0l.16-.09.67-.49-.48-.61c-.07-.09-.16 0-.24 0a.13.13 0 01-.18 0c-.07-.08-.08-.15 0-.22l.33-.24.31-.22a.16.16 0 01.21 0 .11.11 0 010 .16l-.1.11a.2.2 0 000 .27c.11.14.2.29.29.43l.12.16.34-.22a3.9 3.9 0 00.4-.31c.15-.13.17-.22.07-.39a4.63 4.63 0 00-.31-.46 1.38 1.38 0 00-.24-.3.56.56 0 00-.41-.14h-.1c-.14 0-.19 0-.18-.17v-.08l.26-.11.43-.06c.08 0 .12.06.16.11l.58.84c.31.44.63.88.94 1.33a.29.29 0 010 .13.1.1 0 01-.11.11.08.08 0 01-.08 0l-.12-.13a.25.25 0 00-.35 0l-1 .66-.86.58c-.14.1-.16.16-.09.34s.13.09-.07.2zM1.19 26.64a.44.44 0 01.29-.19l.74-.26.72-.19.42-.16.75-.26a.34.34 0 00.2-.26.29.29 0 01.07-.16c.07-.08.15-.06.18.05a.14.14 0 010 .09v1.31a.12.12 0 01-.11.05s-.07-.05-.08-.08a1 1 0 01-.06-.25 4.76 4.76 0 00-.89.33 3.65 3.65 0 01-.07.87.15.15 0 00.09.15L4 28c.09.05.15 0 .17-.08a.42.42 0 000-.16.1.1 0 01.13-.08c.07 0 .08.07.08.13v1a.11.11 0 01-.08.19c-.07 0-.11 0-.13-.09a.43.43 0 010-.16.3.3 0 00-.2-.29l-.62-.32-.71-.39-.81-.43a.91.91 0 00-.22-.11.32.32 0 01-.22-.21zm1 .39l.73.38a.21.21 0 00.11 0v-.57c0-.13 0-.16-.15-.11l-.58.21zM18.85 52.54a14.87 14.87 0 00-.15-2.11l-1.52 1.34v.09s.22.09.23.23 0 .07-.11.14l-.69-.23-.31-.11h-.07a.14.14 0 01-.07-.16c0-.07.07-.08.12-.08h.12a.47.47 0 00.41-.09c.34-.29.69-.56 1-.84l.88-.73c.13-.11.25-.24.38-.36a.2.2 0 01.24-.06.13.13 0 01.09.13c0 .4.06.8.07 1.2s.08.91.11 1.37v.33a.44.44 0 00.25.45c.07.05.11.12.07.17s-.11.07-.19 0l-.53-.22-.51-.19a.25.25 0 01-.12-.08.15.15 0 010-.13c0-.06.06-.07.1-.07zM9.29 46.59c.3-.66.51-1.33.77-2a13.94 13.94 0 00-2 .6c0 .13.19.21.09.37s-.13 0-.19 0l-.67-.72c-.11-.11-.11-.13 0-.27l.16.1a.44.44 0 00.33.11l.54-.09a1.83 1.83 0 00.46-.12l.61-.16.35-.1 1-.33A.16.16 0 0111 44c.08.09.08.12 0 .23-.11.27-.21.53-.31.8s-.22.54-.32.81-.11.3-.16.45-.18.43-.25.64a.42.42 0 000 .43.41.41 0 01.07.11.17.17 0 010 .18h-.21l-.62-.75-.26-.28a.11.11 0 010-.15.11.11 0 01.16 0zM4.31 29.23h.19v.09c0 .52.08 1 .11 1.56V31a.13.13 0 01-.18 0 .14.14 0 010-.06l-.06-.27a.15.15 0 00-.16-.12h-.53l-.6.05-1.28.07c-.08 0-.12 0-.11.12a2.55 2.55 0 00.07.73.5.5 0 00.31.35.19.19 0 01.14.16c0 .13-.07.19-.19.14a1.46 1.46 0 00-.46-.1h-.12a.12.12 0 01-.09-.14.08.08 0 010-.05.47.47 0 000-.33v-1.74a3.53 3.53 0 00-.09-.81.43.43 0 00-.09-.22.26.26 0 010-.24c.13-.06.25 0 .38 0H2c.12.15.1.22-.07.28a.35.35 0 00-.26.31v.71c0 .24 0 .13.16.12l.94-.08h.12L4 29.77c.19 0 .25-.06.28-.28s.02-.16.03-.26zM3.74 35.65a4.35 4.35 0 01.1-.52.88.88 0 01.66-.64.66.66 0 01.48 0 1 1 0 01.49.37 2.12 2.12 0 01.31.62 2.35 2.35 0 01.13.74.41.41 0 01-.18.37 2.82 2.82 0 01-.42.23.11.11 0 01-.15 0 .2.2 0 010-.23l.21-.27a.87.87 0 000-1 .58.58 0 00-.37-.26h-.21a.57.57 0 00-.33.42 4.94 4.94 0 00-.12.77 1.2 1.2 0 01-.28.7.79.79 0 01-.9.17 1.5 1.5 0 01-.68-.81 3.66 3.66 0 01-.16-.73.23.23 0 01.14-.27l.35-.17a.13.13 0 01.18.18.85.85 0 00-.26.48 1 1 0 00.21.56.4.4 0 00.39.16.45.45 0 00.34-.37 3.73 3.73 0 01.11-.64zM2.64 22.15v.16l-.46.24a.47.47 0 00-.24.38V23a.5.5 0 00.3.64.33.33 0 00.37-.12 2.54 2.54 0 00.44-.52 1.54 1.54 0 01.67-.59.75.75 0 01.55 0 1 1 0 01.62.94v.48a1.93 1.93 0 01-.36.89.28.28 0 01-.24.15h-.47a.2.2 0 01-.14-.06c-.08-.07 0-.19.1-.24s.19-.05.28-.09a1.12 1.12 0 00.42-.33.87.87 0 000-.88.34.34 0 00-.17-.11.51.51 0 00-.49.08 2.4 2.4 0 00-.38.4 2.48 2.48 0 01-.63.62.8.8 0 01-1.09-.26 2 2 0 01-.12-.9 1.12 1.12 0 01.08-.26c.06-.19.13-.38.2-.57a.21.21 0 01.12-.19h.47a.36.36 0 01.17.07zM2.11 34.42a2.07 2.07 0 01-.11-.55l-.06-.27a2.3 2.3 0 00-.13-.5.36.36 0 010-.25c.14 0 .14 0 .2.1a.32.32 0 00.38.21 2.57 2.57 0 00.4-.08l.65-.18.56-.17.38-.1c.22-.06.25-.11.22-.34s0-.13.12-.21.1.09.12.17L5 33l.15.58a.13.13 0 01-.09.15.09.09 0 01-.06-.07v-.09c-.07-.2-.11-.23-.31-.19l-.44.1-.48.11-.3.08-.58.13-.41.14a.14.14 0 00-.12.18v.14c-.06.15-.07.17-.25.16zM12.39 45.44h.12l.5.43.47.38.14.14c.05.06 0 .11 0 .16s-.09 0-.13 0l-.15-.1a.19.19 0 00-.25.06l-.54.62-.66.79-.29.36a.21.21 0 000 .28l.09.09a.14.14 0 010 .2h-.17l-.95-.8-.11-.1a.14.14 0 010-.19h.24c.11.09.17.09.27 0a2.91 2.91 0 00.3-.31l.5-.61.53-.63.22-.3a.12.12 0 000-.17l-.11-.12a.17.17 0 01-.02-.18zM43.61 7.78c-.42.15-.81.35-1.2.52s-.78.38-1.17.58l-.17-.09v-.33a10.19 10.19 0 01.16-1.22l.12-.94v-.07c0-.07-.1 0-.13.09l-1 1.26c-.11.15-.1.2 0 .34s.06 0 .08.08.08.12 0 .18a.15.15 0 01-.18 0L40 8l-.58-.42s-.07 0-.08-.06a.24.24 0 010-.12.22.22 0 01.1-.05h.14c.22.09.27.08.41-.09l.57-.68L41 6c.1-.12.2-.25.29-.38a.27.27 0 000-.39l-.1-.1c-.06-.07-.06-.12 0-.18s.1 0 .16 0l.51.37.29.2.1.1A3.31 3.31 0 0042 6.78a9.82 9.82 0 01-.12 1.09 1.22 1.22 0 000 .27l.48-.21c.26-.12.53-.23.79-.36l.94-.47a.15.15 0 01.2 0l.7.52c.12.08.12.08 0 .22s-.2 0-.29-.08-.2-.07-.31.06-.27.36-.39.54c-.26.38-.5.75-.75 1.13l-.15.23a.16.16 0 000 .22l.12.14a.15.15 0 010 .18.14.14 0 01-.17 0l-1-.74a.18.18 0 01-.05-.09.15.15 0 010-.13h.12l.13.06c.14.07.17.07.25 0l.25-.36.75-1.06zM23.58 1.73h.6a1.62 1.62 0 011.18.64 1.23 1.23 0 01.26.66v.2a1.34 1.34 0 01-.41 1 2.19 2.19 0 01-1 .6 10.77 10.77 0 01-1.13.23c-.32.06-.65.1-1 .14-.09 0-.2.06-.27-.06s0-.1 0-.13l.19-.07a.2.2 0 00.18-.22v-.19a5.31 5.31 0 00-.13-.89 4.86 4.86 0 00-.11-.64v-.14a.83.83 0 00-.07-.41.15.15 0 00-.1-.09h-.2s-.1 0-.11-.07 0-.12.06-.15h.06c.3 0 .58-.15.89-.16a3.45 3.45 0 00.56-.1zm-.95.42a1.14 1.14 0 000 .45c.06.35.1.71.15 1.07s.09.48.12.72a.43.43 0 00.53.33l.32-.07a1.6 1.6 0 00.62-.32 1.07 1.07 0 00.35-.68 1.58 1.58 0 00-.18-1 1.07 1.07 0 00-.25-.31 1.45 1.45 0 00-.83-.34 3.41 3.41 0 00-.46.1zM35.3 4.2v.13l.12.3c.1.22.18.44.29.65a1.08 1.08 0 00.49.56v.14a.86.86 0 01-.39 0 1.54 1.54 0 01-.61-.28 1.26 1.26 0 01-.2-.24 2.49 2.49 0 01-.29-.59 5.2 5.2 0 00-.21-.55.4.4 0 00-.27-.22c-.09 0-.13 0-.15.1-.06.26-.12.51-.19.77a.22.22 0 00.15.26l.18.09v.18H34l-.68-.18-.58-.14a.15.15 0 01-.06-.18.12.12 0 01.14-.09c.23 0 .27 0 .38-.23a2.4 2.4 0 00.14-.56l.12-.4a.57.57 0 01.07-.33c.07-.28.14-.55.2-.82s0-.22-.14-.27l-.13-.06a.09.09 0 010-.1.07.07 0 01.07-.07h.1l.62.09h.14a1.78 1.78 0 01.58.15 2.27 2.27 0 011 .51.58.58 0 01.19.46.67.67 0 01-.19.59 1.09 1.09 0 01-.51.24zm-.54-.3a.49.49 0 00.17 0 .65.65 0 00.39-.82.68.68 0 00-.18-.26 3 3 0 00-.4-.21c-.1 0-.16 0-.19.1l-.21.75a1.36 1.36 0 01-.07.25.08.08 0 000 .11zM30.33 1.46a2.11 2.11 0 01.75.08 1.91 1.91 0 01.8.47c.08.09.17.17.24.26a1.26 1.26 0 01.24.8 2.52 2.52 0 01-.09.67.56.56 0 01-.09.17 1.82 1.82 0 01-.89.73A2.7 2.7 0 0129 4.42a1.67 1.67 0 01-.66-.8 1.75 1.75 0 01-.05-.85 1.4 1.4 0 01.55-.87 1.92 1.92 0 01.5-.29 1.88 1.88 0 01.81-.15zM29.15 3a1.81 1.81 0 00.22.94.8.8 0 00.52.48 1.4 1.4 0 00.81.06 1 1 0 00.6-.48 1.52 1.52 0 00.19-.58 1.8 1.8 0 00-.14-1 1.06 1.06 0 00-.46-.54 1.08 1.08 0 00-1.07-.06 1.05 1.05 0 00-.48.43 1.77 1.77 0 00-.19.75zM18.28 3.45a.71.71 0 00.1.14l1.18 1.17.22.21c.13-.72.21-1.41.28-2.11h-.25a.15.15 0 01-.15-.11c0-.07 0-.1.08-.12l.26-.07.62-.23a.32.32 0 01.27 0c0 .14 0 .17-.08.23a.56.56 0 00-.33.5c0 .32-.12.64-.14 1a4.51 4.51 0 01-.1.53v.21l-.06.32c0 .26-.05.52-.07.78-.06.1-.11.1-.11.1a.17.17 0 01-.19 0c-.36-.37-.73-.72-1.1-1.08l-.71-.7-.3-.3a.41.41 0 00-.44-.13h-.09c-.05 0-.11 0-.12-.09a.12.12 0 01.1-.14l.85-.28.37-.13h.1c.06 0 .11 0 .13.07a.11.11 0 010 .14zM16.7 7.08l.24-.08h.11c.06 0 .12 0 .15.07s0 .11-.08.15l-.28.16-1.06.62c-.06 0-.1.06-.16 0s-.09-.11 0-.18l.19-.14c.14-.1.16-.16.08-.31l-.27-.48c-.09-.16-.23-.38-.34-.58s-.37-.61-.56-.92a.39.39 0 00-.08-.1 3.31 3.31 0 00-.72.44.44.44 0 00-.1.19 2.74 2.74 0 00-.05.28v.09a.33.33 0 01-.16.07c-.07 0-.09-.08-.11-.15s-.07-.36-.11-.53 0-.2.14-.17a.25.25 0 00.27-.07l.73-.44 1.07-.63.48-.37.09-.11.09-.12a.11.11 0 01.15 0 1.71 1.71 0 00.25.57c.05.06 0 .11 0 .16a.15.15 0 01-.18 0l-.14-.12a.41.41 0 00-.45 0l-.56.33a.33.33 0 000 .14l1 1.72a1 1 0 00.37.51zM39.84 4.64l-.12-.11-.07-.06a.13.13 0 010-.18c0-.07.1 0 .16 0 .22.12.44.24.67.35a1.51 1.51 0 01.22.11.11.11 0 01.09.15.13.13 0 01-.16.07.7.7 0 00-.68.16c-.39.29-.8.55-1.2.84s-.71.53-1.06.8c-.06 0-.11.1-.19.06a.23.23 0 01-.14-.23 3.84 3.84 0 000-.48V3.79a2.25 2.25 0 00-.06-.36.3.3 0 00-.09-.13l-.14-.12a.1.1 0 010-.14h.14a4.82 4.82 0 01.44.21l.65.34.12.06c.07 0 .07.07.06.13s0 .08-.11.08h-.27V5.9h.1l.35-.27.73-.54zM14.24 8.45a1 1 0 01-.28.7 2.51 2.51 0 01-.64.53 3.88 3.88 0 01-.56.23.15.15 0 01-.13 0 1.11 1.11 0 01-.47-.39.18.18 0 010-.22h.21l.36.11a.62.62 0 00.59-.07.81.81 0 00.41-.46.41.41 0 00-.21-.47.68.68 0 00-.52-.1 5.54 5.54 0 00-.56.11 2.44 2.44 0 01-.54 0 .71.71 0 01-.63-.49.79.79 0 010-.64 1.46 1.46 0 01.54-.66c.17-.12.37-.21.54-.33a.29.29 0 01.37 0 4.12 4.12 0 01.28.31c.06.07 0 .13 0 .19s-.1 0-.16 0a.73.73 0 00-.54-.1.8.8 0 00-.59.51.36.36 0 00.18.41.49.49 0 00.42.08 5.5 5.5 0 01.69-.11 1.65 1.65 0 01.7 0 .85.85 0 01.52.77zM27.83 4.41v.15l-1.42.07c-.12 0-.14 0-.15-.19l.19-.07c.17 0 .23-.1.24-.27a1 1 0 000-.24 7.53 7.53 0 01-.05-1.06v-.56a1.22 1.22 0 00-.06-.47.13.13 0 00-.12-.11h-.13c-.16 0-.19 0-.16-.21h.08l.89-.05h.48c.11 0 .12 0 .19.12a.18.18 0 01-.17.12c-.23 0-.23 0-.28.32a1.82 1.82 0 000 .33v.83l.06 1c0 .13 0 .17.16.2zM24.31 51a7.62 7.62 0 01-.14.94c0 .31-.11.72-.16 1.08a4.21 4.21 0 01-.11.6v.24a.12.12 0 01-.12.12h-.39c-.14 0-.16 0-.14-.19s.08-.34.11-.51.05-.28.07-.41l.09-.61a2.41 2.41 0 01.08-.44c0-.15 0-.21.05-.32a3 3 0 00.08-.51.15.15 0 01.15-.13.86.86 0 01.38.06.1.1 0 01.05.08zM31.27 50.87l.63-.13a1.17 1.17 0 01.1.26c.07.33.13.66.19 1l.12.67c.06.26.13.52.18.79a1.13 1.13 0 010 .42 2.3 2.3 0 01-.64.09zM46.15 13.22l-.09-.08c-.08-.1-.16-.19-.23-.29s-.07-.13 0-.22l.29-.27 1-.87.88-.74c.11-.09.12-.09.21 0l.27.32a.11.11 0 010 .14l-.39.34-.33.28-.92.78c-.19.17-.39.33-.59.49zM52.79 18.79l-1.09.39-.8.27-.84.32c-.2.06-.22.07-.3-.13a2.88 2.88 0 01-.13-.31c0-.1 0-.13.08-.17l.73-.27.72-.27 1.05-.36.28-.09a.12.12 0 01.14.06c.06.14.11.27.16.41a.38.38 0 010 .15zM2.9 18.73l.24-.6c.16-.05.29.05.43.08a3.47 3.47 0 01.41.16l1.13.41.72.24.23.1a.09.09 0 01.05.12.18.18 0 01-.05.15l-.06.27c0 .11-.09.12-.2.08l-.65-.23-1.23-.42-.56-.21zM10 12.67a2.21 2.21 0 01-.44.52l-.46-.38-.89-.81-.92-.79c-.11-.1-.11-.1 0-.22l.24-.33c.07-.09.11-.09.19 0l1.22 1c.32.28.64.56 1 .83zM28.53 10.8a.47.47 0 01-.48.18.17.17 0 010-.1c0-.19.08-.3.26-.24z"/>
          <path d="M27.8.5A27.3 27.3 0 11.5 27.8 27.34 27.34 0 0127.8.5m0-.5a27.8 27.8 0 1027.8 27.8A27.8 27.8 0 0027.8 0z"/>
        </g>
      </g>
    </g>
  </g>
</svg>
