<?xml version="1.0" encoding="UTF-8"?> <svg xmlns="http://www.w3.org/2000/svg" viewBox="0 0 234.39 55.6"><title>Università di CagliariRisorsa 29</title><g id="Livello_2" data-name="Livello 2"><g id="DIDATTICA_Offerta_formativa" data-name="DIDATTICA Offerta formativa"><path d="M75.07,19.46h2.41V30.75a7.16,7.16,0,0,1-5.33,1.88c-3.4,0-5.31-1.66-5.31-5.05V19.46h2.42v6.73c0,3.23.66,4.28,3.28,4.28a4.64,4.64,0,0,0,2.53-.68Z" style="fill:#1d1d1b"></path><path d="M85.66,32.33V27.69c0-1.43-.19-2.35-1.53-2.35a2.67,2.67,0,0,0-1.85,1v6H80.05V23.64h2.23v.89A4.11,4.11,0,0,1,85,23.39c1.85,0,2.86.95,2.86,3.12v5.82Z" style="fill:#1d1d1b"></path><path d="M89.93,20.8a1.4,1.4,0,1,1,1.39,1.4A1.33,1.33,0,0,1,89.93,20.8Zm.29,11.53V23.64h2.22v8.69Z" style="fill:#1d1d1b"></path><path d="M97.78,32.5l-4.16-8.86H96l1.84,4.28a11.54,11.54,0,0,1,.44,1.16h0a9.58,9.58,0,0,1,.42-1.16l1.8-4.28H103L98.87,32.5Z" style="fill:#1d1d1b"></path><path d="M112.13,31.51a6.15,6.15,0,0,1-3.72,1.07c-2.88,0-4.81-1.78-4.81-4.57a4.48,4.48,0,0,1,4.64-4.62c2.82,0,4.21,2.14,4.21,4.59v.84h-6.61c.24,1.62,1.7,2,3.06,2a4,4,0,0,0,2.58-.85Zm-1.91-4.35a2,2,0,0,0-2-2,2.34,2.34,0,0,0-2.41,2Z" style="fill:#1d1d1b"></path><path d="M114.24,32.33V23.64h2.21V25c.2-.44.88-1.62,1.9-1.62a2.81,2.81,0,0,1,1.57.43l-.77,2.09a2,2,0,0,0-1.19-.44c-1,0-1.51,1.19-1.51,2.05v4.8Z" style="fill:#1d1d1b"></path><path d="M121.28,29.9a4,4,0,0,0,2.39,1c.53,0,1.14-.22,1.14-1,0-1.16-3.74-1.74-3.74-4a2.78,2.78,0,0,1,3-2.59,4.62,4.62,0,0,1,3,1l-.8,1.53a2.87,2.87,0,0,0-1.78-.84c-.58,0-1.07.29-1.07.79,0,1.32,3.67,1.59,3.67,4,0,1.68-1.28,2.74-3.26,2.74a5.63,5.63,0,0,1-3.37-1.11Z" style="fill:#1d1d1b"></path><path d="M128.74,20.8a1.4,1.4,0,1,1,1.39,1.4A1.33,1.33,0,0,1,128.74,20.8ZM129,32.33V23.64h2.22v8.69Z" style="fill:#1d1d1b"></path><path d="M134.52,32.33V25.41h-1.65V23.66h1.65V20.72h2.23v2.94h2.14v1.75h-2.14v6.92Z" style="fill:#1d1d1b"></path><path d="M147.54,31.51a6.33,6.33,0,0,1-3.94,1.07c-2.67,0-3.9-1.48-3.9-3.16,0-2,1.91-2.74,3.54-2.74a4.46,4.46,0,0,1,2.17.58v-.88c0-.72-.52-1.21-1.71-1.21a6.36,6.36,0,0,0-2.42.51l-.64-1.56a7.28,7.28,0,0,1,3.24-.73c2.89,0,3.66,1.37,3.66,3.51Zm-3-9.09-3.44-2.84,1.8-1.36,2.69,3.41Zm.91,6.47a3,3,0,0,0-1.8-.63c-.85,0-1.61.43-1.61,1.19,0,.91.68,1.48,1.77,1.48a3.41,3.41,0,0,0,1.64-.35Z" style="fill:#1d1d1b"></path><path d="M159.88,18.39h2.23V31.53a7.37,7.37,0,0,1-3.83,1,4.48,4.48,0,0,1-4.79-4.49,4.44,4.44,0,0,1,4.55-4.7,3.37,3.37,0,0,1,1.84.51Zm0,7.51a2.59,2.59,0,0,0-1.77-.66c-1.39,0-2.27,1.17-2.27,2.85a2.5,2.5,0,0,0,2.44,2.67,3.05,3.05,0,0,0,1.6-.37Z" style="fill:#1d1d1b"></path><path d="M164.18,20.8a1.34,1.34,0,0,1,1.4-1.39A1.32,1.32,0,0,1,167,20.8a1.34,1.34,0,0,1-1.39,1.4A1.35,1.35,0,0,1,164.18,20.8Zm.29,11.53V23.64h2.23v8.69Z" style="fill:#1d1d1b"></path><path d="M184.75,30.9a6.33,6.33,0,0,1-4.66,1.72,6.89,6.89,0,0,1-7.15-6.72,6.7,6.7,0,0,1,6.93-6.73A6.35,6.35,0,0,1,184.65,21l-1.28,1.67a5,5,0,0,0-3.62-1.34c-2.5,0-4.23,1.95-4.23,4.62a4.52,4.52,0,0,0,4.59,4.47,5.27,5.27,0,0,0,3.54-1.12Z" style="fill:#1d1d1b"></path><path d="M193.74,31.51a6.31,6.31,0,0,1-3.94,1.07c-2.67,0-3.89-1.48-3.89-3.16,0-2,1.9-2.74,3.53-2.74a4.47,4.47,0,0,1,2.18.58v-.88c0-.72-.53-1.21-1.72-1.21a6.3,6.3,0,0,0-2.41.51l-.65-1.56a7.33,7.33,0,0,1,3.25-.73c2.89,0,3.65,1.37,3.65,3.51Zm-2.12-2.62a3.09,3.09,0,0,0-1.8-.63c-.85,0-1.62.43-1.62,1.19,0,.91.68,1.48,1.77,1.48a3.46,3.46,0,0,0,1.65-.35Z" style="fill:#1d1d1b"></path><path d="M201.72,31.65a3.33,3.33,0,0,1-2.2.93,4.29,4.29,0,0,1-4.08-4.6,4.52,4.52,0,0,1,4.82-4.59,7.41,7.41,0,0,1,3.68.81v8.54A3.86,3.86,0,0,1,199.75,37a7.55,7.55,0,0,1-4-1.07l.92-1.65a5.4,5.4,0,0,0,3,.9,1.86,1.86,0,0,0,2-2.09Zm0-6.16a4.07,4.07,0,0,0-1.38-.27A2.43,2.43,0,0,0,197.81,28c0,1.18.64,2.77,2.11,2.77a2,2,0,0,0,1.8-.94Z" style="fill:#1d1d1b"></path><path d="M206.24,32.33V18.39h2.23V32.33Z" style="fill:#1d1d1b"></path><path d="M210.56,20.8A1.4,1.4,0,1,1,212,22.2,1.33,1.33,0,0,1,210.56,20.8Zm.29,11.53V23.64h2.22v8.69Z" style="fill:#1d1d1b"></path><path d="M222.66,31.51a6.33,6.33,0,0,1-3.94,1.07c-2.67,0-3.9-1.48-3.9-3.16,0-2,1.91-2.74,3.54-2.74a4.5,4.5,0,0,1,2.18.58v-.88c0-.72-.53-1.21-1.72-1.21a6.3,6.3,0,0,0-2.41.51l-.65-1.56a7.3,7.3,0,0,1,3.25-.73c2.89,0,3.65,1.37,3.65,3.51Zm-2.12-2.62a3.1,3.1,0,0,0-1.81-.63c-.85,0-1.61.43-1.61,1.19,0,.91.68,1.48,1.77,1.48a3.46,3.46,0,0,0,1.65-.35Z" style="fill:#1d1d1b"></path><path d="M224.84,32.33V23.64h2.21V25c.2-.44.88-1.62,1.9-1.62a2.81,2.81,0,0,1,1.57.43l-.77,2.09a2,2,0,0,0-1.19-.44c-1,0-1.51,1.19-1.51,2.05v4.8Z" style="fill:#1d1d1b"></path><path d="M231.6,20.8a1.34,1.34,0,0,1,1.4-1.39,1.32,1.32,0,0,1,1.39,1.39A1.34,1.34,0,0,1,233,22.2,1.35,1.35,0,0,1,231.6,20.8Zm.29,11.53V23.64h2.23v8.69Z" style="fill:#1d1d1b"></path><path d="M26.52,0H29l.13,0,.63,0,.85.09c.31,0,.64,0,1,.09l.49.06.71.13.15,0,.84.17.37.08L35.23,1c.15,0,.29.07.43.12a3,3,0,0,0,.39.13,7.41,7.41,0,0,1,.8.25c.3.09.59.21.89.33s.56.21.83.33l.69.31c.25.11.51.21.75.34l1.18.61.42.23.92.56.83.54.78.55c.2.14.42.28.61.44.47.38.94.77,1.39,1.17s.63.56.92.85.79.78,1.17,1.19.64.7.94,1.06.51.63.76,1l.72,1,.53.78.35.56.27.47c.18.31.36.61.52.93s.36.71.54,1.07.21.44.31.66.21.49.32.74l.21.53c.09.22.16.44.24.65l.25.72.18.54c.05.16.11.32.15.47.12.45.23.89.35,1.33,0,.13.05.25.08.37s.07.37.11.55.07.32.09.47.05.4.08.6.1.51.13.76c.06.52.1,1,.15,1.54,0,.1,0,.19,0,.28V29.5c0,.15,0,.31,0,.46,0,.34-.06.69-.1,1s-.07.5-.11.75l-.15,1.12a.11.11,0,0,1,0,0c0,.16-.07.32-.11.48a2.61,2.61,0,0,0-.06.27c0,.16-.06.33-.09.49s-.14.49-.2.73l-.21.75c-.11.4-.23.79-.36,1.18s-.28.75-.42,1.12-.31.77-.48,1.15-.46,1-.71,1.47-.37.69-.57,1-.25.42-.38.63c-.25.41-.51.81-.77,1.22l-.19.27-.54.72c-.24.31-.47.62-.72.93s-.34.39-.52.59c-.34.37-.68.75-1,1.12l-.29.3-.47.48-.77.7-.47.41-.6.49-.72.57-.94.66c-.36.24-.72.49-1.09.72s-.87.51-1.31.76-.66.35-1,.51L39,53.2l-.6.25-.42.17c-.18.07-.36.15-.54.21s-.53.18-.79.27l-.44.16-.84.23c-.31.08-.61.17-.92.24l-.86.2-.73.16-.6.1a7.79,7.79,0,0,1-1,.12l-.12,0a8.78,8.78,0,0,1-1.15.11h-.15l-.13,0H26l-.15,0-1.05-.08L24,55.29h0l-.72-.12-.56-.1L22.15,55l-.8-.16-.73-.2-.52-.14-.55-.18L18.76,54c-.41-.14-.81-.3-1.21-.45s-.63-.25-.93-.39l-.91-.44-1-.49c-.4-.21-.79-.43-1.19-.66L12.67,51l-1-.7L11.22,50c-.34-.26-.67-.51-1-.78s-.37-.31-.55-.47-.58-.51-.87-.78-.47-.46-.7-.7-.63-.62-.92-1a14.84,14.84,0,0,1-1-1.14c-.2-.28-.43-.53-.63-.8s-.57-.78-.84-1.18S4.24,42.43,4,42s-.35-.57-.51-.86-.36-.71-.53-1.06l-.33-.68-.3-.68c-.11-.27-.23-.54-.34-.82s-.15-.48-.26-.71-.21-.64-.33-.95c-.06-.15-.1-.31-.15-.47s-.08-.3-.13-.45S1.06,35.13,1,35l-.12-.43-.09-.35c0-.16-.08-.31-.11-.47L.62,33.3c0-.22-.09-.44-.13-.66s-.06-.37-.08-.55-.09-.6-.13-.9c0,0,0-.09,0-.13-.05-.38-.09-.77-.12-1.15s-.06-.45-.09-.68v-3l.09-.52c0-.15,0-.29,0-.44s.09-.49.11-.73a9.11,9.11,0,0,1,.14-1.17c.09-.39.1-.78.22-1.16s.14-.66.21-1,.13-.54.2-.8.14-.51.22-.76l.42-1.27c.09-.27.19-.54.3-.8s.24-.56.36-.84.2-.49.32-.74c.2-.43.41-.85.63-1.28s.35-.62.53-.93.4-.68.61-1c.33-.5.67-1,1-1.49A20.62,20.62,0,0,1,6.82,9.62c.32-.36.64-.72,1-1.07S8.58,7.78,9,7.41s.62-.58.94-.86.51-.41.77-.61.35-.3.53-.43.49-.34.73-.51.48-.36.74-.52.76-.47,1.15-.69.55-.32.83-.47l.8-.41c.39-.19.77-.38,1.16-.55s.56-.23.84-.34l.79-.32L19,1.45c.31-.1.61-.22.92-.31s.6-.17.91-.25l.32-.08.73-.17a3.89,3.89,0,0,0,.47-.09A3.87,3.87,0,0,1,23,.43l.13,0c.17,0,.34-.08.52-.1s.5-.06.76-.08l.16,0L25.44.1c.15,0,.31,0,.47,0ZM50,27.8a9.49,9.49,0,0,0-.05-1.51c0-.32,0-.64-.08-1s0-.37-.06-.55-.08-.59-.13-.88-.11-.52-.16-.78-.12-.55-.2-.82-.13-.53-.22-.79-.1-.38-.16-.56-.17-.49-.27-.73-.2-.55-.31-.83-.2-.48-.31-.72-.34-.75-.53-1.12-.39-.72-.61-1.07-.48-.78-.73-1.16l-.54-.77c-.18-.23-.37-.44-.54-.68-.36-.48-.78-.91-1.18-1.35-.24-.25-.49-.5-.75-.74a10.16,10.16,0,0,0-.76-.7,18.44,18.44,0,0,0-1.54-1.23c-.34-.22-.67-.48-1-.7l-1.44-.86-.06,0L37.8,8l-.6-.29-.92-.41-.34-.14-.7-.26-.52-.18-.79-.25-.57-.15-.5-.11-.45-.1L32,6l-.62-.11c-.29,0-.59-.09-.89-.12l-1-.09c-.13,0-.27,0-.41,0-.46,0-.92-.05-1.38-.05s-.94,0-1.41.06c-.21,0-.42,0-.62,0l-.92.13c-.35.05-.7.09-1.05.16s-.8.17-1.2.26a2.49,2.49,0,0,0-.35.08l-.85.26c-.37.12-.75.23-1.12.36s-.53.22-.8.33l-.92.4-1.16.58c-.34.18-.67.38-1,.58s-.46.3-.69.45l-.78.51c-.19.13-.37.28-.55.42l-.55.44-.91.8c-.16.14-.32.28-.47.43l-.5.52-.61.65-.23.27c-.25.3-.5.59-.74.89s-.35.48-.53.73-.35.47-.51.72c-.25.41-.5.83-.73,1.25s-.47.84-.68,1.27-.43,1-.63,1.49c-.13.32-.25.66-.36,1s-.22.69-.33,1c0,.13-.07.26-.1.39-.08.33-.17.66-.25,1l-.12.51c0,.16-.06.32-.08.47s-.06.5-.08.75c0,0,0,0,0,.06,0,.21-.08.41-.09.62,0,.42-.07.83-.07,1.25,0,.74,0,1.47,0,2.21,0,.19,0,.39.06.58s.05.64.08,1c0,0,0,0,0,.05,0,.23.07.46.11.69s0,.41.09.62c.08.39.17.79.27,1.18,0,.24.12.48.19.72s.09.29.14.44.15.51.24.77.27.66.38,1,.33.83.52,1.24.52,1,.79,1.5c.12.22.25.44.39.65s.35.56.53.83.23.33.35.5l.49.66c.19.24.39.47.59.7s.42.5.64.73.36.38.55.57l.5.51c.29.26.57.51.87.76s.61.5.93.75c.13.11.28.2.41.3s.46.35.7.51.53.33.8.49l.43.25.57.32.59.3c.16.08.32.18.49.25s.56.24.83.35.42.2.64.28.69.22,1,.35.76.25,1.14.36l.34.08.4.11.79.15.68.12.15,0c.37,0,.74.13,1.12.17s.89.06,1.34.08a14.25,14.25,0,0,0,2,0c.5,0,1-.07,1.49-.12l1.28-.16h0l.5-.11.32-.07.52-.12.4-.1.42-.1.31-.1c.14,0,.28-.07.42-.12l.91-.31c.16-.05.31-.12.46-.18l.5-.22c.27-.11.54-.21.8-.33s.42-.22.63-.32.51-.26.75-.4l.94-.54c.12-.07.24-.14.35-.22l.74-.52c.33-.24.67-.49,1-.75s.62-.51.92-.78.4-.34.59-.52.45-.45.67-.68.37-.39.54-.59c.32-.37.63-.74.94-1.12s.39-.51.58-.78.32-.48.49-.72l.35-.55c.09-.16.18-.32.28-.48l.28-.47c.21-.4.42-.8.61-1.21s.24-.54.35-.81l.28-.66c.12-.34.23-.68.35-1,0-.12.1-.23.13-.34.09-.33.18-.66.26-1a2.34,2.34,0,0,0,.09-.38l.09-.37c.07-.33.14-.65.2-1,0-.16,0-.34.08-.5a5.46,5.46,0,0,0,.13-.89l0-.35c0-.29.07-.59.08-.89S50,28.2,50,27.8Zm5-.37c0-.14,0-.42,0-.7,0-.56,0-1.11-.09-1.66a.28.28,0,0,0,0-.09c0-.25-.07-.51-.11-.77s-.07-.54-.12-.8c-.07-.42-.16-.84-.23-1.26s-.13-.59-.2-.88a.53.53,0,0,0-.33-.38,2.2,2.2,0,0,0-.62-.23,3.28,3.28,0,0,0-.7-.1c-.08,0-.16,0-.24,0a3,3,0,0,0-.84.18,3.33,3.33,0,0,0-.86.44,2.28,2.28,0,0,0-.68.77.28.28,0,0,0,0,.19c0,.1,0,.2.09.3a2,2,0,0,1,.11.53.5.5,0,0,0,0,.12c.06.24.12.49.17.74s.08.55.12.82a16.2,16.2,0,0,1,.18,2c0,.47,0,1,0,1.43s0,1.19-.11,1.79c0,.2,0,.41,0,.61-.06.46-.14.92-.21,1.38,0,.14-.05.27-.08.41s-.07.38-.11.56-.11.41-.16.61c-.1.39-.21.78-.31,1.17,0,.17-.12.34-.18.51s-.16.49-.25.73-.23.53-.34.8-.19.45-.29.67-.23.48-.35.72l-.3.6c-.12.22-.25.44-.38.65s-.27.43-.4.64-.32.52-.49.77-.47.65-.71,1-.5.64-.77.94-.47.53-.72.79-.6.62-.92.93-.51.46-.77.69-.59.51-.89.75-.6.44-.9.66l-.76.49-.33.21-.95.56c-.31.18-.63.35-1,.51l-.67.32-.86.37L36,49c-.21.08-.43.17-.65.24l-.45.14c-.27.08-.53.18-.8.25a.42.42,0,0,0-.29.24c0,.08,0,.16-.08.24a2,2,0,0,0-.16.77,3.63,3.63,0,0,0,.2,1.27,3,3,0,0,0,.49.94,2.31,2.31,0,0,0,.81.68.48.48,0,0,0,.26,0,2.26,2.26,0,0,0,.43-.11l.9-.3,1.11-.39.71-.3,1.1-.49.75-.36.65-.35.44-.26c.41-.24.83-.48,1.23-.73s.51-.36.77-.54.65-.45,1-.7c.59-.46,1.18-.94,1.73-1.45l.75-.69.77-.81.8-.91.23-.27c.1-.12.22-.24.32-.37s.34-.45.51-.68.37-.46.54-.71.52-.78.77-1.18.33-.53.49-.79l.21-.36.51-1c.13-.25.26-.49.38-.74s.33-.75.49-1.13.25-.61.36-.92.18-.47.26-.71.19-.53.27-.8.16-.54.23-.81l.18-.65c0-.19.1-.39.14-.58a5.59,5.59,0,0,0,.12-.56c0-.19.07-.37.1-.56s0-.17,0-.26c.05-.3.11-.6.15-.9s.1-.76.14-1.14.06-.88.08-1.32S55,28.05,55,27.43ZM.66,27.78h0c0,.26,0,.53,0,.79,0,.63.06,1.25.09,1.88,0,0,0,.05,0,.08,0,.23.09.47.11.7a9,9,0,0,0,.14,1c.08.39.11.8.22,1.18.06.2.09.41.13.6s.1.32.14.48c.08.31.15.63.24.94s.12.43.2.65.21.61.33.91.27.72.41,1.08.29.65.43,1,.23.52.36.78.31.59.48.88c.3.53.61,1.05.93,1.57S5.59,43.38,6,43.88s.58.75.88,1.12.49.59.74.88l.56.6.62.63.22.22c.18.17.36.36.55.52.37.33.74.65,1.13,1s.78.63,1.19.92.72.5,1.09.74.52.37.79.53c.46.27.92.52,1.39.78a10.57,10.57,0,0,0,1.12.55c.52.22,1,.46,1.56.69.21.09.42.16.64.24l1,.37c.26.08.54.14.8.23a.44.44,0,0,0,.47-.06,2.9,2.9,0,0,0,.93-1,4.38,4.38,0,0,0,.37-.9,3.84,3.84,0,0,0,.09-1.07,3.31,3.31,0,0,0-.08-.55,2.14,2.14,0,0,0-.16-.39.27.27,0,0,0-.11-.1l-.4-.13-.87-.26-.43-.16c-.3-.11-.6-.2-.89-.32s-.76-.34-1.13-.51S17.37,48,17,47.84s-.63-.35-.94-.54-.58-.35-.86-.54l-.81-.56-.61-.46-.47-.39c-.28-.23-.56-.46-.82-.7s-.45-.43-.67-.66-.63-.62-.93-.94-.48-.55-.7-.83-.42-.51-.61-.77-.29-.44-.45-.64a14.43,14.43,0,0,1-.93-1.42,7.67,7.67,0,0,1-.45-.79c-.17-.33-.33-.66-.49-1s-.3-.6-.43-.91-.32-.79-.46-1.2-.2-.58-.29-.88l-.27-.88c0-.13-.07-.26-.1-.39s-.11-.41-.16-.61-.08-.45-.13-.67l-.09-.46-.09-.66c0-.24-.08-.47-.11-.72s-.06-.74-.07-1.11c0-.63,0-1.26,0-1.89a13.07,13.07,0,0,1,.08-1.53c0-.19,0-.38.06-.56l.15-1.24a.13.13,0,0,0,0-.06c0-.2.09-.39.14-.58s.08-.37.13-.55.09-.31.12-.46a.42.42,0,0,0,0-.25,2.07,2.07,0,0,0-.82-.89,3.78,3.78,0,0,0-1-.44c-.2,0-.39-.08-.59-.1a2.67,2.67,0,0,0-1.49.29c-.19.1-.38.19-.38.45a9.59,9.59,0,0,0-.27,1.18A3.58,3.58,0,0,0,1.1,23c-.06.31-.13.62-.17.94s-.1.81-.14,1.22c0,.25-.06.5-.07.74ZM27.91.6v0h-.5c-.4,0-.81,0-1.21,0s-.88.08-1.31.12l-.83.09-.48.07-1,.18a2,2,0,0,1-.23.06l-.46.09c-.13,0-.27.05-.4.09l-.43.11-.34.08-.89.27-1,.32c-.14,0-.27.1-.4.15l-.82.31-.77.33c-.22.1-.45.18-.68.29s-.55.27-.82.41l-1.14.63c-.13.07-.26.14-.38.22l-.89.58c-.33.22-.66.43-1,.66s-.64.48-1,.73-.77.63-1.15,1-.61.58-.93.86a.29.29,0,0,0-.11.28A7.43,7.43,0,0,0,9,9.34a3.18,3.18,0,0,0,.5.9,3.86,3.86,0,0,0,.68.66,2.88,2.88,0,0,0,1,.51l.36.06a.51.51,0,0,0,.5-.12c.37-.34.72-.7,1.12-1s.76-.64,1.16-.94a21.11,21.11,0,0,1,1.85-1.22c.37-.22.75-.41,1.12-.61.12-.07.24-.15.36-.21l1-.46.89-.37.72-.26.4-.15.84-.25.61-.17c.16,0,.33-.08.49-.12l.44-.09.49-.1.5-.1.44-.06L25.6,5.1c.34,0,.68-.06,1-.07.55,0,1.09,0,1.64,0l1.34.06.88.08.77.09.46.07.84.18.75.15.32.09.6.18c.27.08.54.14.81.23l.87.33c.27.1.53.19.79.3s.59.26.88.4l1.11.56a6.65,6.65,0,0,1,.58.33c.4.24.8.47,1.19.73s.83.59,1.24.89A16.63,16.63,0,0,1,43,10.75l.66.62a.37.37,0,0,0,.16.09,1.6,1.6,0,0,0,.81-.1,2.2,2.2,0,0,0,.68-.35,7.68,7.68,0,0,0,.63-.5,3.58,3.58,0,0,0,.82-1.24,5.08,5.08,0,0,0,.15-.52.38.38,0,0,0-.17-.45l0,0c-.32-.3-.62-.6-.94-.88s-.89-.74-1.34-1.09-.67-.51-1-.76l-1-.65-1-.58c-.3-.17-.61-.35-.92-.51s-.85-.43-1.28-.64A3.13,3.13,0,0,0,39,3l-.72-.31-.81-.33-.86-.28-.8-.27-1-.32-.24,0a4.54,4.54,0,0,0-.81-.19,2.74,2.74,0,0,1-.37-.08l-.63-.12h-.13L31.89.92,31,.81c-.27,0-.53-.08-.81-.1Zm-5.2,49.3a3,3,0,0,1,.15,2.35,3.13,3.13,0,0,1-1.37,1.84c0,.09.08.09.13.1l1,.2c.42.08.85.14,1.27.21l.39.07,1,.11c0-.08-.05-.12-.07-.17a4.15,4.15,0,0,1-.32-.53,4.25,4.25,0,0,1-.2-.72,3.76,3.76,0,0,1,0-1.16,7.17,7.17,0,0,1,.18-.9.62.62,0,0,1,.07-.19,3,3,0,0,1,.35-.59.36.36,0,0,0,0-.11L24,50.18C23.61,50.1,23.19,50,22.71,49.9Zm11.51,4.21a3.12,3.12,0,0,1-1.41-1.86,3.35,3.35,0,0,1,.12-2.33s0,0-.07,0l-.65.15-.51.11-.52.08-.75.14a.18.18,0,0,0-.1,0,.25.25,0,0,0,0,.09,2.6,2.6,0,0,1,.51,1.12c0,.14,0,.29.08.43a1.57,1.57,0,0,1,.05.48,4.75,4.75,0,0,1-.06.84,4.81,4.81,0,0,1-.18.65,2.73,2.73,0,0,1-.37.64.23.23,0,0,0,0,.11l.19,0,1.2-.15.53-.08.56-.11,1-.16.3-.07S34.17,54.14,34.22,54.11ZM50,12.07l-.13-.18-.47-.61-.72-.9-.59-.7c-.16-.18-.32-.37-.48-.54A.81.81,0,0,0,47.52,9a3,3,0,0,1-.91,2.17,3.07,3.07,0,0,1-2.11,1.05c.15.2.32.34.46.5s.29.33.43.49.31.34.45.51a4.93,4.93,0,0,0,.43.52c0-.06.06-.09.08-.14a2.81,2.81,0,0,1,.65-.91,5,5,0,0,1,.86-.66,3.76,3.76,0,0,1,.79-.36,2.82,2.82,0,0,1,1.19-.13Zm3.86,8a18.74,18.74,0,0,0-.62-1.83c-.23-.6-.47-1.19-.71-1.78l0,0A3.24,3.24,0,0,1,51,18.07a3.52,3.52,0,0,1-2.2.5c-.06.07,0,.14,0,.21l.21.55c.1.26.21.51.29.77s.17.54.25.82l.07.2a3.06,3.06,0,0,1,1.94-1.3A3.31,3.31,0,0,1,53.9,20.06ZM1.81,20l0,0L2,20a2.2,2.2,0,0,1,.82-.27,1.56,1.56,0,0,1,.57,0,1.82,1.82,0,0,0,.33,0,3.17,3.17,0,0,1,1,.24,4.87,4.87,0,0,1,.56.28,2.19,2.19,0,0,1,.84.84l0,0A23.67,23.67,0,0,1,7,18.54H6.87a3.21,3.21,0,0,1-1.23-.13,6.15,6.15,0,0,1-1-.44,3.45,3.45,0,0,1-.5-.35c-.11-.09-.21-.21-.31-.31a2.12,2.12,0,0,1-.55-.83c0-.05,0-.07-.1-.05C2.66,17.61,2.2,18.8,1.81,20Zm7.66-5.78c.31-.34.56-.69.84-1s.59-.65.89-1a.35.35,0,0,0-.25-.09,2.56,2.56,0,0,1-.48-.1,3.05,3.05,0,0,1-.74-.38l-.19-.15a3.23,3.23,0,0,1-1-1.26,2.24,2.24,0,0,1-.26-1A2.3,2.3,0,0,0,8.2,9c-.89,1-1.7,2-2.5,3H6a3,3,0,0,1,1,.08,1.6,1.6,0,0,1,.31.1l.52.24a3.38,3.38,0,0,1,.6.38,1.59,1.59,0,0,1,.21.15,6,6,0,0,1,.54.59,1.25,1.25,0,0,1,.3.54S9.43,14.17,9.47,14.24ZM5.39,17.58v0a.91.91,0,0,0,.13.08l.7.14a2.33,2.33,0,0,0,.83-.08.76.76,0,0,0,.5-.32,3.9,3.9,0,0,1,.31-.4.3.3,0,0,1,0-.08.24.24,0,0,0-.15,0,.84.84,0,0,1-.51.08,1,1,0,0,1-.62-.33l-.09-.06A1.11,1.11,0,0,1,5.39,17.58ZM8.5,15.93a.37.37,0,0,0,.07-.1c.07-.16.14-.33.2-.49a.6.6,0,0,0,.06-.22,2.45,2.45,0,0,0-.1-.54,2.52,2.52,0,0,0-.39-.72,2.34,2.34,0,0,0-.49-.45,1.56,1.56,0,0,1,.12.74,1.33,1.33,0,0,1-.34.68C8.35,15.2,8.4,15.37,8.5,15.93ZM27.18,50.45H27a3.4,3.4,0,0,1-.46.06.65.65,0,0,0-.38.16c-.05,0-.08.09-.13.13a2.13,2.13,0,0,0-.58.92,3,3,0,0,0-.15.51s0,0,0,.1a1.24,1.24,0,0,1,.57-.54,1.43,1.43,0,0,1,.77-.06c0-.06,0-.1,0-.14s0-.2,0-.3a.78.78,0,0,1,.16-.51Zm3.06,1.78a.48.48,0,0,0,0-.12c-.06-.2-.11-.4-.19-.6a2.26,2.26,0,0,0-.61-.82.54.54,0,0,0-.41-.18l-.11,0-.41-.05s0,0-.07,0l.15.14a.79.79,0,0,1,.3.58,2.29,2.29,0,0,1,0,.37v.17A1.22,1.22,0,0,1,30.24,52.23ZM47.8,13.49h0a1.56,1.56,0,0,0-.2.16,3.34,3.34,0,0,0-.58.86,3.7,3.7,0,0,0-.14.55.15.15,0,0,0,0,.13l.31.75a2,2,0,0,1,.3-.68,1.24,1.24,0,0,1,.67-.35A1.2,1.2,0,0,1,47.8,13.49Zm0,3.51v0c.13.18.27.35.39.52a.43.43,0,0,0,.21.15,3.74,3.74,0,0,0,.66.16,3.15,3.15,0,0,0,1-.13,1.7,1.7,0,0,0,.21-.07l-.35-.1a1,1,0,0,1-.74-.71c0-.06,0-.11-.1-.11A1.15,1.15,0,0,1,47.8,17Zm1.05-4.11a1.24,1.24,0,0,1,1.06,1A1.08,1.08,0,0,1,51,13.46s0-.07,0-.08c-.16-.19-.27-.43-.54-.51a3.29,3.29,0,0,0-.77-.16A2.12,2.12,0,0,0,48.85,12.89ZM30.22,53.4a1.15,1.15,0,0,1-1.36.44c0,.22,0,.42,0,.62a1,1,0,0,1-.25.56,1.23,1.23,0,0,0,.75-.18,1.07,1.07,0,0,0,.16-.14A2.19,2.19,0,0,0,30.22,53.4ZM4.73,15.63a1.25,1.25,0,0,1-.88-.72l-.06,0a1,1,0,0,0-.18.51A1.9,1.9,0,0,0,3.7,16a2.59,2.59,0,0,0,.65,1l.14.09a1.38,1.38,0,0,1-.14-.76A1.32,1.32,0,0,1,4.73,15.63Zm-.07-2.26,0,0a1.58,1.58,0,0,1,.57.05,2.7,2.7,0,0,1,.5.33,3.76,3.76,0,0,1,.18-.35,1.37,1.37,0,0,1,.24-.29A1.06,1.06,0,0,1,6.5,13a1.9,1.9,0,0,1,.36-.08,1,1,0,0,0-.45-.17,2.44,2.44,0,0,0-1,.07A1.18,1.18,0,0,0,5,13,4.16,4.16,0,0,0,4.66,13.37ZM51,15.64l.12.16A1.08,1.08,0,0,1,51.24,17s0,.05,0,.08a.47.47,0,0,0,.15-.12,2,2,0,0,0,.63-1,1.4,1.4,0,0,0,.08-.49,2.85,2.85,0,0,0-.22-.55A1.21,1.21,0,0,1,51,15.64ZM25.41,53.41a.56.56,0,0,0,0,.13,2.37,2.37,0,0,0,.29.72,2.53,2.53,0,0,0,.48.55,1.11,1.11,0,0,0,.75.2l0,0a.87.87,0,0,1-.24-.53,1.19,1.19,0,0,1,.07-.61A1.17,1.17,0,0,1,25.41,53.41ZM48.3,16.51a.51.51,0,0,0,.52-.55.58.58,0,0,0-.53-.53.59.59,0,0,0-.52.55A.55.55,0,0,0,48.3,16.51Zm-41.44-2A.59.59,0,0,0,7.42,14a.55.55,0,0,0-.54-.53.54.54,0,0,0-.54.55A.58.58,0,0,0,6.86,14.54ZM29.77,52.8a.55.55,0,0,0-.52-.53.49.49,0,0,0-.37.15.53.53,0,0,0-.16.39.55.55,0,0,0,.53.53A.57.57,0,0,0,29.77,52.8ZM50.78,14a.51.51,0,0,0-.52.51.53.53,0,1,0,.52-.51Zm-23,37.89a.51.51,0,0,0,.53-.49.54.54,0,0,0-.52-.55.53.53,0,0,0-.54.53A.5.5,0,0,0,27.81,51.91Zm.52,2.36a.49.49,0,0,0-.52-.52.49.49,0,0,0-.52.53.51.51,0,0,0,.53.52A.53.53,0,0,0,28.33,54.27Zm-1.42-1.46a.52.52,0,0,0-.17-.38.5.5,0,0,0-.36-.16.53.53,0,0,0-.53.53.56.56,0,0,0,.54.54A.6.6,0,0,0,26.91,52.81ZM50.74,16.53a.5.5,0,0,0-.5-.54.58.58,0,0,0-.55.52.59.59,0,0,0,.51.54A.51.51,0,0,0,50.74,16.53Zm-46.37-2a.5.5,0,0,0,.5.53.54.54,0,0,0,.55-.5c0-.25-.27-.57-.49-.56A.55.55,0,0,0,4.37,14.5Zm3,2a.51.51,0,0,0,.53-.52.53.53,0,0,0-.54-.52.52.52,0,0,0,0,1Zm-2.45,0a.52.52,0,0,0,.52.55A.59.59,0,0,0,6,16.48.53.53,0,0,0,5.44,16,.48.48,0,0,0,4.93,16.47ZM48.28,14c0,.35.2.55.51.56a.53.53,0,1,0,0-1.05A.48.48,0,0,0,48.28,14ZM28.17,53.2v-.74a1.64,1.64,0,0,1-.38,0,2.84,2.84,0,0,1-.38,0,1.08,1.08,0,0,1,0,.75ZM49.65,14.75a1.28,1.28,0,0,1-.54.33c-.06,0-.08.09,0,.11a1,1,0,0,1,.27.46s.06.06.06.07l.63-.34c-.06-.09-.13-.2-.2-.29S49.78,14.84,49.65,14.75Zm-44,.64a1.44,1.44,0,0,0,.23.07c.13,0,.21.14.32.2l.13,0a1,1,0,0,1,.39-.61A1.36,1.36,0,0,1,6,14.72a2.76,2.76,0,0,0-.17.35C5.79,15.2,5.63,15.24,5.62,15.39Z"></path><path d="M27.06,24.48a2.72,2.72,0,0,0,1,.16.15.15,0,0,0,.15-.13c.05-.22.12-.44.18-.67s.06-.28.08-.42.06-.37.08-.56,0-.55.07-.82a4.7,4.7,0,0,1,.13-.75.62.62,0,0,1,.54-.45.49.49,0,0,1,.06.37c0,.24,0,.49-.06.73s-.06.63-.1.95a.15.15,0,0,1,0,.07c0,.32,0,.65-.09,1a6.83,6.83,0,0,0-.06.78v.1a.67.67,0,0,1,.14.09.2.2,0,0,1,0,.32,1.3,1.3,0,0,1-.41.24c-.23.13-.47.23-.7.35a.14.14,0,0,1-.18,0,2.16,2.16,0,0,0-.92-.46c-.13,0-.25-.09-.37-.13l-.5-.17a.59.59,0,0,1-.41-.39,1.9,1.9,0,0,1-.13-.67,3.93,3.93,0,0,1,.11-1,1.71,1.71,0,0,0,0-.45c0-.44,0-.88-.08-1.33s-.14-1.16-.22-1.74c0-.35-.11-.69-.16-1a2,2,0,0,1,0-.24,2.3,2.3,0,0,0-.32-1.05,1.64,1.64,0,0,1-.17-.53,3.32,3.32,0,0,1,0-.83,4.46,4.46,0,0,1,.09-.8c.06-.24.14-.46.2-.7a4.87,4.87,0,0,1,.3-.71,3,3,0,0,1,.27-.45c.22-.37.46-.73.68-1.1a1.52,1.52,0,0,0,.15-.47,5.39,5.39,0,0,1,.41-1.23,4.39,4.39,0,0,1,.29-.62.36.36,0,0,0,.07-.17.44.44,0,0,1,.29-.3,1.27,1.27,0,0,1,1.06.07.93.93,0,0,1,.39.54c.12.38.22.76.35,1.13s.27.71.41,1.06a1.49,1.49,0,0,0,.46.63,2.78,2.78,0,0,1,.78,1,6,6,0,0,1,.42,1.17c.07.25.1.5.16.75a4.44,4.44,0,0,1,.13,1c0,.22,0,.44,0,.65s-.07.45-.11.67a.38.38,0,0,1,0,.1c0,.15,0,.29-.05.44a.49.49,0,0,0,0,.12l-.18,1.38c0,.31-.09.63-.14.94a1.65,1.65,0,0,1-.06.32c-.07.35-.07.71-.17,1a4.68,4.68,0,0,0-.09.54c0,.1,0,.2-.07.3a4,4,0,0,0-.1.59,2.18,2.18,0,0,0,0,.51.86.86,0,0,0,.15.43l.14.16.1.13L29.57,25a.9.9,0,0,1,0-.18c.08-.32.17-.64.26-1a5,5,0,0,0,.14-.95,8,8,0,0,1,.11-.82c0-.25,0-.5.08-.75s0-.19,0-.28,0-.25,0-.38c0-.31.06-.61.05-.91a7.17,7.17,0,0,0-.07-1,3.68,3.68,0,0,0-.24-1c0-.08,0-.17-.08-.26a.49.49,0,0,1,0-.12c.07-.23.15-.46.22-.68a.74.74,0,0,0,0-.39l-.52-.2-.95-.32a2.29,2.29,0,0,0-.51-.15.43.43,0,0,0-.38.15l-.28.27-.51.53a3.51,3.51,0,0,1-.34.33.29.29,0,0,0-.12.25,1.26,1.26,0,0,0,.12.42,1.15,1.15,0,0,1,0,.49.47.47,0,0,1-.06.09.91.91,0,0,0-.29.63,1.18,1.18,0,0,0,.05.37c0,.19.1.38.16.57s.12.34.16.52a9,9,0,0,1,.26,1c0,.14.07.28.09.42a6.06,6.06,0,0,1,.09.73,10.24,10.24,0,0,1-.06,1.66C27.1,24.2,27.08,24.33,27.06,24.48Zm-.89-8.15.09,0,.81-.56.38-.3c.14-.12.29-.22.42-.34A.28.28,0,0,1,28.2,15l.77.25,1.08.35c.11,0,.17,0,.22-.1a.84.84,0,0,0,.05-.17,2.17,2.17,0,0,0-.09-.67.16.16,0,0,0-.09-.09,1.28,1.28,0,0,0-.27-.05l-.72,0-.79-.11a.25.25,0,0,1-.24-.28,2.57,2.57,0,0,0-.08-.38,2.19,2.19,0,0,0-.37-.73s-.06,0-.1-.07a.83.83,0,0,0-.29.56,1.23,1.23,0,0,0,.08.6.49.49,0,0,1-.38.65l-.28.08-.61.23-.15.07A2.92,2.92,0,0,0,26.17,16.33Zm1.58-5c.14,0,.15.16.15.28s0,.23,0,.33.08.12.15.09a1.7,1.7,0,0,0,.39-.24.84.84,0,0,0,.26-.8c0-.12,0-.25-.07-.37a2.17,2.17,0,0,0-.15-.35.23.23,0,0,0-.15-.09c-.2,0-.41,0-.62,0l-.33,0c0,.16-.07.31,0,.47l.15,0c.18,0,.23.08.23.25Z"></path><path d="M27.54,32.89l.53-.54a.45.45,0,0,1,.13.1c.11.1.22.2.32.31s.11.14,0,.25l-.24.25s0,.06-.08.11l.84.05a.3.3,0,0,0-.07-.11l-.13-.15a.12.12,0,0,1,0-.19,2.2,2.2,0,0,1,.27-.26c.21-.13.19-.31.14-.49-.1-.37-.21-.74-.32-1.11,0-.13-.1-.26-.13-.39a.3.3,0,0,0-.26-.24,4.86,4.86,0,0,0-.55-.07,1.37,1.37,0,0,0-.48.1l-.59.16h-.06a11.29,11.29,0,0,1,1.28-2.34.43.43,0,0,1,.09.1c.27.47.55.93.81,1.41.16.3.3.61.44.91s.29.58.43.88.22.52.32.78.12.31.19.46a.21.21,0,0,0,.06.08l.31-.24a1.25,1.25,0,0,1,0,.15c0,.16-.05.32-.06.48a1.22,1.22,0,0,0,0,.6,5.79,5.79,0,0,1,.21.71c0,.17.05.35.08.52s.08.44.11.66a1.1,1.1,0,0,1,0,.18v.16c.14.05.21-.15.35,0a.4.4,0,0,1,0,.11c-.11.38-.22.76-.32,1.13a.93.93,0,0,0,0,.23c0,.49,0,1-.09,1.47,0,.24-.06.49-.1.74a2.09,2.09,0,0,0,0,.26l.25-.08a.4.4,0,0,1,0,.11c-.07.2-.16.4-.22.6a3,3,0,0,0-.25,1,3.86,3.86,0,0,1-.1.49c0,.16-.07.31-.09.47a.22.22,0,0,1-.19.21c-.27.06-.54.13-.81.18l-.57.09-.7.06a3.23,3.23,0,0,1-.82,0c-.23,0-.47,0-.7-.09s-.52-.11-.79-.17l-.19,0c-.11,0-.15,0-.16-.15a2.08,2.08,0,0,1,0-.25,2,2,0,0,1,.68-.15c.42-.06.84-.11,1.26-.13a7.11,7.11,0,0,1,1,0c.33,0,.31,0,.39-.23a.41.41,0,0,0,0-.27l-.07,0a7.08,7.08,0,0,0-1.84,0l-.4,0-.24.06-.11,0-.77.1a1.12,1.12,0,0,1-.09-.22c-.05-.19-.09-.39-.14-.58s-.06-.12-.08-.18c-.08-.23-.15-.46-.23-.68a.75.75,0,0,1-.06-.29,4.77,4.77,0,0,1,1,.5,7.28,7.28,0,0,1-.54.58c.19,0,.35-.06.52-.07a3.33,3.33,0,0,0,.53-.15l-.39-.4a.6.6,0,0,1-.08-.08.1.1,0,0,1,0-.16c.17-.18.34-.34.53-.51,0,0,.1,0,.13,0l.59.57-.46.48a.22.22,0,0,0,.23,0,1.56,1.56,0,0,1,.57-.06l.16,0a.62.62,0,0,0-.08-.12l-.37-.38c-.07-.08-.08-.11,0-.18l.49-.49a.11.11,0,0,1,.18,0c.16.16.33.32.48.48s.06.11,0,.18-.24.27-.37.4l-.07.11.85.07c-.1-.18-.29-.25-.38-.44a7.34,7.34,0,0,1,.61-.64c.18,0,.23.26.41.31,0-.14.06-.25.08-.37l.21-1.35c0-.09,0-.11-.1-.13L29.28,38A8.86,8.86,0,0,0,27.92,38a3,3,0,0,0-.74.06H27a4.8,4.8,0,0,0-1,.12c-.27.06-.55.08-.82.12a.25.25,0,0,1-.09-.22c0-.23,0-.47-.08-.71a3.11,3.11,0,0,0-.11-.41l-.06-.2-.12-.52s0-.07,0-.11l1.14.64-.56.58a.42.42,0,0,0,.15,0l.5-.1a2.06,2.06,0,0,1,.26,0c.1,0,.13-.07.06-.14L26,36.71c-.25-.25-.21-.21,0-.43l.43-.43a1.09,1.09,0,0,1,.11-.1c.27.21.48.48.74.72-.14.25-.4.39-.57.64.08,0,.13,0,.18,0a3,3,0,0,1,.73-.06A.86.86,0,0,0,28,37l-.49-.48a.1.1,0,0,0-.05,0c-.08-.09-.09-.13,0-.23l.22-.21.44-.43.32.3.33.33c.11.11.11.14,0,.24l-.53.51a.37.37,0,0,0,.24.08l.91,0-.1-.13-.3-.29c-.1-.1-.1-.13,0-.23l.54-.55c.08-.08.11-.08.19,0l.22.22c.07,0,.05-.09.05-.14,0-.32-.05-.64-.09-1s-.09-.47-.13-.71-.07-.11-.14-.12l-.39,0a9.82,9.82,0,0,0-1.43-.1c-.25,0-.5.07-.75.1l-.73.11-.61.12a.58.58,0,0,1-.19,0,.25.25,0,0,1,0-.12c0-.16.09-.32.14-.49a.67.67,0,0,0,0-.37c0-.19-.06-.37-.08-.56,0,0,0-.06.05-.12.16.14.31.27.45.41s0,.1,0,.15a3.72,3.72,0,0,1-.22.38c.17.07.3,0,.44,0l.47-.08-.08-.11-.22-.21c-.09-.09-.08-.15,0-.24l.43-.41.09,0,.39.4c.07.07.07.11,0,.19l-.24.26c.17.06.31,0,.45,0l.49,0Z"></path><path d="M18.34,42.38a1.42,1.42,0,0,1-.2-.22c-.23-.41-.47-.83-.69-1.25a9.92,9.92,0,0,1-.57-1.35,2.86,2.86,0,0,1-.09-.51,4.79,4.79,0,0,1,0-.76A11.67,11.67,0,0,1,16.84,37c.07-.38.11-.76.17-1.13s.1-.46.16-.68.12-.5.19-.74.16-.51.25-.76.19-.57.3-.84.32-.75.49-1.12l.09-.1.12.13.83,1.13a.64.64,0,0,0,.12.13l.31-1.45c.05,0,.1,0,.12.08s.31.37.46.56.48.65.7,1,.55.76.78,1.16.38.61.56.91.23.44.33.66.22.53.32.79.07.3.11.44a5.17,5.17,0,0,1,.1.79,2.36,2.36,0,0,1,0,.38c0,.34,0,.67,0,1s0,.68-.06,1-.09.67-.13,1c0,.12-.05.16-.18.16l-1.12,0-.46,0a5.4,5.4,0,0,0-.88.15l-.89.29-.49.14Zm-.76-3.28a.65.65,0,0,0,0,.14c0,.16.07.32.11.48s.14.48.23.72a6,6,0,0,0,.46.91.12.12,0,0,0,.12.07l.32-.09.36-.11.65-.19a1.17,1.17,0,0,1,.25-.07,5.87,5.87,0,0,0,.84-.13l.24,0a1.7,1.7,0,0,1,0-.22c0-.3-.09-.59-.13-.89,0,0,0,0,0-.08,0-.2-.08-.39-.11-.58s-.1-.62-.14-.92L20.61,37a.13.13,0,0,0,0-.06c0-.26-.09-.51-.13-.77s0-.42-.08-.63-.09-.55-.14-.83a1.11,1.11,0,0,0-.09-.32l0,.11c-.05.19-.09.38-.14.58l-.27.9c-.12.42-.23.85-.37,1.27a7.24,7.24,0,0,1-.41,1,1.5,1.5,0,0,1-1.23.86Zm.32-1a1.12,1.12,0,0,0,.21-.17,1.75,1.75,0,0,0,.2-.35,9.19,9.19,0,0,0,.45-1.24c.1-.41.21-.82.32-1.23s.13-.55.2-.83a.37.37,0,0,0-.08-.4,2.27,2.27,0,0,1-.18-.25l-.4-.53a1.47,1.47,0,0,0-.09.17.8.8,0,0,1,0,.15c-.1.35-.21.69-.32,1s-.16.53-.25.8-.11.4-.18.6-.11.42-.15.64a2.93,2.93,0,0,0-.1,1C17.53,37.75,17.59,38,17.9,38.09Zm3.39-3.71-.06,0a1.18,1.18,0,0,1,0,.2,3.41,3.41,0,0,1,.19.84s0,0,0,.06c.06.31.13.62.18.92s0,.36.06.53l.09.81s0,0,0,.06c0,.25.08.49.1.74s.05.54.07.81c0,.43.09.85.14,1.27a.8.8,0,0,0,0,.15c.18,0,.35.07.54,0,0-.38,0-.75.06-1.12,0-.59,0-1.19,0-1.78a2.07,2.07,0,0,0-.14-.81c-.12-.26-.21-.53-.32-.79s-.21-.44-.32-.65-.26-.53-.4-.79S21.39,34.55,21.29,34.38Z"></path><path d="M36.61,33c.33-.46.65-.92,1-1.38a.58.58,0,0,1,.11.13l.24.54c.13.3.26.6.38.91a6.5,6.5,0,0,1,.22.62l.23.77c.05.18.09.36.13.53l.15.72c.05.27.13.54.17.82s.08.67.09,1c0,.5,0,1,0,1.49a2,2,0,0,1-.21.83c-.09.17-.15.37-.23.54-.19.38-.39.75-.59,1.13-.09.17-.2.34-.3.52s-.13.2-.38.17a2.23,2.23,0,0,1-.44-.13L36.71,42l-.9-.25-.51-.15-.64-.09a10.46,10.46,0,0,0-1.48,0c-.18,0-.2,0-.23-.19s0-.33-.06-.49,0-.28,0-.41a1.23,1.23,0,0,1,0-.19l-.06-.89v-.27c0-.25,0-.51,0-.76s0-.32,0-.48,0-.05,0-.07a3.58,3.58,0,0,1,.1-.8,2.44,2.44,0,0,1,.15-.48c.17-.38.35-.75.53-1.13a4,4,0,0,1,.22-.4c.22-.35.44-.7.67-1s.52-.77.79-1.15.37-.49.56-.73l.31-.38a.2.2,0,0,1,.09-.05s.05.06.06.09,0,.25.07.38.09.37.13.56a2.13,2.13,0,0,1,0,.25S36.52,33,36.61,33ZM35,40.78l0,0a9.34,9.34,0,0,0,1,.16l.09,0c.23.07.45.15.68.2s.51.15.76.23c.06,0,.11,0,.14,0a4.12,4.12,0,0,0,.27-.45c.11-.25.2-.5.3-.75a1.72,1.72,0,0,0,.07-.21,3.74,3.74,0,0,0,.12-.45c0-.13,0-.27.07-.39-.16,0-.32-.07-.46-.12a2.06,2.06,0,0,1-.49-.25,1.58,1.58,0,0,1-.46-.65c-.11-.2-.17-.43-.27-.64a6.57,6.57,0,0,1-.31-1c-.07-.2-.1-.4-.16-.59s-.18-.63-.27-.94l-.16-.6a.66.66,0,0,0-.1.34l-.09.69c0,.24-.09.48-.12.72s-.05.41-.08.62-.11.65-.16,1c0,.15,0,.3-.07.46l-.12.82c0,.18-.05.37-.08.55s0,.3-.08.44-.07.51-.1.76C35,40.73,35,40.75,35,40.78Zm2.55-7.67-.09.07c-.2.26-.39.53-.58.8a.19.19,0,0,0,0,.15,3.4,3.4,0,0,0,.07.34c0,.14.05.28.08.42.09.35.19.69.27,1A8.69,8.69,0,0,0,37.58,37a3.28,3.28,0,0,0,.25.58,2.11,2.11,0,0,0,.26.4c.09.11.15.11.27,0l.08-.08a.82.82,0,0,0,.18-.54,7.23,7.23,0,0,0-.07-.79c0-.2-.08-.39-.12-.59,0,0,0-.05,0-.07,0-.17-.12-.34-.17-.51s-.17-.6-.26-.9-.21-.7-.31-1C37.63,33.37,37.58,33.25,37.53,33.11Zm-4.06,7.73.47-.07s.06-.07.07-.11c0-.37.09-.74.12-1.1s.06-.77.09-1.15a.13.13,0,0,1,0-.06c0-.24.08-.47.11-.7s.08-.74.13-1.11.11-.8.19-1.19.15-.58.22-.87a.63.63,0,0,0,0-.14,1.37,1.37,0,0,0-.1.14c-.2.37-.4.74-.59,1.11s-.41.81-.58,1.22a3.3,3.3,0,0,0-.22.74,3.35,3.35,0,0,0,0,.71c0,.48,0,1,0,1.43l.06,1.06S33.45,40.79,33.47,40.84Z"></path><path d="M36.34,21.66l0-.32a.66.66,0,0,0-.42,0,.76.76,0,0,0,0,.15v.95a1.1,1.1,0,0,1,0,.18l-.59-.09a1.72,1.72,0,0,0-.64,0,2.76,2.76,0,0,0-.88.29.12.12,0,0,1-.1,0l-.33-.3a1.24,1.24,0,0,1,.32-.36c.19-.2.38-.38.58-.57l.52-.5.49-.49L35.8,20l.52-.52c.11-.11.14-.12.25,0l.7.67.12.11c0-.23,0-.43,0-.62V18.45l.65-.68a.23.23,0,0,1,.05.2c0,.75,0,1.5,0,2.24v.69a.26.26,0,0,0,.07.19c.11.12.23.23.35.35a.28.28,0,0,0,.11,0v-.2c0-1.3,0-2.6,0-3.91a.31.31,0,0,1,.12-.27l.43-.43a.61.61,0,0,1,.16-.11V22c0,.14,0,.28.12.38a.76.76,0,0,1,.07.13l-.2.14a1.32,1.32,0,0,1,.05.26v5.34c0,.08,0,.16-.07.22-.21-.2-.42-.4-.61-.6a.35.35,0,0,1-.05-.2V23.53l-.1.07-.32.3a.38.38,0,0,0-.11.29V27a2.5,2.5,0,0,1,0,.25c-.11-.09-.2-.16-.27-.23l-.34-.36a.26.26,0,0,1-.08-.21c0-.49,0-1,0-1.48v-.17l0,0-.89.87c-.12-.12-.24-.23-.35-.35l-.8-.77L34.81,24l-.48-.49c-.09-.08-.09-.13,0-.19a1.09,1.09,0,0,1,.27-.11,1.76,1.76,0,0,1,.45-.07,1.7,1.7,0,0,1,.71.06l.46.18.57.17a4.7,4.7,0,0,0,.51.12.83.83,0,0,0,.35,0,5.09,5.09,0,0,0,.92-.27.49.49,0,0,0,.14-.11l.49-.48.05-.07a.36.36,0,0,0-.29.07,3.66,3.66,0,0,1-.9.3,2.81,2.81,0,0,1-.58,0l-.32,0c0-.28,0-.56,0-.84s0-.56,0-.85a.82.82,0,0,0-.38,0s-.06.06-.07.09a1.62,1.62,0,0,0,0,.22A1.22,1.22,0,0,1,36.34,21.66Z"></path><path d="M43,21.3l0,.35h-.36a1.7,1.7,0,0,1,0-.22c0-.1,0-.12-.14-.13h-.34a1.36,1.36,0,0,0,0,.2c0,.3,0,.59,0,.89a1.37,1.37,0,0,1,0,.19l-.29-.06a2.2,2.2,0,0,0-1,0c-.24.07-.47.19-.71.26,0,0,0,.08,0,.1l.42.43a2,2,0,0,1,.89-.21,2.57,2.57,0,0,1,1.06.24c.19.07.39.13.58.18a2.8,2.8,0,0,0,.5.12,1,1,0,0,0,.38,0,4,4,0,0,0,1-.32.1.1,0,0,1,0,.15l-.66.64-1,.95c-.15.15-.3.31-.46.46a.41.41,0,0,1-.11.07c-.29-.24-.53-.54-.86-.8a1.49,1.49,0,0,0,0,.19c0,.45,0,.89,0,1.33a.38.38,0,0,1-.14.33c-.14.12-.26.26-.39.39l-.17.13c0-.1,0-.16,0-.22,0-.89,0-1.79,0-2.68A.45.45,0,0,0,41,23.9c-.11-.1-.2-.21-.31-.33a.38.38,0,0,0-.07.11.57.57,0,0,0,0,.13c0,1.26,0,2.52,0,3.78a.33.33,0,0,1-.12.28l-.41.42c-.05,0-.09.12-.18.05V23a.46.46,0,0,0-.17-.4l0,0c-.11-.11-.11-.16,0-.27l0,0a.41.41,0,0,0,.17-.38v-5a.66.66,0,0,1,0-.14s0-.08.05-.1a.13.13,0,0,1,.1,0c.16.15.3.31.46.46a.28.28,0,0,1,.09.23c0,.4,0,.79,0,1.18,0,.89,0,1.77,0,2.65,0,.06,0,.12,0,.17.14-.13.28-.27.41-.41a.31.31,0,0,0,0-.17c0-.27,0-.53,0-.8V17.92a.13.13,0,0,1,.16,0c.16.16.32.32.49.47a.25.25,0,0,1,.06.2v1.56a.5.5,0,0,0,.13-.07l.62-.61c.12-.12.15-.12.28,0s.34.36.52.53l.53.52.57.57.47.47.57.56.23.22s0,.08,0,.13a1.69,1.69,0,0,1-.41.24,4.1,4.1,0,0,1-.91.32,2,2,0,0,1-.48,0A4.3,4.3,0,0,1,43.5,23a1.23,1.23,0,0,1,0-.2v-1.4a.11.11,0,0,0-.11-.12Z"></path><path d="M15.81,17.79h1a1.79,1.79,0,0,1,0,.23c0,1.21,0,2.43,0,3.64v.21l.21,0H20.8s.08.06.08.09c0,.31,0,.63,0,1h-4a1.7,1.7,0,0,0,0,.22v3.54c0,.26,0,.26-.27.26s-.44,0-.65,0-.17,0-.17-.16c0-.41,0-.81,0-1.22V23h-4a3.88,3.88,0,0,1,0-1.08h.15l3.63,0a.34.34,0,0,0,.1,0c.11,0,.13,0,.15-.14V18.08C15.79,18,15.8,17.9,15.81,17.79Z"></path><path d="M44.39,34.72a.73.73,0,0,0,1,.17,1.41,1.41,0,0,0,.39-.34.72.72,0,0,0,.15-.45,1.35,1.35,0,0,0-.2-.87.84.84,0,0,0-.36-.34l-.17-.09a.72.72,0,0,0-.31-.11,1.6,1.6,0,0,1-.23,0,.69.69,0,0,0-.2,0,2.27,2.27,0,0,0-.53.12,1.4,1.4,0,0,0-.63.48,2.11,2.11,0,0,0-.37.75,2.35,2.35,0,0,0-.05.37,2.23,2.23,0,0,0,.29,1.34,2.31,2.31,0,0,0,.5.62c.07.05.16.08.16.2a2,2,0,0,1-.5-.12l-.54-.18c-.11,0-.18,0-.25.09l-.55.54L40.4,38.41l-.49.47-.08,0s0-.07,0-.1c0-.22.06-.45.09-.67a2.45,2.45,0,0,0,0-.27.3.3,0,0,1,.08-.2c.61-.61,1.21-1.23,1.81-1.84a.58.58,0,0,0,.19-.35,6.55,6.55,0,0,0,0-1,2.88,2.88,0,0,1,.22-1.2,2,2,0,0,1,.23-.47,2.8,2.8,0,0,1,.5-.59,2.72,2.72,0,0,1,.48-.33,2.55,2.55,0,0,1,1.63-.19,2.35,2.35,0,0,1,.91.41,2.07,2.07,0,0,1,.68.89,1.67,1.67,0,0,1,.1.4,2.32,2.32,0,0,1,0,.46c0,.2-.06.4-.09.6a1.52,1.52,0,0,1-.19.5,1.77,1.77,0,0,1-.67.66,1.66,1.66,0,0,1-1.47.11,1.15,1.15,0,0,1-.67-.71,1.44,1.44,0,0,1,0-.87.77.77,0,0,1,.3-.51.73.73,0,0,1,.65-.11.51.51,0,0,1,.32.35.72.72,0,0,1,0,.25.5.5,0,0,1-.39.48C44.53,34.65,44.47,34.69,44.39,34.72Z"></path><path d="M10.15,33.79,9.91,34l-.63.68c-.14.15-.22.17-.37,0a3.31,3.31,0,0,1-.32-.33c-.06-.06-.05-.1,0-.16L8.83,34l.61-.66c.1-.1.1-.11,0-.2l-.75-.7-.1-.1c-.13-.15-.13-.16,0-.31A1.68,1.68,0,0,1,9,31.64c.38.3.7.66,1.1,1l.36-.36c.16-.16.3-.32.45-.48a.13.13,0,0,1,.2,0l.38.35c.08.09.08.15,0,.25l-.26.3-.48.51,0,.06.86.79.1-.07.85-.94.43-.45c.1-.12.16-.13.28,0s.23.22.34.33a.16.16,0,0,1,0,.24c-.24.25-.48.49-.71.74s-.41.45-.61.67c-.05.06-.05.09,0,.15.23.2.46.42.68.63l.62.59.8.74,1.55,1.45a.46.46,0,0,1,.13.26c0,.21.07.41.1.62a2,2,0,0,1,0,.25.11.11,0,0,1-.05.09.17.17,0,0,1-.12,0c-.08-.06-.15-.14-.23-.21L15,38.3l-.74-.7-.75-.69L12.56,36l-.92-.85-.09,0-.83.89-.63.67c-.1.11-.18.11-.29,0l-.32-.31c-.08-.09-.08-.14,0-.23l.69-.73.72-.78c.11-.12.11-.14,0-.26l-.28-.27Z"></path><path d="M17.09,43.25c.07.32.13.62.19.92l.06.33a.25.25,0,0,1-.19.24,2.45,2.45,0,0,1-.37.08l-.12,0a2.71,2.71,0,0,1-.94,0,1.8,1.8,0,0,1-.55-.15.35.35,0,0,1-.17-.29c0-.25-.09-.51-.11-.77a3.17,3.17,0,0,1,0-1.15,1.33,1.33,0,0,1,.6-.83.92.92,0,0,1,.81,0,3.23,3.23,0,0,1,1.28.91A5.3,5.3,0,0,0,18,43a2.21,2.21,0,0,0,.4.28,3.57,3.57,0,0,0,.76.31l.45.13c.09,0,.11.08,0,.15a.85.85,0,0,1-.56.27,2,2,0,0,1-.76-.07,1.48,1.48,0,0,1-.35-.19c-.23-.16-.44-.34-.66-.51S17.21,43.24,17.09,43.25Zm-.52,1v-.13c0-.12,0-.23-.05-.35s-.05-.55-.08-.82a1.69,1.69,0,0,0-.05-.24.48.48,0,0,0-.31-.34.27.27,0,0,0-.32.11.55.55,0,0,0-.06.18,2.53,2.53,0,0,0-.08.72,1.85,1.85,0,0,0,.06.66.24.24,0,0,0,.1.14A1.63,1.63,0,0,0,16.57,44.27Z"></path><path d="M39,43.2l-.16.12-.55.41L38,44a1.06,1.06,0,0,1-.56.18h-.52c-.22,0-.35-.15-.5-.28s0-.1,0-.12l.51-.15a3.57,3.57,0,0,0,.83-.35,1.36,1.36,0,0,0,.37-.31c.24-.28.5-.54.76-.79a2.35,2.35,0,0,1,.86-.48,1,1,0,0,1,1.2.47,2.07,2.07,0,0,1,.23,1,6.85,6.85,0,0,1,0,.91,2,2,0,0,1-.08.49c0,.19-.19.25-.35.3a3,3,0,0,1-1.2.06,3.22,3.22,0,0,1-.6-.13.23.23,0,0,1-.16-.27l.12-.67.12-.47A.63.63,0,0,0,39,43.2Zm1.08-.85a.49.49,0,0,0-.33.27.78.78,0,0,0-.1.36c0,.39-.09.77-.14,1.16,0,.1,0,.14.12.14a2.46,2.46,0,0,0,.47,0,.31.31,0,0,0,.33-.3,3.4,3.4,0,0,0,0-1.19C40.35,42.59,40.3,42.4,40.06,42.35Z"></path><path d="M30.86,25.62a.55.55,0,0,1,0,.38,1.75,1.75,0,0,1-.24.52,2.2,2.2,0,0,1-.51.5A3.89,3.89,0,0,1,29,27.5a3.71,3.71,0,0,1-1.15.15,1.29,1.29,0,0,1-.44,0,1.88,1.88,0,0,1-.61-.32,3,3,0,0,1-.72-.82,6.85,6.85,0,0,1-.36-.84.92.92,0,0,1-.05-.28s0-.06,0-.09l.78.4,1.31.68a.32.32,0,0,0,.17,0l.8-.2.6-.17.92-.22Z"></path><path d="M35.11,15.84c.14-.05.21,0,.29.09a1.34,1.34,0,0,0,.94.13,1.32,1.32,0,0,0,.81-.57l.21-.33c.09,0,.13,0,.17.08a1,1,0,0,0,.47.36,1,1,0,0,0,.69.05,1.44,1.44,0,0,0,.49-.26,1.49,1.49,0,0,0,.23-.27c.1-.16.13-.15.23,0a1.1,1.1,0,0,0,1,.56,1.16,1.16,0,0,0,.78-.38c.06-.06.1-.17.19-.15a6.82,6.82,0,0,0,.43.56,1.2,1.2,0,0,0,1,.39,1.54,1.54,0,0,0,.65-.23.76.76,0,0,1,.16-.06l0,0s0,.08,0,.11l-.64.85a.15.15,0,0,1-.22.05,4.61,4.61,0,0,0-1.13-.4l-.69-.16-.12,0a14.08,14.08,0,0,0-2.34-.07,8.51,8.51,0,0,0-1.13.14,5.45,5.45,0,0,0-1,.29l-.56.24a.12.12,0,0,1-.16,0c-.07-.09-.13-.18-.2-.26s-.29-.39-.43-.58Z"></path><path d="M28.27,48.76l1.05-1c.34-.32.69-.63,1-1l1.19-1.11,1.09-1,.73-.7.39-.36a.21.21,0,0,1,.14,0l.47.05.28,0s.12,0,.12.06a.19.19,0,0,1,0,.13c-.18.18-.37.34-.56.52l-1,1-.76.7L30.9,47.38l-1.41,1.31a.21.21,0,0,1-.14.07l-.89.09C28.38,48.86,28.3,48.87,28.27,48.76Z"></path><path d="M16.4,15.11l.33.38a1.06,1.06,0,0,0,.5.27,1,1,0,0,0,1-.26l.29-.25a.43.43,0,0,1,.09.1,1.61,1.61,0,0,0,.58.66,1.13,1.13,0,0,0,.77.19,1.63,1.63,0,0,0,.74-.28l.06,0c.05,0,0,.1,0,.14s-.26.33-.38.5l-.3.39L20,17c-.17-.07-.33-.16-.51-.23s-.34-.11-.52-.16-.59-.15-.88-.2-.66-.09-1-.11a10.65,10.65,0,0,0-1.13,0,8.94,8.94,0,0,0-.89.09H15a6.37,6.37,0,0,0-1.21.26l-.11,0-.47.16-.39.18a1.21,1.21,0,0,1-.19-.2,10.91,10.91,0,0,1-.63-.9c.07,0,.12,0,.14,0a.59.59,0,0,0,.3.16,1.15,1.15,0,0,0,.4.12,1.29,1.29,0,0,0,.87-.25,1.75,1.75,0,0,0,.5-.58c.08-.14.11-.14.22,0a1.56,1.56,0,0,0,.72.43.76.76,0,0,0,.5-.06,1.1,1.1,0,0,0,.44-.26l.25-.27Z"></path><path d="M27.32,48.84a2.44,2.44,0,0,1-.66,0c-.11,0-.23,0-.33,0a.43.43,0,0,1-.17-.06l-1.5-1.41-.56-.5-.53-.52-.47-.43-.83-.77L21,43.89c-.1-.09-.11-.11-.06-.23l.73-.08a.31.31,0,0,1,.27.1l.66.63.54.48.75.71,1.07,1,.77.72.56.5.72.68.31.29A.1.1,0,0,1,27.32,48.84Z"></path><path d="M27.37,44.35a1.52,1.52,0,0,0-.08.76l.18,0h1.3l.17,0c0-.22,0-.43,0-.64s-.05-.13-.17-.14l-.19,0a.12.12,0,0,1,0-.1s0-.05.08-.07a.33.33,0,0,1,.1,0h1.13a.21.21,0,0,1,.08,0,.1.1,0,0,1,.11.08c0,.08-.05.11-.11.13h-.08c-.14,0-.19,0-.21.19V46c0,.19.06.25.25.26,0,0,.07,0,.08,0s.07.07.07.11,0,.08-.08.08H28.69c-.07,0-.13,0-.15-.09a.16.16,0,0,1,.18-.12c.19,0,.22-.05.23-.24v-.49c0-.13,0-.15-.15-.15l-1.37,0c-.12,0-.14,0-.14.15a4.17,4.17,0,0,0,0,.5c0,.18.07.24.26.25a.26.26,0,0,1,.15,0,.09.09,0,0,1,0,.09.11.11,0,0,1-.08.07H26.35a.14.14,0,0,1-.1-.08.1.1,0,0,1,.09-.12c.26,0,.26-.17.26-.34s0-.48,0-.72,0-.5,0-.74,0-.14-.15-.15h-.12c-.07,0-.1-.05-.1-.12s0-.09.1-.09h1.14a.57.57,0,0,1,.13,0c.06,0,.11,0,.11.1a.13.13,0,0,1-.11.11Z"></path><path d="M41.86,40.79c0-.14,0-.17.1-.19h.16c.13,0,.18-.06.2-.19V38.93a.38.38,0,0,0,0-.1c0-.14-.07-.16-.21-.18s-.11,0-.15-.06a.09.09,0,0,1,.06-.14H44.2c.18,0,.18,0,.2.19s0,.1,0,.16a.88.88,0,0,1,0,.16c-.15.11-.19.1-.29,0a.5.5,0,0,0-.34-.22,2.75,2.75,0,0,0-.64,0c-.15,0-.19,0-.19.19v.45a1.55,1.55,0,0,0,0,.17l.44,0,.15,0c.12,0,.21,0,.26-.15s.13-.12.25-.07c0,.24,0,.48,0,.73-.16.08-.21.07-.27-.08a.21.21,0,0,0-.22-.16H43a.45.45,0,0,0,0,.11v.5c0,.17,0,.19.2.23a2.36,2.36,0,0,0,1,0,.7.7,0,0,0,.21-.14,1.14,1.14,0,0,1,.17-.15.16.16,0,0,1,.15,0s.05.09,0,.13-.12.27-.18.4-.12,0-.18,0H41.86Z"></path><path d="M35.87,17.84l-.78.14C35,18,35,18,35,18a3.94,3.94,0,0,0-.92.57,5.44,5.44,0,0,0-.47.49A4,4,0,0,0,33,20a1.79,1.79,0,0,0-.13.65.31.31,0,0,0,0,.1c0,.06,0,.1-.09.09a.17.17,0,0,1-.12-.06c0-.1,0-.2-.08-.3a2.29,2.29,0,0,1-.06-.78,3.1,3.1,0,0,1,.11-.51,1.21,1.21,0,0,1,.05-.18,2.74,2.74,0,0,1,1.5-1.44.83.83,0,0,1,.27-.07,3.32,3.32,0,0,1,1.09.06,1.25,1.25,0,0,1,.25.09C35.9,17.7,35.88,17.77,35.87,17.84Z"></path><path d="M10.12,22.6s.1,0,.12.07,0,.09,0,.13a2.56,2.56,0,0,0-.35.51,2.67,2.67,0,0,0-.29.92,3.25,3.25,0,0,0,0,.88,3.34,3.34,0,0,0,.25,1.07,3.25,3.25,0,0,0,.3.51c0,.06.1.11.15.17a.08.08,0,0,1,0,.14s-.08.08-.14,0l-.49-.34a2.18,2.18,0,0,1-.28-.25,2.13,2.13,0,0,1-.55-.94,2.18,2.18,0,0,1-.07-1,2.56,2.56,0,0,1,.15-.73,2,2,0,0,1,.41-.63,3.6,3.6,0,0,1,.74-.54Z"></path><path d="M38.76,29.78c.05.15.05.18-.08.21a2.77,2.77,0,0,1-.69.16c-.19,0-.38,0-.57,0a1.77,1.77,0,0,1-.67-.26A2.91,2.91,0,0,1,36,29.2a1.63,1.63,0,0,1-.37-.67,1.15,1.15,0,0,0-.06-.17,2.36,2.36,0,0,1,0-1.29.58.58,0,0,1,.05-.14c0-.13,0-.13.2-.11a.5.5,0,0,1,0,.12,2.4,2.4,0,0,0,.34,1.11,3.64,3.64,0,0,0,1.14,1.23,2.38,2.38,0,0,0,1.41.49Z"></path><path d="M32.92,42.13l.13-.05a7.83,7.83,0,0,1,1.81,0l1,.16.22.06a5.91,5.91,0,0,1,1.29.49c.05,0,.08,0,.06.12a1.59,1.59,0,0,1-.86.17H35.32a4.9,4.9,0,0,1-.76-.08,3.11,3.11,0,0,1-.74-.2,2.2,2.2,0,0,1-.88-.63S32.93,42.16,32.92,42.13Z"></path><path d="M34.35,26.76a2,2,0,0,1-1.26-.47,4.74,4.74,0,0,1-.51-.49,1.35,1.35,0,0,1-.31-.53,3.22,3.22,0,0,1-.16-.5,2.64,2.64,0,0,1,0-1.12s0-.11.05-.16.06-.11.13-.1.07.08.08.13a4.13,4.13,0,0,0,.13.61,2.84,2.84,0,0,0,.5.94,5.23,5.23,0,0,0,.45.49,3.75,3.75,0,0,0,.78.54,2,2,0,0,0,.67.22c.12,0,.24,0,.36.06s.1,0,.1.08,0,.12-.08.14l-.49.11C34.67,26.74,34.49,26.74,34.35,26.76Z"></path><path d="M8.69,20.05a2.25,2.25,0,0,1,.12-.93,1.72,1.72,0,0,1,.45-.71,2.61,2.61,0,0,1,.74-.54.18.18,0,0,1,.09,0,.38.38,0,0,1,.15.05c0,.05,0,.09,0,.13l-.21.28a2.06,2.06,0,0,0-.38.84,3.39,3.39,0,0,0-.1,1.19,4,4,0,0,0,.19.9,2,2,0,0,0,.49.81c.09.07.09.14,0,.2a.11.11,0,0,1-.11,0A3.06,3.06,0,0,1,9,21.31a2.56,2.56,0,0,1-.34-.88A1.61,1.61,0,0,1,8.69,20.05Z"></path><path d="M44.25,17.53a1.9,1.9,0,0,1,1.2.39,3.16,3.16,0,0,1,.55.48,3.23,3.23,0,0,1,.33.49,1.94,1.94,0,0,1,.24.85,2.43,2.43,0,0,1-.06.81.86.86,0,0,1,0,.17.34.34,0,0,1,0,.14.13.13,0,0,1-.11,0s-.06,0-.07-.07a.8.8,0,0,1,0-.15,2.49,2.49,0,0,0-.52-1.33,4.55,4.55,0,0,0-.94-.92A3,3,0,0,0,43.9,18a2.76,2.76,0,0,0-.49-.07c-.06,0-.13,0-.14-.08a.12.12,0,0,1,.1-.14l.22-.06h.1C43.88,17.52,44.09,17.57,44.25,17.53Z"></path><path d="M40.4,29.79l.52-.07a2.67,2.67,0,0,0,.76-.32,3.6,3.6,0,0,0,1.06-1,3.64,3.64,0,0,0,.47-.81,2.27,2.27,0,0,0,.12-.63.34.34,0,0,1,0-.1.11.11,0,0,1,.11-.1.13.13,0,0,1,.12.1,1.33,1.33,0,0,0,0,.19,2.51,2.51,0,0,1-.09,1.53,2.65,2.65,0,0,1-.89,1.12,2.58,2.58,0,0,1-.72.37.57.57,0,0,1-.22,0,6.69,6.69,0,0,1-.78,0,1.62,1.62,0,0,1-.43-.12C40.36,30,40.36,29.94,40.4,29.79Z"></path><path d="M46.76,23.41c.13,0,.17,0,.2.12a3.09,3.09,0,0,1,.12.74,2.07,2.07,0,0,1-.15.92,2.46,2.46,0,0,1-.82,1.06,2.18,2.18,0,0,1-.82.44,1.62,1.62,0,0,1-.69,0c-.23,0-.46-.08-.69-.12,0,0-.07,0-.09,0a.47.47,0,0,1-.06-.15c0-.05.05-.06.1-.06a3,3,0,0,0,.89-.21,2.32,2.32,0,0,0,.41-.22,3.47,3.47,0,0,0,.91-.84,2.76,2.76,0,0,0,.34-.5,2.05,2.05,0,0,0,.29-.84A2.25,2.25,0,0,1,46.76,23.41Z"></path><path d="M22.52,27.06c-.15-.1-.14-.14,0-.26a2,2,0,0,0,.33-.48,5.16,5.16,0,0,0,.23-.66,3.68,3.68,0,0,0,.11-.73,1.61,1.61,0,0,0,0-.31,3.81,3.81,0,0,0-.16-.83,2.25,2.25,0,0,0-.51-.95.47.47,0,0,1-.06-.09c0-.11,0-.17.14-.12a3.47,3.47,0,0,1,.33.18,2.34,2.34,0,0,1,.63.54,1.84,1.84,0,0,1,.36.71,2.61,2.61,0,0,1,.06,1.21,1.59,1.59,0,0,1-.27.74,3.14,3.14,0,0,1-.38.5A2.79,2.79,0,0,1,22.52,27.06Z"></path><path d="M23.14,42.13c-.05.15-.16.2-.25.27a2.92,2.92,0,0,1-.61.37l-.24.1a4.51,4.51,0,0,1-1.55.22c-.33,0-.66,0-1,0a2.4,2.4,0,0,1-.84-.15.07.07,0,0,1,0-.11l.52-.23a6.44,6.44,0,0,1,.74-.25c.22-.07.45-.11.67-.16s.31,0,.46-.08a2.28,2.28,0,0,1,.64-.06h.93l.35,0Z"></path><path d="M24,19.93a2.25,2.25,0,0,1-.87,2l-.4.28a.25.25,0,0,1-.14.06.16.16,0,0,1-.12,0s0-.09,0-.12a.54.54,0,0,1,.09-.12,2,2,0,0,0,.42-.72c0-.08,0-.17.07-.25a3.53,3.53,0,0,0,.15-.9,2.55,2.55,0,0,0-.1-.77c-.06-.17-.09-.35-.15-.52a2,2,0,0,0-.43-.73s-.06-.06-.06-.09a.12.12,0,0,1,0-.12.14.14,0,0,1,.11,0l.32.17a2.84,2.84,0,0,1,.66.58,2.78,2.78,0,0,1,.33.64A2.43,2.43,0,0,1,24,19.93Z"></path><path d="M18.73,30.12c-.19,0-.4,0-.6-.08a2.12,2.12,0,0,1-.65-.24,2,2,0,0,1-.41-.34c-.15-.17-.28-.36-.41-.54a1.43,1.43,0,0,1-.12-.21.13.13,0,0,1,.06-.16s.09,0,.12,0a2.53,2.53,0,0,0,.72.44,4,4,0,0,0,.83.21,3,3,0,0,0,.51.06,4.76,4.76,0,0,0,.66-.09l.29-.06a2.25,2.25,0,0,0,.72-.33l.32-.24c.05,0,.1-.06.15,0a.11.11,0,0,1,0,.16,2.93,2.93,0,0,1-.61.79,1.85,1.85,0,0,1-.63.41,5.83,5.83,0,0,1-.72.18Z"></path><path d="M13.92,30.13,13.25,30a1.53,1.53,0,0,1-.55-.21,1.88,1.88,0,0,1-.41-.32,4.41,4.41,0,0,1-.53-.75.12.12,0,0,1,0-.17c.06,0,.11,0,.16,0a2.42,2.42,0,0,0,1.38.64,3.22,3.22,0,0,0,.69.06l.66-.08.27-.07a2.35,2.35,0,0,0,.69-.29c.12-.08.22-.18.34-.27a.19.19,0,0,1,.15,0c.06,0,.05.08,0,.14a.08.08,0,0,1,0,0,3.42,3.42,0,0,1-.71.85,1.91,1.91,0,0,1-.56.34,5.32,5.32,0,0,1-.69.16Z"></path><path d="M13.49,40.52a2.37,2.37,0,0,0,1.06,0,.26.26,0,0,0,.11-.07,1.37,1.37,0,0,1,.16-.18.18.18,0,0,1,.3,0c-.06.12-.12.25-.17.38s-.12.14-.24.14H12.48a.41.41,0,0,1-.11,0s-.07,0-.07-.08a.1.1,0,0,1,0-.09.57.57,0,0,1,.18,0c.15,0,.17,0,.21-.19a.88.88,0,0,0,0-.16V39a.51.51,0,0,0,0-.17c0-.17-.06-.18-.24-.2s-.18,0-.17-.18l.16,0h1.26c.06,0,.1,0,.09.08a.21.21,0,0,1-.07.11s-.07,0-.1,0-.24.08-.24.25v1.18A.74.74,0,0,0,13.49,40.52Z"></path><path d="M13.58,26.5,13.45,26h-.2a.72.72,0,0,1-.38-.1.29.29,0,0,1-.17-.25,3,3,0,0,1,0-.79,2.88,2.88,0,0,0,0-.33c.07,0,.15,0,.21,0a3.81,3.81,0,0,1,1.12.69,1.46,1.46,0,0,1,.32.43.35.35,0,0,1-.06.4,1.36,1.36,0,0,1-.48.34Z"></path><path d="M18.77,26.49c-.08-.17,0-.37-.13-.52h-.16a.82.82,0,0,1-.38-.09.3.3,0,0,1-.2-.28c0-.27,0-.54,0-.81,0-.09,0-.18,0-.26s.23,0,.33,0a3.48,3.48,0,0,1,.94.57,2.37,2.37,0,0,1,.32.39c.16.23.12.43-.13.63A1.64,1.64,0,0,1,18.77,26.49Z"></path><path d="M18.77,21.19c-.07-.18,0-.36-.1-.49l-.42-.08a.78.78,0,0,1-.21-.09.27.27,0,0,1-.14-.25c0-.18,0-.37,0-.56s.05-.35.08-.52a.46.46,0,0,1,.33.06c.23.12.46.24.68.38a1.73,1.73,0,0,1,.62.64.36.36,0,0,1-.05.47,1.4,1.4,0,0,1-.55.35Z"></path><path d="M13.47,20.7,13,20.62a.39.39,0,0,1-.34-.41,5.4,5.4,0,0,1,.08-1s0,0,0,0,.18,0,.26.06a5.22,5.22,0,0,1,.74.39,2,2,0,0,1,.62.65.36.36,0,0,1-.05.45,1.48,1.48,0,0,1-.58.37l-.09,0c-.13.05-.14,0-.16-.08S13.49,20.81,13.47,20.7Z"></path><path d="M28.94,8.09l.64.12a.74.74,0,0,1-.09.12c-.2.26-.4.52-.61.77-.08.1-.09.11-.19,0a1.3,1.3,0,0,0-.92-.2.84.84,0,0,0-.35.07.17.17,0,0,1-.2,0l-.7-.53s0-.07.06-.08L27,8.14c.08,0,.13,0,.18.06a2.15,2.15,0,0,0,.14.26.16.16,0,0,0,.2.1h.16c.1,0,.12-.07.09-.16s-.07-.12-.1-.19a.11.11,0,0,1,0-.16c.11-.1.21-.22.32-.33l.33.27a.12.12,0,0,1,0,.18l-.11.3a1.85,1.85,0,0,0,.52,0s.08-.08.1-.12S28.91,8.19,28.94,8.09Z"></path><path d="M16.3,29.5l.2.19.56.54h0c.15.15.15.2,0,.35l-.55.55c-.23.24-.23.2-.43,0s-.36-.37-.55-.55-.17-.19,0-.38.42-.41.63-.61A.81.81,0,0,1,16.3,29.5Z"></path><path d="M47.73,21.86l0,.06-.8.81c-.06.06-.1.05-.16,0l-.44-.46-.3-.32c-.09-.08-.09-.09,0-.18l.72-.75a.12.12,0,0,1,.19,0c.2.2.41.4.61.61a1.37,1.37,0,0,1,.17.17Z"></path><path d="M38.72,30.63l.39-.42c.12-.12.24-.23.36-.36s.16-.12.26,0l.74.75.05.06a.73.73,0,0,1-.05.09l-.76.73c-.09.09-.12.09-.21,0l-.72-.73S38.74,30.68,38.72,30.63Z"></path><path d="M9.31,22.48l-.07.08-.53.54-.22.22a.1.1,0,0,1-.16,0L8,23l-.42-.42c-.08-.09-.09-.1,0-.19L8,21.93l.29-.28c.09-.09.12-.09.2,0l.53.53.21.22Z"></path><path d="M25.2,22.47l-.63.65-.18.17c-.09.09-.12.1-.22,0s-.22-.21-.32-.32-.27-.27-.41-.41-.08-.11,0-.19l.77-.75c.06-.06.11-.06.16,0Z"></path><path d="M35,27.14v1.18c0,.1,0,.13-.13.13-.35,0-.7,0-1,0a.11.11,0,0,1-.12-.12c0-.39,0-.77,0-1.18C34.17,27.13,34.59,27.14,35,27.14Z"></path><path d="M32.22,21l.84.85c.06.06.06.1,0,.15l-.77.78a.1.1,0,0,1-.17,0l-.84-.83C31.58,21.56,31.9,21.28,32.22,21Z"></path><path d="M9.87,28.87V27.74c0-.13,0-.15.16-.15h1c.13,0,.15,0,.15.15v1c0,.12,0,.15-.15.15-.34,0-.67,0-1,0A1.24,1.24,0,0,1,9.87,28.87Z"></path><path d="M21.52,28.88V27.73c0-.12,0-.14.15-.14h1a.94.94,0,0,1,.16,0v1.24a1.16,1.16,0,0,1-.18,0c-.31,0-.63,0-.94,0A1,1,0,0,1,21.52,28.88Z"></path><path d="M45.36,27.14a4.67,4.67,0,0,1,0,1.3H44.16a6.12,6.12,0,0,1,0-1.3C44.55,27.13,45,27.14,45.36,27.14Z"></path><path d="M14.77,25.43a7.31,7.31,0,0,0-.51-.57,4.41,4.41,0,0,0-.6-.44c-.21-.14-.45-.22-.66-.35a.15.15,0,0,1,.08-.18,1,1,0,0,1,.93-.16,2.68,2.68,0,0,1,.49.21.8.8,0,0,1,.42.79,4.35,4.35,0,0,1-.06.52A.6.6,0,0,1,14.77,25.43Z"></path><path d="M20,25.29a.36.36,0,0,1-.1-.07,2.59,2.59,0,0,0-.81-.77,5.84,5.84,0,0,0-.65-.35c-.1-.06-.12-.11,0-.19a.58.58,0,0,1,.4-.16,1.4,1.4,0,0,1,1,.34.76.76,0,0,1,.29.6A1.41,1.41,0,0,1,20,25.29Z"></path><path d="M18.29,18.72a.43.43,0,0,1,.36-.24,1.38,1.38,0,0,1,1.14.31.77.77,0,0,1,.26.48A1.6,1.6,0,0,1,20,20a.5.5,0,0,1-.1-.11,2.85,2.85,0,0,0-.78-.73,5.12,5.12,0,0,0-.69-.37Z"></path><path d="M14.75,20a3.7,3.7,0,0,0-1.66-1.27.42.42,0,0,1,.36-.26,1.37,1.37,0,0,1,1.15.32.74.74,0,0,1,.26.5A1.49,1.49,0,0,1,14.75,20Z"></path><path d="M18.87,14.54a.5.5,0,0,1-.45-.16,1.4,1.4,0,0,1-.09-.17.4.4,0,0,1,.74-.29c.13.18.1.31-.12.58l.1,0a.41.41,0,0,1,.39.34.42.42,0,0,1-.31.47.43.43,0,0,1-.39-.16C18.61,15,18.63,14.76,18.87,14.54Z"></path><path d="M10.34,18.33a.47.47,0,0,1,.47-.48.47.47,0,0,1,.48.44.5.5,0,0,1-.5.51A.49.49,0,0,1,10.34,18.33Z"></path><path d="M22.27,18.3a.5.5,0,0,1-.47.5.48.48,0,1,1,0-1A.5.5,0,0,1,22.27,18.3Z"></path><path d="M43.5,18.55A.45.45,0,0,1,43,19a.48.48,0,0,1,0-1A.45.45,0,0,1,43.5,18.55Z"></path><path d="M42.82,27.14a.49.49,0,0,1-.49-.5.48.48,0,0,1,1,0A.47.47,0,0,1,42.82,27.14Z"></path><path d="M33,22.83a.44.44,0,0,1,.47.45.48.48,0,1,1-.95,0A.43.43,0,0,1,33,22.83Z"></path><path d="M36.33,27.14a.47.47,0,0,1-.46-.46.5.5,0,0,1,.5-.48.48.48,0,0,1,.45.44A.46.46,0,0,1,36.33,27.14Z"></path><path d="M22.27,26.65a.48.48,0,0,1-.48.5.47.47,0,0,1-.47-.46.47.47,0,0,1,.47-.49A.5.5,0,0,1,22.27,26.65Z"></path><path d="M46.68,23.3a.46.46,0,0,1-.49.45.45.45,0,0,1-.46-.45.44.44,0,0,1,.48-.47A.43.43,0,0,1,46.68,23.3Z"></path><path d="M35.49,25.34a.44.44,0,0,1,.46.46c0,.33-.18.48-.44.49a.45.45,0,0,1-.49-.45A.45.45,0,0,1,35.49,25.34Z"></path><path d="M10.8,27.15a.45.45,0,0,1-.46-.44.49.49,0,0,1,.47-.51.48.48,0,1,1,0,.95Z"></path><path d="M44.14,25.82a.47.47,0,1,1-.93,0,.44.44,0,0,1,.46-.47A.44.44,0,0,1,44.14,25.82Z"></path><path d="M22.27,21.87a.47.47,0,0,1-.46.48.46.46,0,0,1-.49-.44.48.48,0,0,1,.95,0Z"></path><path d="M21.78,23.56a.44.44,0,0,1-.46-.45.47.47,0,0,1,.48-.48.48.48,0,0,1,.47.47A.45.45,0,0,1,21.78,23.56Z"></path><path d="M21,27.9a.47.47,0,0,1-.47.47.45.45,0,0,1-.47-.44.47.47,0,1,1,.94,0Z"></path><path d="M45.58,21.52a.45.45,0,0,1-.49-.45.49.49,0,0,1,.44-.49.52.52,0,0,1,.52.48A.49.49,0,0,1,45.58,21.52Z"></path><path d="M36.52,18.49c0,.1,0,.22-.09.3A.51.51,0,0,1,36,19a.48.48,0,0,1-.43-.5.49.49,0,0,1,.5-.46A.44.44,0,0,1,36.52,18.49Z"></path><path d="M12.2,27.44c.25,0,.45.16.46.48a.43.43,0,0,1-.46.45.45.45,0,0,1-.47-.48A.44.44,0,0,1,12.2,27.44Z"></path><path d="M17,27.44a.44.44,0,0,1,.45.49.46.46,0,0,1-.46.44.45.45,0,0,1-.47-.48A.43.43,0,0,1,17,27.44Z"></path><path d="M10.34,23.1a.48.48,0,0,1,.49-.47.47.47,0,1,1,0,.93A.44.44,0,0,1,10.34,23.1Z"></path><path d="M15.77,27.44a.48.48,0,0,1,.48.46.53.53,0,0,1-.48.48.46.46,0,0,1-.46-.48A.42.42,0,0,1,15.77,27.44Z"></path><path d="M10.34,21.9a.46.46,0,0,1,.46-.48.46.46,0,0,1,.49.45.5.5,0,0,1-.49.49A.48.48,0,0,1,10.34,21.9Z"></path><path d="M40.74,29.22a.36.36,0,0,1-.11.31.49.49,0,0,1-.34.15.47.47,0,0,1-.46-.47.44.44,0,0,1,.5-.48C40.58,28.73,40.74,28.91,40.74,29.22Z"></path><path d="M38.88,28.73a.44.44,0,0,1,.46.48.48.48,0,0,1-.48.47.62.62,0,0,1-.35-.16.44.44,0,0,1-.09-.36A.43.43,0,0,1,38.88,28.73Z"></path><path d="M33.55,20.54c.31,0,.46.16.46.48a.4.4,0,0,1-.45.44.42.42,0,0,1-.47-.47A.41.41,0,0,1,33.55,20.54Z"></path><path d="M35,15.27a.41.41,0,0,1,.38-.42.43.43,0,0,1,.42.42.42.42,0,0,1-.38.39C35.23,15.65,35,15.51,35,15.27Z"></path><path d="M18.09,15.16a.41.41,0,0,1-.38-.41.38.38,0,0,1,.43-.38.4.4,0,0,1,.38.41A.43.43,0,0,1,18.09,15.16Z"></path><path d="M39,14.87a.37.37,0,0,1-.39-.39.41.41,0,0,1,.81,0A.37.37,0,0,1,39,14.87Z"></path><path d="M39.85,14.11l-.31.05a.39.39,0,0,1-.1-.77.39.39,0,0,1,.47.57.59.59,0,0,0-.07.16Z"></path><path d="M14.12,14.92a.4.4,0,0,1-.39.42.43.43,0,0,1-.39-.42.4.4,0,0,1,.41-.4A.37.37,0,0,1,14.12,14.92Z"></path><path d="M16.31,14.6a.38.38,0,0,1-.4.39.36.36,0,0,1-.38-.4.39.39,0,1,1,.78,0Z"></path><path d="M16.66,14.22l.24,0a.4.4,0,0,1,.34.56.37.37,0,0,1-.38.23.4.4,0,0,1-.36-.27.37.37,0,0,1,.07-.36,1.19,1.19,0,0,0,.09-.15Z"></path><path d="M20.11,15.37a.35.35,0,0,1,.38-.39.36.36,0,0,1,.4.4.4.4,0,0,1-.39.39A.38.38,0,0,1,20.11,15.37Z"></path><path d="M16.66,14.21a.47.47,0,0,1-.4,0,.39.39,0,1,1,.34-.71.41.41,0,0,1,.12.63l-.06.07Z"></path><path d="M43.64,15.64a.33.33,0,0,1-.36-.37.39.39,0,0,1,.39-.42.42.42,0,0,1,.39.43C44.06,15.51,43.91,15.64,43.64,15.64Z"></path><path d="M14.07,13.75c.2,0,.38.15.39.39a.4.4,0,1,1-.8,0A.39.39,0,0,1,14.07,13.75Z"></path><path d="M12.58,15.38a.38.38,0,0,1-.39.39.41.41,0,0,1-.39-.43.38.38,0,0,1,.41-.36A.35.35,0,0,1,12.58,15.38Z"></path><path d="M34.2,15.7a.37.37,0,0,1,.37-.4.41.41,0,0,1,.41.39.42.42,0,0,1-.4.41A.38.38,0,0,1,34.2,15.7Z"></path><path d="M39.84,14.12a.58.58,0,0,1,.37,0,.39.39,0,0,1,.19.45.32.32,0,0,1-.33.27.69.69,0,0,1-.25,0,.4.4,0,0,1,0-.68l.06,0Z"></path><path d="M44.92,15.69a.39.39,0,0,1-.78,0c0-.28.16-.38.4-.39A.35.35,0,0,1,44.92,15.69Z"></path><path d="M11.34,16.19a.38.38,0,0,1-.4-.4.4.4,0,0,1,.4-.38.39.39,0,1,1,0,.78Z"></path><path d="M14.7,14.37a.36.36,0,0,1,.37.4.39.39,0,1,1-.37-.4Z"></path><path d="M44.43,15.22c-.25,0-.37-.13-.37-.39a.39.39,0,0,1,.4-.39.39.39,0,0,1,.37.42C44.83,15.09,44.69,15.22,44.43,15.22Z"></path><path d="M36.9,14.41a.37.37,0,0,1,.39-.4.42.42,0,0,1,.39.4.39.39,0,0,1-.42.39A.34.34,0,0,1,36.9,14.41Z"></path><path d="M41.72,14.8a.37.37,0,0,1-.39-.38.42.42,0,0,1,.41-.41.39.39,0,0,1,.37.42A.35.35,0,0,1,41.72,14.8Z"></path><path d="M21.29,14.57a.35.35,0,0,1,.38.39.4.4,0,0,1-.38.39.4.4,0,0,1-.4-.42A.36.36,0,0,1,21.29,14.57Z"></path><path d="M11,15c0-.26.12-.38.39-.38a.35.35,0,0,1,.38.37.41.41,0,0,1-.4.41A.39.39,0,0,1,11,15Z"></path><path d="M34.65,15.22a.35.35,0,0,1-.39-.38.4.4,0,0,1,.41-.4.38.38,0,0,1,.37.42C35,15.1,34.9,15.22,34.65,15.22Z"></path><path d="M21.73,15.81a.35.35,0,0,1-.38.38.38.38,0,0,1-.4-.4.4.4,0,0,1,.4-.38A.36.36,0,0,1,21.73,15.81Z"></path><path d="M25.59,8.55a.32.32,0,0,1-.32-.34.37.37,0,0,1,.34-.33.35.35,0,0,1,.33.33A.32.32,0,0,1,25.59,8.55Z"></path><path d="M25.37,9.58a.3.3,0,0,1-.31-.32.38.38,0,0,1,.32-.36.36.36,0,0,1,.32.34A.3.3,0,0,1,25.37,9.58Z"></path><path d="M26.79,7.45a.31.31,0,0,1-.32.34.36.36,0,0,1-.32-.34c0-.17.18-.37.33-.35S26.81,7.21,26.79,7.45Z"></path><path d="M29.9,9.88a.34.34,0,0,1,.32-.35.36.36,0,0,1,.34.34.35.35,0,0,1-.35.34A.32.32,0,0,1,29.9,9.88Z"></path><path d="M29,6.84a.36.36,0,0,1,.33.34.37.37,0,0,1-.33.33.34.34,0,1,1,0-.67Z"></path><path d="M25.47,10.37a.32.32,0,0,1,.33-.31.33.33,0,0,1,.34.32.35.35,0,0,1-.35.33A.31.31,0,0,1,25.47,10.37Z"></path><path d="M27.8,7.37A.29.29,0,0,1,27.48,7a.31.31,0,0,1,.34-.31.28.28,0,0,1,.31.31A.29.29,0,0,1,27.8,7.37Z"></path><path d="M30.63,9.11a.3.3,0,0,1-.32-.33.28.28,0,0,1,.3-.31.3.3,0,0,1,.34.31A.31.31,0,0,1,30.63,9.11Z"></path><path d="M30.22,7.36a.3.3,0,0,1,.31.33.32.32,0,1,1-.63,0A.28.28,0,0,1,30.22,7.36Z"></path><path d="M49.9,36.21h.79a.28.28,0,0,0,.22-.2l.16-.46,0,0c.07-.27.09-.24-.1-.43s-.28-.26-.42-.39a.39.39,0,0,0-.11-.06l-.09.18c-.09.14-.16.14-.27,0l.19-.51,0-.09a.77.77,0,0,0,.1-.42,1.29,1.29,0,0,1,.43-1,1.72,1.72,0,0,1,.51-.33l.59-.28c.2-.1.23-.18.2-.41l0,0c-.27,0-.55-.1-.82-.12s-.2,0-.26.18-.07.17-.25.14a1.62,1.62,0,0,1,0-.22c0-.24.08-.48.13-.72s.09-.42.13-.62c.19,0,.21,0,.21.15a.75.75,0,0,0,0,.15.18.18,0,0,0,.16.17l.86.15.79.13.46.11h.05c.21,0,.28,0,.33-.21l0-.1s.06-.08.12-.07a.14.14,0,0,1,.11.13v0c-.07.43-.12.87-.2,1.3a2.68,2.68,0,0,1-.29.88,1,1,0,0,1-.52.46.75.75,0,0,1-.92-.49c0-.09-.06-.17-.08-.25s-.21,0-.3.07c-.26.12-.51.26-.76.4a.7.7,0,0,0-.4.55.46.46,0,0,0,.14.4l.57.6c.39.4.77.81,1.17,1.2.12.12.24.21.21.4s0,.08.05.13,0,.21-.14.24h-.13l-2.66,0a.46.46,0,0,0-.45.25.87.87,0,0,0-.08.1,1.14,1.14,0,0,0-.14.49.19.19,0,0,0,.08.11l.49.28,1.33.68.24.09s.11,0,.14,0a.45.45,0,0,0,.16-.12.7.7,0,0,0,.06-.09c.06-.1.06-.1.2-.09a.32.32,0,0,1,0,.27l-.59,1.16c0,.1-.06.1-.22.07a2.45,2.45,0,0,1,0-.27.22.22,0,0,0-.12-.29l-.35-.18c-.35-.19-.71-.37-1.07-.55-.12-.06-.25-.13-.38-.18a.59.59,0,0,0-.25-.07.18.18,0,0,0-.18.09,3.2,3.2,0,0,0-.29.51,1.54,1.54,0,0,1-.08.19.54.54,0,0,0,.05.56.57.57,0,0,1,.08.13.17.17,0,0,1,0,.21.14.14,0,0,1-.18,0L48,40a.24.24,0,0,1,0-.29c.11-.2.21-.41.31-.62l.34-.65.36-.69a2.06,2.06,0,0,1,.23-.41s0-.13,0-.19L49.67,36a.16.16,0,0,1,0-.08s.09,0,.12,0a.12.12,0,0,1,.06.1,1,1,0,0,1,0,.17S49.9,36.17,49.9,36.21ZM53.7,32l-.57-.12-.54-.09c-.06,0-.12,0-.12.07a1.19,1.19,0,0,0,0,.62.45.45,0,0,0,.16.22.63.63,0,0,0,1-.19A.74.74,0,0,0,53.7,32Zm-1.59,4.13-.68-.66c-.09.23-.16.42-.23.62s0,.11.09.11l.71,0Z"></path><path d="M43.35,49.43l-.83.51a.25.25,0,0,1-.19,0l-.46-.17-.43-.11-.82-.19-.71-.15-.5-.13a.51.51,0,0,0,0,.13c.23.39.46.79.7,1.18a1.92,1.92,0,0,0,.18.22.17.17,0,0,0,.21,0l.24-.1c.06,0,.12,0,.12.12s-.05.11-.11.14l-.87.5a.28.28,0,0,1-.18,0,.08.08,0,0,1-.06-.14.53.53,0,0,1,.13-.13c.12-.11.12-.13.06-.28a3.39,3.39,0,0,0-.32-.63c-.14-.23-.28-.47-.41-.71s-.38-.66-.56-1a.16.16,0,0,1,.14-.24h.13c.23.06.45.13.68.18l1,.23.61.16.79.19h.14C42,49,42,49,42,48.9c-.2-.36-.4-.72-.61-1.07-.06-.09-.14-.17-.2-.27a.21.21,0,0,0-.25-.1l-.16,0c-.12,0-.18,0-.2,0s0-.14.11-.19l.59-.32c.14-.07.27-.16.4-.24.15.09.16.14.06.25l0,0c-.16.13-.18.2-.08.37.2.38.41.75.62,1.12l.32.56.07.11a.37.37,0,0,0,.49.14l.07,0C43.31,49.24,43.36,49.29,43.35,49.43Z"></path><path d="M45.14,47.93a.23.23,0,0,1-.24,0l-.69-.37-.69-.35-.77-.41-.41-.2a.29.29,0,0,0-.3,0,.35.35,0,0,1-.14.06.1.1,0,0,1-.14,0,.11.11,0,0,1,0-.15l.57-.46.31-.28a.81.81,0,0,1,.14-.12.12.12,0,0,1,.16,0c.05,0,0,.1,0,.15s-.13.18.08.29.35.18.51.28.13,0,.19,0l.57-.5a.17.17,0,0,0,.06-.23c-.06-.19-.11-.38-.18-.58a.59.59,0,0,0-.08-.16l-.19.11c-.08,0-.13,0-.19,0s0-.11,0-.18l.75-.62a.17.17,0,0,1,.22,0,.14.14,0,0,1-.05.19.38.38,0,0,0-.12.41c0,.19.11.39.17.59s0,.22.08.33c.07.3.14.59.22.88s.17.57.25.85a.2.2,0,0,1,0,.13C45.24,47.66,45.19,47.79,45.14,47.93ZM44.73,47l0,0a6.48,6.48,0,0,0-.24-.83l-.11,0-.4.32s0,.07,0,.1Z"></path><path d="M51.44,28.94l.24-.08.45-.19a.24.24,0,0,0,.19-.27c0-.23,0-.47,0-.7,0-.06,0-.13-.07-.15l-.74-.28h-.06a1.71,1.71,0,0,1-.09.27c0,.05,0,.11-.1.08s-.08-.06-.11-.1a.17.17,0,0,1,0-.1c0-.3,0-.61,0-.91v-.09a.12.12,0,0,1,.1-.11c.07,0,.1,0,.12.09l.07.22a.26.26,0,0,0,.16.19l1.2.53,1.16.52a.28.28,0,0,0,.12,0,.21.21,0,0,1,.2.15,2.53,2.53,0,0,0,.13.22.15.15,0,0,1-.06.26l-.67.27-1.19.52-.71.31-.16.08a.19.19,0,0,0-.12.16,1.6,1.6,0,0,1,0,.21.13.13,0,0,1-.13.11c-.07,0-.09-.06-.09-.12s0-.22,0-.33l0-.9c0-.14,0-.22.11-.23s.13.07.14.2A1.11,1.11,0,0,0,51.44,28.94Zm1.21-1.25a.6.6,0,0,0,0,.14v.47a.16.16,0,0,0,.08.15l.8-.37C53.22,27.89,52.92,27.86,52.65,27.69Z"></path><path d="M50.91,24.64c0-.16,0-.32,0-.48a1.67,1.67,0,0,1,.43-1.07,1.22,1.22,0,0,1,.93-.46l.21,0,.21,0a1.55,1.55,0,0,1,.89.49,2.47,2.47,0,0,1,.51.87c.08.23.1.49.16.74a3.63,3.63,0,0,1,0,.87c0,.21,0,.23-.21.3L53.6,26a.13.13,0,0,1-.18-.07.19.19,0,0,1,.09-.21,1,1,0,0,0,.43-1.13,2.27,2.27,0,0,0-.2-.57,1.21,1.21,0,0,0-.58-.52,1.4,1.4,0,0,0-.88,0,1.93,1.93,0,0,0-.4.15.94.94,0,0,0-.38.3,1.48,1.48,0,0,0-.26,1.27,1.11,1.11,0,0,0,.4.68,2.17,2.17,0,0,0,.33.19.17.17,0,0,1,.12.16.11.11,0,0,1-.11.12,1.38,1.38,0,0,1-.6-.1c-.16-.07-.2-.22-.25-.35a5.62,5.62,0,0,1-.19-.58.77.77,0,0,1,0-.15v-.56Z"></path><path d="M38.21,48.79c0,.1,0,.16-.08.21a.51.51,0,0,0-.25.47c0,.61-.09,1.22-.09,1.84a5.67,5.67,0,0,1,0,.58,1.09,1.09,0,0,0,0,.18.19.19,0,0,1-.06.18,1.77,1.77,0,0,0-.16.22.14.14,0,0,1-.21.05.75.75,0,0,1-.14-.12L35.85,51c-.2-.21-.41-.4-.6-.61a.37.37,0,0,0-.36-.1.39.39,0,0,1-.15,0,.15.15,0,0,1-.1-.09s0-.09.06-.12l.21-.09.49-.21.55-.21H36c.09.14.09.15,0,.24l-.07,0c-.06,0-.08.07,0,.13l.23.25.37.36.74-.28a.29.29,0,0,0,.21-.32c0-.12,0-.25,0-.38s0-.2,0-.33l-.2,0c-.13.05-.16,0-.24-.13a.54.54,0,0,1,.16-.1l.74-.29C38.09,48.76,38.09,48.76,38.21,48.79Zm-.83,2.76s0,0,0,0c0-.26,0-.52,0-.78,0-.08,0-.11-.14-.07l-.53.24A2.57,2.57,0,0,0,37.38,51.55Z"></path><path d="M49,44.07a.33.33,0,0,0-.29.15l-.56.67-.75.87-.4.48a.76.76,0,0,0-.08.21s0,.08,0,.12-.12.1-.19,0a2.52,2.52,0,0,0-.39-.41c-.1-.07-.11-.14-.06-.22s.1-.1.19-.05.31.1.46,0,.31-.35.47-.51,0-.11,0-.16l-.56-.46c-.17-.14-.34-.28-.5-.43l-.62-.52a.91.91,0,0,0-.16-.11.22.22,0,0,0-.22,0l-.15.13c-.1.09-.1.09-.23,0a.16.16,0,0,1,0-.17c.29-.33.57-.68.85-1l.09-.12s.06-.08.1-.1a.19.19,0,0,1,.15,0c.06,0,.05.09,0,.14a2.46,2.46,0,0,1-.17.27A.1.1,0,0,0,46,43c.08.08.15.16.24.24l.45.38.6.49.52.43c.11.09.13.09.23,0a2.67,2.67,0,0,0,.46-.64.33.33,0,0,0,0-.24.93.93,0,0,1-.05-.24.13.13,0,0,1,.1-.13.13.13,0,0,1,.15.05.22.22,0,0,1,.05.08l.24.38C49,43.9,49,43.92,49,44.07Z"></path><path d="M49.26,43.05c0-.08.08-.15.11-.22s0-.15-.06-.22a3.39,3.39,0,0,0-.63-.44c-.16-.09-.3-.2-.45-.3l-.74-.47a1.36,1.36,0,0,0-.21-.1.13.13,0,0,0-.18.05.57.57,0,0,1-.13.14.12.12,0,0,1-.19,0s0-.09,0-.14l.71-1.11.06-.09a.12.12,0,0,1,.17,0s0,.09,0,.13,0,.1-.05.16a.23.23,0,0,0,.11.31l1.47.94c.15.09.3.18.44.28a.13.13,0,0,0,.18,0l.16-.17s.07-.07.12,0a.13.13,0,0,1,.08.15.22.22,0,0,1,0,.08l-.5.77-.16.26s0,.06,0,.08S49.37,43.18,49.26,43.05Z"></path><path d="M5.41,38.66c.12-.25.24-.49.35-.73s.11-.25.16-.38A.67.67,0,0,0,6,37s0-.08,0-.12.13-.06.21,0a1.46,1.46,0,0,1,.29,1.07,2,2,0,0,1-.27.78c-.09.16-.18.32-.26.49a.25.25,0,0,0,0,.19c0,.07,0,.18.17.21.22-.13.47-.25.7-.38s.21-.17.12-.38,0-.12,0-.17.14-.05.2,0,.12.22.18.33l.45.88a.19.19,0,0,1,0,.15s-.07,0-.1,0a.13.13,0,0,1-.09-.06,1.62,1.62,0,0,0-.19-.18.1.1,0,0,0-.1,0L7,40l-.93.48-.72.36a1,1,0,0,0-.17.1c-.13.08-.14.14-.09.28s0,.07,0,.1,0,.11-.06.14a.11.11,0,0,1-.16,0,2.4,2.4,0,0,1-.16-.27c-.19-.35-.37-.71-.55-1.07a1.92,1.92,0,0,1-.23-1,.7.7,0,0,1,.4-.61.76.76,0,0,1,.85.12l.12.08ZM4.67,40.3a6.2,6.2,0,0,0,1.09-.59c-.07-.12-.14-.26-.22-.38a.59.59,0,0,0-1,.06.68.68,0,0,0,0,.75Z"></path><path d="M14.13,48.14l-.07.09c-.2.37-.41.73-.61,1.11a2.68,2.68,0,0,0-.12.3.29.29,0,0,0,.12.32,1.42,1.42,0,0,0,.16.11s0,.12,0,.15-.11,0-.18,0-.41-.25-.62-.37l-.3-.14a.14.14,0,0,1-.1-.12c0-.07,0-.11.09-.14a2.29,2.29,0,0,0,.28.09.27.27,0,0,0,.14-.07,3.71,3.71,0,0,0,.28-.41c.13-.21.25-.43.37-.65l.32-.62.37-.64a.15.15,0,0,1,.16-.11.19.19,0,0,1,.18.14c0,.14.1.29.14.43s.13.41.2.61.16.55.25.82.09.28.14.42l.27.89,0,.06s.07,0,.09-.09c.15-.26.31-.53.44-.8s.25-.53.37-.79c.05-.09,0-.14-.07-.2s-.12-.09-.16-.14-.08-.12,0-.18.1,0,.16,0l.94.52c.08,0,.12.12.08.2s-.09.08-.19,0l0,0c-.17-.06-.24,0-.34.11s-.26.43-.38.65l-.6,1.08a1.11,1.11,0,0,0-.09.19.21.21,0,0,0,0,.11.76.76,0,0,0,.25.34c.07.05.09.13,0,.18a.13.13,0,0,1-.18,0l-.74-.41A.3.3,0,0,1,15,51c-.08-.32-.16-.65-.27-1s-.21-.63-.31-1-.16-.46-.23-.7Z"></path><path d="M7,44.54a1.07,1.07,0,0,1-.14-.16c-.29-.42-.58-.85-.88-1.27-.14-.21-.29-.41-.44-.61s-.07-.17,0-.27L6,41.94a.13.13,0,0,1,.18,0,.15.15,0,0,1,0,.16,1.4,1.4,0,0,1-.09.17.38.38,0,0,0,0,.42l.42.66a.1.1,0,0,0,.15,0,1.29,1.29,0,0,0,.16-.09l.67-.49L7,42.16c-.07-.09-.16,0-.24,0a.13.13,0,0,1-.2,0c-.07-.08-.08-.15,0-.22l.33-.24.31-.22a.15.15,0,0,1,.23,0,.11.11,0,0,1,0,.16l-.1.11a.2.2,0,0,0,0,.27c.11.14.2.29.29.43l.12.16.34-.22a3.9,3.9,0,0,0,.4-.31c.15-.13.17-.22.07-.39a4.63,4.63,0,0,0-.31-.46A1.28,1.28,0,0,0,8,40.93a.54.54,0,0,0-.41-.14h-.1c-.14,0-.19,0-.18-.17a.24.24,0,0,1,0-.08l.26-.11L8,40.37c.08,0,.12.06.16.11l.58.84c.31.44.63.88.94,1.33a.21.21,0,0,1,0,.13.11.11,0,0,1-.19.08,1.42,1.42,0,0,1-.12-.13.25.25,0,0,0-.39,0l-1,.66-.82.58c-.14.1-.16.16-.09.34S7.2,44.43,7,44.54Z"></path><path d="M1.19,26.64a.47.47,0,0,1,.29-.19l.74-.26L2.94,26l.42-.16.75-.26a.34.34,0,0,0,.2-.26.29.29,0,0,1,.07-.16c.07-.08.15-.06.18.05a.27.27,0,0,1,0,.09c0,.4,0,.8,0,1.2,0,0,0,.09,0,.11a.12.12,0,0,1-.11.05s-.07-.05-.08-.08a1.31,1.31,0,0,1-.06-.25,5.59,5.59,0,0,0-.89.33c0,.29,0,.58-.07.87a.15.15,0,0,0,.09.15L4,28c.09.05.15,0,.17-.08s0-.11,0-.16a.11.11,0,0,1,.14-.08c.07,0,.08.07.08.13s0,.33,0,.49,0,.37,0,.55a.11.11,0,0,1-.1.13c-.07,0-.11,0-.13-.09a.45.45,0,0,1,0-.16.3.3,0,0,0-.2-.29l-.62-.32-.71-.39-.81-.43a.91.91,0,0,0-.22-.11.3.3,0,0,1-.21-.21Zm1,.39.73.38a.4.4,0,0,0,.11,0l0-.57c0-.13,0-.16-.15-.11l-.58.21Z"></path><path d="M18.85,52.54a16.37,16.37,0,0,0-.15-2.11l-1.52,1.34s0,.06,0,.09.22.09.23.23,0,.07-.11.14L16.61,52l-.31-.11h-.07a.14.14,0,0,1-.07-.16c0-.07.07-.08.12-.08l.12,0a.47.47,0,0,0,.41-.09c.34-.29.69-.56,1-.84l.88-.73c.13-.11.25-.24.38-.36a.2.2,0,0,1,.24-.06.13.13,0,0,1,.09.13h0c0,.4.06.8.07,1.2s.08.91.11,1.37c0,.11,0,.22,0,.33a.44.44,0,0,0,.25.45l0,0c.07.05.11.12.07.17s-.11.07-.19,0L19.18,53l-.51-.19a.32.32,0,0,1-.12-.08.19.19,0,0,1,0-.13c0-.06.06-.07.1-.07Z"></path><path d="M9.29,46.59c.3-.66.51-1.33.77-2a13.24,13.24,0,0,0-2,.6c0,.13.19.21.09.37s-.13,0-.19,0l-.67-.72c-.11-.11-.11-.13,0-.27l.16.1a.41.41,0,0,0,.33.11,5.07,5.07,0,0,0,.54-.09c.16,0,.31-.08.46-.12l.61-.16.35-.1,1-.33A.17.17,0,0,1,11,44c.08.09.08.12,0,.23-.11.27-.21.53-.31.8s-.22.54-.32.81-.11.3-.16.45-.18.43-.25.64a.42.42,0,0,0,0,.43.41.41,0,0,1,.07.11.16.16,0,0,1-.05.18c-.07,0-.11,0-.16,0L9.2,46.9l-.26-.28a.11.11,0,0,1,0-.15.11.11,0,0,1,.16,0Z"></path><path d="M4.31,29.23H4.5s0,.06,0,.09c0,.52.08,1,.11,1.56,0,.06,0,.11,0,.15a.13.13,0,0,1-.2-.1l-.06-.27a.15.15,0,0,0-.16-.12H3.68l-.6.05-1.28.07c-.08,0-.12,0-.11.12,0,.25,0,.49.07.73a.49.49,0,0,0,.31.35.19.19,0,0,1,.14.16c0,.13-.07.19-.19.14a1.46,1.46,0,0,0-.46-.1l-.12,0a.12.12,0,0,1-.07-.19.43.43,0,0,0,0-.33L1.33,29.8c0-.28,0-.56-.07-.85a.41.41,0,0,0-.09-.22.26.26,0,0,1,0-.24c.13-.06.25,0,.38,0h.4c.12.15.1.22-.07.28a.35.35,0,0,0-.26.31,5.61,5.61,0,0,0,0,.71c0,.09,0,.13.16.12l.94-.08h.12L4,29.77c.19,0,.25-.06.28-.28S4.3,29.33,4.31,29.23Z"></path><path d="M3.74,35.65a4.35,4.35,0,0,1,.1-.52.88.88,0,0,1,.66-.64.71.71,0,0,1,.48,0,1,1,0,0,1,.49.37,2,2,0,0,1,.31.62,2.3,2.3,0,0,1,.13.74.42.42,0,0,1-.18.37,3.42,3.42,0,0,1-.42.23.12.12,0,0,1-.15,0,.21.21,0,0,1,0-.23l.21-.27a.86.86,0,0,0,0-1A.57.57,0,0,0,5,35.06c-.08,0-.14,0-.21,0a.57.57,0,0,0-.33.42,6.5,6.5,0,0,0-.12.77,1.2,1.2,0,0,1-.28.7.79.79,0,0,1-.9.17,1.5,1.5,0,0,1-.68-.81,3.51,3.51,0,0,1-.16-.73.23.23,0,0,1,.14-.27l.35-.17a.13.13,0,0,1,.18,0,.13.13,0,0,1,0,.18.87.87,0,0,0-.26.48s0,0,0,0a1,1,0,0,0,.21.56.4.4,0,0,0,.39.16.45.45,0,0,0,.34-.37c0-.21.07-.42.11-.64Z"></path><path d="M2.64,22.15v.16l-.46.24a.49.49,0,0,0-.24.38.29.29,0,0,1,0,.09.51.51,0,0,0,.3.64c.14.05.26,0,.37-.12A2.69,2.69,0,0,0,3.05,23a1.53,1.53,0,0,1,.67-.59.8.8,0,0,1,.55,0,1,1,0,0,1,.62.94c0,.16,0,.32,0,.48a1.93,1.93,0,0,1-.36.89.29.29,0,0,1-.24.15,3.7,3.7,0,0,1-.47,0,.22.22,0,0,1-.14-.06c-.08-.07,0-.19.1-.24s.19-.05.28-.09a1.12,1.12,0,0,0,.42-.33.85.85,0,0,0,0-.88.32.32,0,0,0-.17-.11.51.51,0,0,0-.49.08,2.4,2.4,0,0,0-.38.4,2.47,2.47,0,0,1-.63.62.8.8,0,0,1-1.1-.32,1.88,1.88,0,0,1-.12-.9,1.29,1.29,0,0,1,.08-.26c.06-.19.13-.38.2-.57A.18.18,0,0,1,2,22.08a3.69,3.69,0,0,1,.47,0A.4.4,0,0,1,2.64,22.15Z"></path><path d="M2.11,34.42A2.16,2.16,0,0,1,2,33.87a2.61,2.61,0,0,0-.06-.27c0-.17-.09-.33-.13-.5a.36.36,0,0,1,0-.25c.14,0,.14,0,.2.1s.1.23.38.21a2.83,2.83,0,0,0,.4-.08l.65-.18L4,32.73l.38-.1c.22-.06.25-.11.22-.34s0-.13.12-.21.1.09.12.17l.18.74.15.58a.13.13,0,0,1-.09.15A.1.1,0,0,1,5,33.66a.36.36,0,0,1,0-.09c-.07-.2-.11-.23-.31-.19s-.29.07-.44.1l-.48.11-.3.08-.58.13-.41.14c-.08,0-.14.08-.12.18v.14C2.3,34.41,2.29,34.43,2.11,34.42Z"></path><path d="M12.39,45.44s.09,0,.12,0l.5.43.47.38.14.14c.05.06,0,.11,0,.16s-.09,0-.13,0l-.15-.1a.19.19,0,0,0-.25.06l-.54.62-.66.79-.29.36c-.08.11-.06.18,0,.28a.76.76,0,0,1,.09.09.14.14,0,0,1,0,.21c-.07,0-.11,0-.16,0l-.95-.8-.11-.1a.14.14,0,0,1,0-.19c.05,0,.12,0,.18,0l.06,0c.11.09.17.09.27,0a2.91,2.91,0,0,0,.3-.31l.5-.61.53-.63a3.3,3.3,0,0,0,.22-.3.12.12,0,0,0,0-.17l-.11-.12A.17.17,0,0,1,12.39,45.44Z"></path><path d="M43.61,7.78c-.42.15-.81.35-1.2.52s-.78.38-1.17.58l-.17-.09a2.17,2.17,0,0,1,0-.25.24.24,0,0,1,0-.08c0-.41.11-.81.16-1.22l.12-.94s0,0,0-.07-.1,0-.13.09l-1,1.26c-.11.15-.1.2,0,.34s.06,0,.08.08.08.12,0,.18a.14.14,0,0,1-.18,0L40,8l-.58-.42s-.07,0-.08-.06a.18.18,0,0,1,0-.12s.06-.05.1-.05a.32.32,0,0,1,.14,0c.22.09.27.08.41-.09s.38-.45.57-.68L41,6c.1-.12.2-.25.29-.38a.28.28,0,0,0,0-.39l-.1-.1c-.06-.07-.06-.12,0-.18s.1,0,.16,0l.51.37.29.2.1.1A3.32,3.32,0,0,0,42,6.78c0,.37-.08.73-.12,1.09a2.42,2.42,0,0,0,0,.27l.48-.21c.26-.12.53-.23.79-.36l.94-.47a.16.16,0,0,1,.2,0l.7.52c.12.08.12.08,0,.22s-.2,0-.29-.08-.2-.07-.31.06-.27.36-.39.54c-.26.38-.5.75-.75,1.13l-.15.23a.16.16,0,0,0,0,.22,1.49,1.49,0,0,1,.12.14.14.14,0,0,1,0,.18.15.15,0,0,1-.17,0l-1-.74a.18.18,0,0,1-.08-.09.19.19,0,0,1,0-.13s.08,0,.12,0l.13.06c.14.07.17.07.25,0l.28-.39.75-1.06Z"></path><path d="M23.58,1.73c.17,0,.38,0,.6,0a1.63,1.63,0,0,1,1.18.64,1.23,1.23,0,0,1,.26.66v.2a1.36,1.36,0,0,1-.41,1,2.19,2.19,0,0,1-1,.6,10.77,10.77,0,0,1-1.13.23c-.32.06-.65.1-1,.14-.09,0-.2.06-.27-.06s0-.1,0-.13L22,4.94a.2.2,0,0,0,.18-.23c0-.06,0-.12,0-.18,0-.3-.08-.6-.13-.89S22,3.18,21.94,3a.66.66,0,0,1,0-.14c0-.14,0-.28-.07-.41a.15.15,0,0,0-.1-.09.65.65,0,0,0-.2,0s-.1,0-.11-.07,0-.12.06-.15l.06,0c.3,0,.58-.15.89-.16a3.66,3.66,0,0,0,.56-.1Zm-.95.42a1.28,1.28,0,0,0,0,.45c.06.35.1.71.15,1.07s.09.48.12.72a.44.44,0,0,0,.54.33l.32-.07a1.6,1.6,0,0,0,.62-.32,1.07,1.07,0,0,0,.35-.68,1.56,1.56,0,0,0-.18-1,1,1,0,0,0-.25-.31A1.5,1.5,0,0,0,23.46,2,3.56,3.56,0,0,0,23,2.1Z"></path><path d="M35.3,4.2l0,.13.12.3c.1.22.18.44.29.65a1.11,1.11,0,0,0,.49.56c.05,0,.05,0,.05.14a.74.74,0,0,1-.39,0,1.54,1.54,0,0,1-.61-.28,1.26,1.26,0,0,1-.22-.24,2.49,2.49,0,0,1-.29-.59,5.2,5.2,0,0,0-.21-.55.38.38,0,0,0-.27-.22c-.09,0-.13,0-.15.1-.06.26-.12.51-.19.77a.22.22,0,0,0,.15.26l.18.09V5.5a1.3,1.3,0,0,1-.22,0l-.68-.18-.58-.14A.14.14,0,0,1,32.68,5a.12.12,0,0,1,.15-.09h0c.23,0,.27,0,.38-.23s.09-.38.14-.56l.12-.4c0-.11,0-.22.07-.33.07-.28.14-.55.2-.82s0-.22-.14-.27l-.13-.06a.1.1,0,0,1,0-.1s0-.06.07-.07a.34.34,0,0,1,.1,0l.62.09.14.05c.19,0,.39.08.58.15a2.27,2.27,0,0,1,1,.51.6.6,0,0,1,.19.46.68.68,0,0,1-.19.59,1.09,1.09,0,0,1-.51.24Zm-.54-.3a.88.88,0,0,0,.17,0,.64.64,0,0,0,.21-1.08,2.52,2.52,0,0,0-.4-.21c-.1,0-.16,0-.19.1l-.21.75c0,.08-.05.16-.07.25a.09.09,0,0,0,.08.12C34.48,3.85,34.63,3.87,34.76,3.9Z"></path><path d="M30.33,1.46a2.11,2.11,0,0,1,.75.08,1.91,1.91,0,0,1,.8.47c.08.09.17.17.24.26a1.26,1.26,0,0,1,.24.8,2.52,2.52,0,0,1-.09.67.7.7,0,0,1-.09.17,1.87,1.87,0,0,1-.89.73,2.43,2.43,0,0,1-1.13.15A2.33,2.33,0,0,1,29,4.42a1.62,1.62,0,0,1-.66-.8,1.76,1.76,0,0,1-.05-.85,1.39,1.39,0,0,1,.55-.87,2.25,2.25,0,0,1,.5-.29,1.86,1.86,0,0,1,.81-.15ZM29.15,3a1.79,1.79,0,0,0,.22.94.83.83,0,0,0,.52.48,1.39,1.39,0,0,0,.81.06A1,1,0,0,0,31.3,4a1.52,1.52,0,0,0,.19-.58,1.79,1.79,0,0,0-.14-1,1.05,1.05,0,0,0-.46-.54,1.08,1.08,0,0,0-1.07-.06,1,1,0,0,0-.48.43A1.8,1.8,0,0,0,29.15,3Z"></path><path d="M18.28,3.45a1.7,1.7,0,0,0,.1.14l1.18,1.17.22.21c.13-.72.21-1.41.28-2.11h-.25a.15.15,0,0,1-.15-.11c0-.07,0-.1.08-.12L20,2.56l.62-.23a.36.36,0,0,1,.27,0c0,.14,0,.17-.08.23a.57.57,0,0,0-.33.5c0,.32-.12.64-.14,1a4.94,4.94,0,0,1-.1.53c0,.07,0,.14,0,.21l-.06.32a.43.43,0,0,1,0,0c0,.26-.05.52-.07.78C20.05,6,20,6,20,6a.16.16,0,0,1-.19,0c-.36-.37-.73-.72-1.1-1.08L18,4.22l-.3-.3a.41.41,0,0,0-.44-.13h-.09c-.05,0-.11,0-.12-.09a.12.12,0,0,1,.1-.14l.81-.28.37-.13.1,0c.06,0,.11,0,.13.07s0,.1-.05.14Z"></path><path d="M16.7,7.08,16.94,7a.2.2,0,0,1,.11,0c.06,0,.12,0,.15.07s0,.11-.08.15l-.28.16L15.78,8c-.06,0-.1.06-.16,0s-.09-.11,0-.18l.19-.14c.14-.1.16-.16.08-.31s-.18-.32-.27-.48-.23-.38-.34-.58-.37-.61-.56-.92a.39.39,0,0,0-.08-.1,3.46,3.46,0,0,0-.72.44.44.44,0,0,0-.1.19,2.33,2.33,0,0,0-.05.28s0,.07,0,.09a.37.37,0,0,1-.16.07c-.07,0-.09-.08-.11-.15s-.07-.36-.11-.53,0-.2.14-.17.19,0,.27-.07L14.53,5l1.07-.63L16.08,4s.06-.07.09-.11a.94.94,0,0,1,.09-.12.11.11,0,0,1,.19,0,1.71,1.71,0,0,0,.25.57c.05.06,0,.11,0,.16a.14.14,0,0,1-.18,0,1.49,1.49,0,0,0-.14-.12.41.41,0,0,0-.45,0l-.56.33a.37.37,0,0,0,0,.14c.33.57.67,1.15,1,1.72A1,1,0,0,0,16.7,7.08Z"></path><path d="M39.84,4.64l-.12-.11-.07-.06a.13.13,0,0,1,0-.18c0-.07.1,0,.16,0,.22.12.44.24.67.35a2.26,2.26,0,0,1,.22.11c.05,0,.12.07.09.15a.12.12,0,0,1-.17.06.71.71,0,0,0-.68.16c-.39.29-.8.55-1.2.84s-.71.53-1.06.8c-.06,0-.11.1-.19.06a.23.23,0,0,1-.14-.23,3.91,3.91,0,0,0,0-.48V3.79a1.51,1.51,0,0,0-.06-.36.28.28,0,0,0-.09-.13,1.49,1.49,0,0,1-.14-.12.1.1,0,0,1,0-.15s.1,0,.13,0,.3.14.44.21l.65.34.12.06c.07,0,.07.07.06.13s0,.08-.11.08h-.25a1.77,1.77,0,0,0,0,.2V5.9a.38.38,0,0,0,.1,0l.35-.27.73-.54Z"></path><path d="M14.24,8.45a1,1,0,0,1-.28.7,2.32,2.32,0,0,1-.64.53,3.88,3.88,0,0,1-.56.23.15.15,0,0,1-.13,0,1.06,1.06,0,0,1-.47-.39.17.17,0,0,1,0-.22s.1,0,.21,0l.36.11h0a.62.62,0,0,0,.59-.07.78.78,0,0,0,.41-.46.4.4,0,0,0-.21-.47A.69.69,0,0,0,13,8.31c-.19,0-.37.09-.56.11a2,2,0,0,1-.54,0,.72.72,0,0,1-.63-.49.83.83,0,0,1,0-.64,1.41,1.41,0,0,1,.54-.66c.17-.12.37-.21.54-.33a.28.28,0,0,1,.37,0,2.8,2.8,0,0,1,.28.31c.06.07,0,.13,0,.19s-.1,0-.16,0a.72.72,0,0,0-.54-.1.8.8,0,0,0-.59.51.36.36,0,0,0,.18.41.5.5,0,0,0,.42.08A4.64,4.64,0,0,1,13,7.59a1.51,1.51,0,0,1,.7,0,.85.85,0,0,1,.52.77Z"></path><path d="M27.83,4.41v.15l0,0-1.42.07c-.12,0-.14,0-.15-.19l.19-.07c.17,0,.23-.1.24-.27a1,1,0,0,0,0-.24,7.53,7.53,0,0,1-.05-1.06c0-.19,0-.38,0-.56s0-.31-.06-.47a.12.12,0,0,0-.12-.11h-.13c-.16,0-.19,0-.16-.21l.08,0,.89-.05.48,0c.11,0,.12,0,.19.12a.18.18,0,0,1-.17.12c-.23,0-.23,0-.28.32a1.22,1.22,0,0,0,0,.33c0,.28,0,.56,0,.83l.06,1c0,.13,0,.17.16.2Z"></path><path d="M24.31,51c0,.31-.1.63-.14.94s-.11.72-.16,1.08c0,.2-.08.4-.11.6a2,2,0,0,0,0,.24.12.12,0,0,1-.14.12l-.39-.05c-.14,0-.16,0-.14-.19s.08-.34.11-.51.05-.28.07-.41l.09-.61c0-.14.05-.29.08-.44s0-.21.05-.32.05-.34.08-.51a.14.14,0,0,1,.18-.12c.12,0,.25,0,.38.06A.09.09,0,0,1,24.31,51Z"></path><path d="M31.27,50.87l.63-.13A1.19,1.19,0,0,1,32,51c.07.33.13.66.19,1l.12.67c.06.26.13.52.18.79s0,.27,0,.42a2.74,2.74,0,0,1-.64.09Z"></path><path d="M46.15,13.22l-.09-.08c-.08-.1-.16-.19-.23-.29s-.07-.13,0-.22l.29-.27,1-.87.88-.74c.11-.09.12-.09.21,0l.27.32a.1.1,0,0,1,0,.16l-.39.34-.33.28-.92.78c-.19.17-.39.33-.59.49Z"></path><path d="M52.79,18.79l-1.09.39-.8.27-.84.32c-.2.06-.22.07-.3-.13a2.88,2.88,0,0,1-.13-.31c0-.1,0-.13.08-.17l.73-.27.72-.27,1.05-.36.28-.09a.12.12,0,0,1,.14.06c.06.14.11.27.16.41A.38.38,0,0,1,52.79,18.79Z"></path><path d="M2.9,18.73l.24-.6c.16-.05.29.05.43.08s.27.11.41.16l1.13.41.72.24.23.1a.09.09,0,0,1,.05.12c0,.05,0,.1-.05.15L6,19.66c0,.11-.09.12-.2.08l-.65-.23-1.23-.42-.56-.21Z"></path><path d="M10,12.67a2.21,2.21,0,0,1-.44.52l-.46-.38L8.21,12l-.92-.79c-.11-.1-.11-.1,0-.22l.24-.33c.07-.09.11-.09.19,0l1.22,1c.32.28.64.56,1,.83Z"></path><path d="M28.53,10.8a.49.49,0,0,1-.48.18.21.21,0,0,1,0-.1c0-.19.08-.3.26-.24Z"></path><path d="M27.8.5A27.3,27.3,0,1,1,.5,27.8,27.33,27.33,0,0,1,27.8.5m0-.5A27.8,27.8,0,1,0,55.6,27.8,27.8,27.8,0,0,0,27.8,0Z"></path></g></g></svg> 